<svg id="calendar" xmlns="http://www.w3.org/2000/svg" viewBox="0 0 195.33 136.6"><defs><style>.Graphic-Style,.Graphic-Style-2,.Graphic-Style-3{fill:#f40;}.Graphic-Style-3{fill-opacity:0.5;}.Graphic-Style{fill-opacity:0.3;}</style></defs><title>calendar</title><path class="Graphic-Style-3" d="M123.21,0,87.56,82.14c4.93,14.38,20.54,27.52,35.16,54.46h72.61Z" transform="translate(0)"/><path class="Graphic-Style-3" d="M57,93.5c-5.3-15.25,11.37-33.83,25.72-39L70.89,44.27,33,93.5Z" transform="translate(0)"/><path class="Graphic-Style-3" d="M66.86,105.31l-.36-.3v25H9.5v-6L0,136.36H103.42C92.9,121.41,78.2,113.68,66.86,105.31Z" transform="translate(0)"/><path class="Graphic-Style" d="M87.56,82.14l12-27.68H82.72c-.93.37-1.82.75-2.7,1.12C66.39,62,52,79.2,57,93.5h9.5V105l.36.3c11.34,8.37,26,16.1,36.56,31.05l19.3.24C108.1,109.66,92.49,96.52,87.56,82.14Z" transform="translate(0)"/><rect class="Graphic-Style" x="9.5" y="93.5" width="57" height="36.5"/><path id="calendar-2" data-name="calendar" class="Graphic-Style-2" d="M65.74,70.21H62.27V63.27H55.34v6.94H20.68V63.27H13.75v6.94H10.29a6.94,6.94,0,0,0-6.93,6.93v52a7,7,0,0,0,6.93,6.93H65.74a7,7,0,0,0,6.93-6.93v-52A7,7,0,0,0,65.74,70.21Zm0,58.91H10.29V94.46H65.74Zm-31.89-3.47-14.21-14.2,4.86-4.86L33.85,116,51.53,98.28l4.85,4.85Z" transform="translate(0)"/></svg>