<svg id="helicopter" xmlns="http://www.w3.org/2000/svg" viewBox="0 0 195.33 136.6"><defs><style>.Graphic-Style,.Graphic-Style-2,.Graphic-Style-3{fill:#f40;}.Graphic-Style-3{fill-opacity:0.5;}.Graphic-Style{fill-opacity:0.3;}</style></defs><title>helicopter</title><g id="mount"><path class="Graphic-Style-3" d="M123.21,0,87.56,82.14c4.93,14.38,20.54,27.52,35.16,54.46h72.61Z"/><path class="Graphic-Style-3" d="M63.66,102.68C44.44,86.82,65.3,60.78,82.72,54.46L70.89,44.27,0,136.36H103.42c-10.52-15-25.22-22.68-36.56-31.05Z"/><path class="Graphic-Style" d="M99.58,54.46H82.72c-.93.37-1.82.75-2.7,1.12-16.75,7.85-34.6,32.06-16.36,47.1l3.2,2.63c11.34,8.37,26,16.1,36.56,31.05l19.3.24C108.1,109.66,92.49,96.52,87.56,82.14Z"/></g><g id="helicopter-2" data-name="helicopter"><path class="Graphic-Style-2" d="M59.83,13.2s-10.94.57-18.09,13.57c-.71.67.08,1.28-3.61,1.84-4.12,0-19.28.06-19.28.06S13.13,26,12.54,29.94s1.94,3.81,4.85,3.48c3.27,1.49,18.75,9.19,18.75,9.19S39,43.73,40.65,48.9C44.79,59,81.77,65.24,92,49.64,77.92,47.82,60.81,42,59.83,13.2Zm-6.2,9.57c-3.17,2.17-3.26,1-8.83,8.37,0,0-.9-5.58,7.15-10.72C53.75,19.81,55.94,20.22,53.63,22.77Z"/><path id="watch_window" data-name="watch window" class="Graphic-Style" d="M61.15,13.12S97.38,11.73,92,49.64C82.76,49.07,62.25,42.39,61.15,13.12Z"/><path class="Graphic-Style-2" d="M42.33,68.49s-3.46-2.84,1.2-3c2.6-.11,38.14,0,38.14,0a9.17,9.17,0,0,0,7.38-3.94c1.27-1.75,3.83-1.92,2.08,1.19-2.39,4.27-7,5.44-11.36,5.54s-37.44.27-37.44.27"/><path class="Graphic-Style-3" d="M46.67,64.86A7.71,7.71,0,0,0,49.85,61a11.37,11.37,0,0,1,3.1.33l.81,3.54Z"/><path class="Graphic-Style-3" d="M72.67,65.14l1.69-3.28L77,61.6s.65,3,2.46,3.54Z"/><path class="Graphic-Style-2" d="M57.19,13.2l.93-2.95s1.52,1.05,4.19-1.49c-.66-.59-1.85-.77-3.43-.29.71-1.15,4.75-4.75,5.54,4.33C61.54,12.8,60.46,12.39,57.19,13.2Z"/><path id="propeller_left" data-name="propeller left" class="Graphic-Style-2" d="M58.44,9.2A94.34,94.34,0,0,0,28.86,6.1c-16.62.87-6.61,6.7,1.45,6.29C38,11.71,58.44,9.2,58.44,9.2Z"/><path id="propeller_right" data-name="propeller right" class="Graphic-Style-2" d="M63.72,8.69S78.42,4.53,86,4.7,114.35,9,89,11.45C75,11.6,76.24,11.9,63.72,8.69Z"/><path class="Graphic-Style-2" d="M1.15,30.41S2,13.85,16.65,16.14c.6,2.8.39,5.19-.12,10.06l-1.82,1.26-2.38-7.85S6.43,20.13,1.15,30.41Z"/><path class="Graphic-Style-2" d="M30.89,36.79s-3.57,8-15.1,9.28c-1.59,0-2-.6-1.09-10.93a6.09,6.09,0,0,1,1.46-1.34l2.48,8.54S27.19,40.35,30.89,36.79Z"/><path class="Graphic-Style" d="M72.64,20.17s8.42,2.14,11.14,8.32c1.76,1.66,2.53.8,1.92-1.43-1.89-3.42-2.92-6.28-11.87-9.95C70.35,16.77,72.64,20.17,72.64,20.17Z"/><ellipse class="Graphic-Style" cx="67.51" cy="16.77" rx="1.55" ry="1.9" transform="translate(23.59 70.71) rotate(-64.79)"/><path class="Graphic-Style" d="M44.8,31.14S43.9,25.56,52,20.42c1.8-.61,4-.2,1.68,2.35C50.46,24.94,50.37,23.75,44.8,31.14Z"/></g></svg>