<svg id="logistics" xmlns="http://www.w3.org/2000/svg" viewBox="0 0 195.33 136.6"><defs><style>.color,.color-2,.color-3{fill:#f40;}.color-3{fill-opacity:0.5;}.color{fill-opacity:0.3;}</style></defs><title>logistics</title><path id="jeep" class="color-2" d="M133,71.39H95.39A6.39,6.39,0,0,0,89,77.77v6.55H83.73V95.14H89v13.4H86.1a3,3,0,0,0-2.91,3L83.12,134a2.54,2.54,0,0,0,1.27,2.32h11.8A2.67,2.67,0,0,0,97.46,134l0-9.64h6.27a4,4,0,0,0,4.1,3.59h12.63a4,4,0,0,0,4.1-3.6h6.22v9.68a3,3,0,0,0,1.35,2.51H143.8a3,3,0,0,0,1.4-2.52V111.57a3,3,0,0,0-3-3h-2.82V95.14h5.43l.05-10.83h-5.45V77.75A6.4,6.4,0,0,0,133,71.39ZM98.62,109.73A4.61,4.61,0,0,1,94,105.14v0a4.62,4.62,0,1,1,4.62,4.62Zm8.5,0v-9.17h14.12v9.23Zm27.17-4.56a4.62,4.62,0,1,1-4.62-4.61h0A4.63,4.63,0,0,1,134.29,105.13ZM132.64,92.3H95.73V78.1l36.92,0Z" transform="translate(0 0)"/><g id="mounts"><path class="color-3" d="M123.21,0,87.56,82.14c2,5.91,5.86,11.62,10.69,18.16l.15,0a4.84,4.84,0,0,1,4.83,4.84,4.62,4.62,0,0,1-.26,1.49,235.33,235.33,0,0,1,19.75,30h72.61Zm6.46,110a4.84,4.84,0,1,1,4.83-4.83A4.83,4.83,0,0,1,129.67,110Z" transform="translate(0 0)"/><path class="color-3" d="M66.86,105.31l-3.2-2.63C44.44,86.82,65.3,60.78,82.72,54.46L70.89,44.27,0,136.36H103.42C92.9,121.41,78.2,113.68,66.86,105.31Z" transform="translate(0 0)"/><path class="color" d="M103,106.61a4.82,4.82,0,1,1-4.72-6.31c-4.83-6.54-8.66-12.25-10.69-18.16l12-27.68H82.72c-.93.37-1.82.75-2.7,1.12-16.75,7.85-34.6,32.06-16.36,47.1l3.2,2.63c11.34,8.37,26,16.1,36.56,31.05l19.3.24A235.33,235.33,0,0,0,103,106.61Z" transform="translate(0 0)"/></g><g id="flight_tickets" data-name="flight tickets"><path class="color-2" d="M85.57,33.29,71.54,6.5l-13.28,7L49.93,4.73l-14,13.34a3.46,3.46,0,0,0-1.08,2.39,3.49,3.49,0,0,0-2.43.95L19.48,33.8,7.77,39.94l1.77,3.33L5.71,47,18.42,60.29l3.37,6.43L60.38,46.45a3.91,3.91,0,0,0,1.94-2.33l0-.11a3.93,3.93,0,0,0,3.13-.23ZM33.91,23a1.41,1.41,0,0,1,1.92.05l1.56-1.5a1.32,1.32,0,0,1-.37-1,1.29,1.29,0,0,1,.41-.91L49.84,7.78l6.41,6.72L51.47,17a4,4,0,0,0-1.94,2.33.53.53,0,0,0,0,.12,4,4,0,0,0-3.11.23l-20,10.45ZM8.75,47l1.83-1.73,4.23,8.07Zm53.31-5.88-.86-1.64-1.91,1,.86,1.63h0a1.81,1.81,0,0,1,.12,1.37,1.84,1.84,0,0,1-.88,1.06L22.73,63.8l-12-22.95L47.35,21.62a1.86,1.86,0,0,1,2.43.76h0l.48.92,1.91-1-.48-.92A1.8,1.8,0,0,1,52.45,19h0L70.63,9.42l12,23L64.49,41.9A1.85,1.85,0,0,1,62.06,41.15Z" transform="translate(0 0)"/><rect class="color-2" x="51.64" y="24.59" width="2.16" height="2.16" transform="translate(-5.89 27.4) rotate(-27.65)"/><rect class="color-2" x="53.65" y="28.41" width="2.16" height="2.16" transform="translate(-7.44 28.79) rotate(-27.67)"/><rect class="color-2" x="55.65" y="32.24" width="2.16" height="2.16" transform="translate(-8.98 30.14) rotate(-27.66)"/><rect class="color-2" x="57.66" y="36.07" width="2.16" height="2.16" transform="translate(-10.53 31.52) rotate(-27.67)"/><rect class="color-2" x="13.3" y="35.5" width="37.41" height="2.16" transform="translate(-13.33 19.05) rotate(-27.67)"/><rect class="color-2" x="17.26" y="45.78" width="15.11" height="2.16" transform="translate(-18.92 16.88) rotate(-27.67)"/><rect class="color-2" x="32.56" y="40.23" width="5.67" height="2.16" transform="translate(-15.14 21.16) rotate(-27.67)"/><rect class="color-2" x="20.47" y="50.95" width="23.04" height="2.16" transform="translate(-20.5 20.8) rotate(-27.66)"/><rect class="color-2" x="39.54" y="36.56" width="5.67" height="2.16" transform="translate(-12.63 23.97) rotate(-27.66)"/><rect class="color-2" x="45.92" y="33.22" width="5.68" height="2.16" transform="translate(-10.35 26.56) rotate(-27.66)"/><path class="color-2" d="M76.68,32.81l1.64-5.27L72.51,22l1.09-3.48a3.24,3.24,0,0,0-2.13-4.07l-.69-.22a3.24,3.24,0,0,0-4.06,2.14l-1,3.14L57,20.88l-1.64,5.27,8,1.22-.51,2.25-2.65.32-1.45,4.65,2.86.33-.45,1.9,5.3,1.66.73-1.82L69.76,38l1.45-4.65-2-1.78.81-2Zm-7.94,1.25-.26.85-2.39-1.27-.88,2.19-1.48-.46.54-2.3-2.68-.31.27-.85,2.76-.36,1.4-6-7.86-1.12.51-1.64,8.75-1.43L68.79,17a1.09,1.09,0,0,1,1.35-.69l.69.22a1.08,1.08,0,0,1,.71,1.35h0L70.05,22.6l5.8,5.58-.5,1.62L68.9,26.6l-2.23,5.59Z" transform="translate(0 0)"/><path class="color-2" d="M85.57,33.29,71.54,6.5l-13.28,7L49.93,4.73l-14,13.34a3.46,3.46,0,0,0-1.08,2.39,3.49,3.49,0,0,0-2.43.95L19.48,33.8,7.77,39.94l1.77,3.33L5.71,47,18.42,60.29l3.37,6.43L60.38,46.45a3.91,3.91,0,0,0,1.94-2.33l0-.11a3.93,3.93,0,0,0,3.13-.23ZM33.91,23a1.41,1.41,0,0,1,1.92.05l1.56-1.5a1.32,1.32,0,0,1-.37-1,1.29,1.29,0,0,1,.41-.91L49.84,7.78l6.41,6.72L51.47,17a4,4,0,0,0-1.94,2.33.53.53,0,0,0,0,.12,4,4,0,0,0-3.11.23l-20,10.45ZM8.75,47l1.83-1.73,4.23,8.07Zm53.31-5.88-.86-1.64-1.91,1,.86,1.63h0a1.81,1.81,0,0,1,.12,1.37,1.84,1.84,0,0,1-.88,1.06L22.73,63.8l-12-22.95L47.35,21.62a1.86,1.86,0,0,1,2.43.76h0l.48.92,1.91-1-.48-.92A1.8,1.8,0,0,1,52.45,19h0L70.63,9.42l12,23L64.49,41.9A1.85,1.85,0,0,1,62.06,41.15Z" transform="translate(0 0)"/><rect class="color-2" x="51.64" y="24.59" width="2.16" height="2.16" transform="translate(-5.89 27.4) rotate(-27.65)"/><rect class="color-2" x="53.65" y="28.41" width="2.16" height="2.16" transform="translate(-7.44 28.79) rotate(-27.67)"/><rect class="color-2" x="55.65" y="32.24" width="2.16" height="2.16" transform="translate(-8.98 30.14) rotate(-27.66)"/><rect class="color-2" x="57.66" y="36.07" width="2.16" height="2.16" transform="translate(-10.53 31.52) rotate(-27.67)"/><rect class="color-2" x="13.3" y="35.5" width="37.41" height="2.16" transform="translate(-13.33 19.05) rotate(-27.67)"/><rect class="color-2" x="17.26" y="45.78" width="15.11" height="2.16" transform="translate(-18.92 16.88) rotate(-27.67)"/><rect class="color-2" x="32.56" y="40.23" width="5.67" height="2.16" transform="translate(-15.14 21.16) rotate(-27.67)"/><rect class="color-2" x="20.47" y="50.95" width="23.04" height="2.16" transform="translate(-20.5 20.8) rotate(-27.66)"/><rect class="color-2" x="39.54" y="36.56" width="5.67" height="2.16" transform="translate(-12.63 23.97) rotate(-27.66)"/><rect class="color-2" x="45.92" y="33.22" width="5.68" height="2.16" transform="translate(-10.35 26.56) rotate(-27.66)"/><path class="color-2" d="M76.68,32.81l1.64-5.27L72.51,22l1.09-3.48a3.24,3.24,0,0,0-2.13-4.07l-.69-.22a3.24,3.24,0,0,0-4.06,2.14l-1,3.14L57,20.88l-1.64,5.27,8,1.22-.51,2.25-2.65.32-1.45,4.65,2.86.33-.45,1.9,5.3,1.66.73-1.82L69.76,38l1.45-4.65-2-1.78.81-2Zm-7.94,1.25-.26.85-2.39-1.27-.88,2.19-1.48-.46.54-2.3-2.68-.31.27-.85,2.76-.36,1.4-6-7.86-1.12.51-1.64,8.75-1.43L68.79,17a1.09,1.09,0,0,1,1.35-.69l.69.22a1.08,1.08,0,0,1,.71,1.35h0L70.05,22.6l5.8,5.58-.5,1.62L68.9,26.6l-2.23,5.59Z" transform="translate(0 0)"/></g></svg>