<svg id="rafting" xmlns="http://www.w3.org/2000/svg" viewBox="0 0 195.33 136.6"><defs><style>.color,.color-2,.color-3{fill:#f40;}.color-3{fill-opacity:0.5;}.color{fill-opacity:0.3;}</style></defs><title>rafting</title><path class="color-3" d="M123.21,0,87.56,82.14c4.93,14.38,20.54,27.52,35.16,54.46h72.61Z"/><path class="color-3" d="M63.66,102.68C44.44,86.82,65.3,60.78,82.72,54.46L70.89,44.27,0,136.36H103.42c-10.52-15-25.22-22.68-36.56-31.05Z"/><path class="color" d="M99.58,54.46H82.72c-.93.37-1.82.75-2.7,1.12-16.75,7.85-34.6,32.06-16.36,47.1l3.2,2.63c11.34,8.37,26,16.1,36.56,31.05l19.3.24C108.1,109.66,92.49,96.52,87.56,82.14Z"/><path id="rafting-2" data-name="rafting" class="color-2" d="M128.33,91.46c-3.51,1.51-5.11,2.91-6.92,7.52l-1.2,1.2s-.5-1.1-1.3-.9a4.91,4.91,0,0,0-2.11,1.91c-.2.4.3,1.1.3,1.1l-6.51,4.81a7.14,7.14,0,0,0-3.91,0,16.63,16.63,0,0,0-4.41,2.31v1.7s-3.41-5.91-4.71-8-3.61-2.91-6.72-3.31a13.78,13.78,0,0,0-6.11.81l10,13.33a18.07,18.07,0,0,1,.5-2.41c.4-1.5.7-2.91.7-2.91l.7.1s1.51,2.51,1.91,3.21.7,1,0,1.61l-2,1.7s-.4-.4-2.1-.3C93.15,113,80.32,95.27,80.32,95.27s.7-.8-.4-1.9-1.91-.7-1.91-.7L75.3,89.36a1.61,1.61,0,0,1,1.31-.7c1,0,5.81-.7,7.21-.9s2-1.21,1.61-2.71a98.64,98.64,0,0,0-4.31-10.32,10.93,10.93,0,0,0-2.41-2.81l3.51-4.11a20.81,20.81,0,0,0,7.62-3.71C92.85,61.49,93.45,60,93,59s-3.41-3.81-4.82-3.91c-.9-.1-3.6,2.51-4.91,4.91a27,27,0,0,0-2,6.72l-3.71,4s-1.3-1.41-2.41-.71a3.35,3.35,0,0,0-1.2,2.81c0,.6.7,1.1.7,1.1L53.75,96.68s-1.1-1.41-1.9-.4-2,1.8-.8,3.3c-.9,1.31-.1,1.51-.1,1.51l1.1.1.5-.7,1.51.9a24.88,24.88,0,0,1,7.71,2.3c4.21,2,12.13,5.52,12.13,5.52a45.77,45.77,0,0,1-.9-9.33c.1-4.81.5-10.22.5-10.22s.2.2.9,1.1c.9,1,2.31,2.71,2.31,2.71s-1.71,7-1.61,10.62,0,5.52,2.11,4.91a65.7,65.7,0,0,0,6.71-2.8l.51.4s-.91,6.11-1.11,6.92c.6.9,2.71,1.6,2.71,1.6l9.22,3.31s.7,1.1.1,1.1a129.55,129.55,0,0,1-20.65-8.72C65.08,105.9,53.05,99.68,42,103.19s-8.62,13.63-2.71,18.54c0,0,3.11-1.3,9.92-1.3s17.55,2.51,30.48,6,21,5.11,23.25,5.31a4.86,4.86,0,0,0,.4,1.5s-15.64-3.11-27.66-6.41-22-5.32-30.37-4.41c-8.62.9-10.73,3.2-11.63,4.11,2.8-1.51,7.92-3.91,18.84-2.51s24.06,5.11,41.8,9.12,21.25,2.51,23.75,2a4.08,4.08,0,0,0,2-1.11,18.47,18.47,0,0,1-6.32.7,13.84,13.84,0,0,0-7.91-6.91c-4.31-1.71-3.31-1.71-4.31-3.21s-4.82-6.51-4.82-6.51a30.11,30.11,0,0,0,2.91-1.61,17.84,17.84,0,0,0,2.51-1.7l.7,5.11s6.11,1,9.82.3c.1-3.91.3-8.12.3-8.12s4.51,1.61,6,1.91,2.3-.5,2.3-2.11-.1-7-.1-8.12a5.66,5.66,0,0,0-.7-2.1l1.6-.9a18.32,18.32,0,0,0,5.22-1.21,14.47,14.47,0,0,0,4.11-2.9A7.81,7.81,0,0,0,128.33,91.46Zm-67.76,9.13a40.12,40.12,0,0,1-4.41-.71,1.25,1.25,0,0,1-.7-1.1l.1-1.9s2.5-2.91,2.91-3.21.5.3.5.3,1.3,3.71,1.6,4.91S61.07,100.59,60.57,100.59ZM71.7,83.65a11.8,11.8,0,0,0-6,2.5L74.9,75.73a2.93,2.93,0,0,0,1.61-.3A3.14,3.14,0,0,1,78,75s1.4,4.81,2,6.71,1,2.41,0,2.41S73.7,83.45,71.7,83.65Zm6.61,20.54s-.2-4.21-.1-5.61.6-2.4,1.1-1.8c.71.8,3.31,4.51,3.31,4.51S79.21,104.09,78.31,104.19Zm41.1,0c-.2.71-.4,3.51-.5,4.71s0,1.41-1.11,1.21a53,53,0,0,1-5.71-2.71l5.51-4,1.61-.1C119.11,103.19,119.61,103.49,119.41,104.19ZM123.72,120c-3.51-1.1-7.22.7-13.23,1.2A31.08,31.08,0,0,1,99.36,120a43,43,0,0,1,2.41,3.61,6.45,6.45,0,0,0,2.1,2.4c4.51,1.61,7.42,4,8.82,6.52,9-.8,12.53-2.61,14.13-5.21S127.33,121.13,123.72,120Zm-61.45-34,3.51-3.61s.8-3.5-1.7-5.11a4.77,4.77,0,0,0-6.52,1.2c-1.1,1.61-1.4,4.51.3,6A4.89,4.89,0,0,0,62.27,86.05Zm25,7.82c-.1,2.41,1.31,4.81,4.31,4.71A4.35,4.35,0,0,0,96,94.27a4.45,4.45,0,0,0-4.41-4.51A3.9,3.9,0,0,0,87.23,93.87ZM106,106.3a3.92,3.92,0,0,0,4.11-3.71,4.16,4.16,0,1,0-8.32-.3A4.26,4.26,0,0,0,106,106.3Z"/></svg>