<svg xmlns="http://www.w3.org/2000/svg" viewBox="0 0 195.33 136.86"><defs><style>.color,.color-3,.cls-1{fill:#f40;}.color-3{fill-opacity:0.5;}.color{fill-opacity:0.3;}</style></defs><title>Artboard 1</title><g id="Layer_2" data-name="Layer 2"><path class="color-3" d="M123.21,0,87.56,82.14c4.93,14.38,20.54,27.52,35.16,54.46h72.61Z"/><path class="color-3" d="M63.66,102.68C44.44,86.82,65.3,60.78,82.72,54.46L70.89,44.27,0,136.36H103.42c-10.52-15-25.22-22.68-36.56-31.05Z"/><path class="color" d="M99.58,54.46H82.72c-.93.37-1.82.75-2.7,1.12-16.75,7.85-34.6,32.06-16.36,47.1l3.2,2.63c11.34,8.37,26,16.1,36.56,31.05l19.3.24C108.1,109.66,92.49,96.52,87.56,82.14Z"/></g><g id="Layer_1" data-name="Layer 1"><path class="cls-1" d="M108.84,136.86a6.21,6.21,0,0,1-2-.33,5.43,5.43,0,0,1-3.51-4.65l-1.49-21.06-7-5.42,4.85-9.7,11.4,8.59a.93.93,0,0,1,.33.21l.11.11a2,2,0,0,1,.8,1.63l1.8,25a5.07,5.07,0,0,1-1.33,3.87A5.32,5.32,0,0,1,108.84,136.86Z"/><path class="cls-1" d="M88.51,64.36A2.36,2.36,0,0,1,87,63.71a11.16,11.16,0,0,1-1.75-2.06A9.73,9.73,0,0,1,98.67,48.26a9.15,9.15,0,0,1,7.66-4.1,9.46,9.46,0,0,1,9.3,9.4A9.22,9.22,0,0,1,97.33,55a9.09,9.09,0,0,0-2.44,1,8.39,8.39,0,0,0-4,6.32,2.35,2.35,0,0,1-1.56,1.93A1.9,1.9,0,0,1,88.51,64.36Z"/><path class="cls-1" d="M125.53,135.27,122,83l-10.52,2.84a8.09,8.09,0,0,1-1.63.22,6.11,6.11,0,0,1-4.47-2l-2.08-2.24-9.09,20.64L79.84,133.17a5.47,5.47,0,0,1-5,3.09,6.21,6.21,0,0,1-2-.33,5.68,5.68,0,0,1-3-3,5.32,5.32,0,0,1,.1-4.09L84.33,98.15l2-7.66a7.43,7.43,0,0,1-4.66.25,7.21,7.21,0,0,1-4.34-3.46,7.34,7.34,0,0,1-.67-5.56l2.8-10.19A7.24,7.24,0,0,1,92.11,69l.17-.18a7.83,7.83,0,0,1,7.33-5.22A7.74,7.74,0,0,1,106,66.92l.33.32,5.48,6,12.8-3.43a6.63,6.63,0,0,1,1.53-.21A6,6,0,0,1,132,74.07a5.4,5.4,0,0,1-.67,4.51,6.35,6.35,0,0,1-3.68,2.8l-1.21.3,3.69,53.3C129.21,137.6,125.9,136.6,125.53,135.27Z"/><path class="cls-1" d="M55.09,55.68a8.34,8.34,0,1,1,8.34-8.34h0A8.33,8.33,0,0,1,55.09,55.68Z"/><path class="cls-1" d="M74.12,83.7a3.65,3.65,0,0,0-2.28-3.85L59.33,75.38,53.61,59.81a9.82,9.82,0,0,0-6.77-5.43,7.3,7.3,0,0,0-7.59,3.41c.41-1.6.66-2.58.66-2.6a7.09,7.09,0,0,0,.26-2,8.08,8.08,0,0,0-8-8.17h-.11a8.08,8.08,0,0,0-7.91,6.44l-7.69,30a6.35,6.35,0,0,0-.14,1.23v.63a8.1,8.1,0,0,0,8,8.09h.07a8.41,8.41,0,0,0,7-3.87l-4.95,20.58L14.16,127.35a4.42,4.42,0,0,0-.78,2.56,5.49,5.49,0,0,0,1.35,4.42,6.25,6.25,0,0,0,4.18,2.14h.6a5.64,5.64,0,0,0,5-3l13.2-20.74c.27-.56.63-1.33,1.13-2.44l8.65-36.86-.21-.69L46.12,70.1a.64.64,0,0,1,.28-.83h0a.61.61,0,0,1,.81.3h0l4.73,10.18.31.64A3.87,3.87,0,0,0,54,81.9l11.55,4.27-7,14-.73-.76L46.25,90l-2.64,11.9L52,109.36l.06,3.91L41.84,133.86V134c0,.17.19,1.74,1.24,2.18a2.09,2.09,0,0,0,2.13-.57l.13-.17c.45-.91,3.27-6.66,6.85-13.91l.14,9.55a5.41,5.41,0,0,0,5.15,4.78,5.19,5.19,0,0,0,4.08-1.5,5.87,5.87,0,0,0,1.87-4l-.1-22.14a6.94,6.94,0,0,0-1.49-4.76l-.5-.52c3.72-7.55,6.85-13.88,7.65-15.5l.19.07h.15a4.31,4.31,0,0,0,4.79-3.79Z"/><path class="color-3" d="M108.84,136.86a6.21,6.21,0,0,1-2-.33,5.43,5.43,0,0,1-3.51-4.65l-1.49-21.06-7-5.42,4.85-9.7,11.4,8.59a.93.93,0,0,1,.33.21l.11.11a2,2,0,0,1,.8,1.63l1.8,25a5.07,5.07,0,0,1-1.33,3.87A5.32,5.32,0,0,1,108.84,136.86Z"/><path class="color-3" d="M88.51,64.36A2.36,2.36,0,0,1,87,63.71a11.16,11.16,0,0,1-1.75-2.06A9.73,9.73,0,0,1,98.67,48.26a9.15,9.15,0,0,1,7.66-4.1,9.46,9.46,0,0,1,9.3,9.4A9.22,9.22,0,0,1,97.33,55a9.09,9.09,0,0,0-2.44,1,8.39,8.39,0,0,0-4,6.32,2.35,2.35,0,0,1-1.56,1.93A1.9,1.9,0,0,1,88.51,64.36Z"/><path class="color-3" d="M125.53,135.27,122,83l-10.52,2.84a8.09,8.09,0,0,1-1.63.22,6.11,6.11,0,0,1-4.47-2l-2.08-2.24-9.09,20.64L79.84,133.17a5.47,5.47,0,0,1-5,3.09,6.21,6.21,0,0,1-2-.33,5.68,5.68,0,0,1-3-3,5.32,5.32,0,0,1,.1-4.09L84.33,98.15l2-7.66a7.43,7.43,0,0,1-4.66.25,7.21,7.21,0,0,1-4.34-3.46,7.34,7.34,0,0,1-.67-5.56l2.8-10.19A7.24,7.24,0,0,1,92.11,69l.17-.18a7.83,7.83,0,0,1,7.33-5.22A7.74,7.74,0,0,1,106,66.92l.33.32,5.48,6,12.8-3.43a6.63,6.63,0,0,1,1.53-.21A6,6,0,0,1,132,74.07a5.4,5.4,0,0,1-.67,4.51,6.35,6.35,0,0,1-3.68,2.8l-1.21.3,3.69,53.3C129.21,137.6,125.9,136.6,125.53,135.27Z"/><path class="color-3" d="M55.09,55.68a8.34,8.34,0,1,1,8.34-8.34h0A8.33,8.33,0,0,1,55.09,55.68Z"/><path class="cls-1" d="M74.12,83.7a3.65,3.65,0,0,0-2.28-3.85L59.33,75.38,53.61,59.81a9.82,9.82,0,0,0-6.77-5.43,7.3,7.3,0,0,0-7.59,3.41c.41-1.6.66-2.58.66-2.6a7.09,7.09,0,0,0,.26-2,8.08,8.08,0,0,0-8-8.17h-.11a8.08,8.08,0,0,0-7.91,6.44l-7.69,30a6.35,6.35,0,0,0-.14,1.23v.63a8.1,8.1,0,0,0,8,8.09h.07a8.41,8.41,0,0,0,7-3.87l-4.95,20.58L14.16,127.35a4.42,4.42,0,0,0-.78,2.56,5.49,5.49,0,0,0,1.35,4.42,6.25,6.25,0,0,0,4.18,2.14h.6a5.64,5.64,0,0,0,5-3l13.2-20.74c.27-.56.63-1.33,1.13-2.44l8.65-36.86-.21-.69L46.12,70.1a.64.64,0,0,1,.28-.83h0a.61.61,0,0,1,.81.3h0l4.73,10.18.31.64A3.87,3.87,0,0,0,54,81.9l11.55,4.27-7,14-.73-.76L46.25,90l-2.64,11.9L52,109.36l.06,3.91L41.84,133.86V134c0,.17.19,1.74,1.24,2.18a2.09,2.09,0,0,0,2.13-.57l.13-.17c.45-.91,3.27-6.66,6.85-13.91l.14,9.55a5.41,5.41,0,0,0,5.15,4.78,5.19,5.19,0,0,0,4.08-1.5,5.87,5.87,0,0,0,1.87-4l-.1-22.14a6.94,6.94,0,0,0-1.49-4.76l-.5-.52c3.72-7.55,6.85-13.88,7.65-15.5l.19.07h.15a4.31,4.31,0,0,0,4.79-3.79Z"/></g></svg>