<svg id="Layer_1" data-name="Layer 1" xmlns="http://www.w3.org/2000/svg" viewBox="0 0 217.89 179.07"><defs><style>.cls-1,.cls-2,.cls-4{fill:#ff6300;}.cls-1{opacity:0.86;}.cls-2,.cls-3{opacity:0.89;}.cls-3{fill:#ffdfdf;}.cls-4{opacity:0.63;}.cls-5{fill:#ff4136;opacity:0.93;}.cls-6{fill:#e7040f;opacity:0.97;}.cls-7{fill:#565656;}.cls-8{fill:#575858;}</style></defs><title>yeti</title><path class="cls-1" d="M23.86,100.59c-4.53.4-5.56-1.51-3.68-5.47,1.34-2.83,2.57-5.71,3.92-8.72-2.44-1.37-4.44.89-7.18.42a57.8,57.8,0,0,1,8.66-16,43.79,43.79,0,0,0,5-8.54c9.37-20.15,24-34.55,45.71-40.84A11.76,11.76,0,0,0,82,17.68,44.45,44.45,0,0,1,95.27,7.26c1.8,3.12-2.38,5.28-.64,8.37,5.53-3.26,9.56-8.79,17-10.18a19.38,19.38,0,0,0-1.9,10.19c.21,2.29,1,3.28,3.49,2.52a25,25,0,0,1,12.64-.22c-.11,2.19-2.43,2.09-2.83,4.31C143.59,30.66,158.58,45.09,167,66a27.5,27.5,0,0,0,3,11.48q.54,7,1.06,14v1.93a75.68,75.68,0,0,1-10.89,34.86,73.43,73.43,0,0,1-84.47,32c-9.07-2.85-16.73-8-24.6-13l-1.88-1.84-3.13-3-2.93-2.94L42,138.42C34.62,128,28,117.13,26.18,104.07,26,102.55,25.61,101.1,23.86,100.59ZM123.1,122a41.3,41.3,0,0,0,16.59-20.58,16.07,16.07,0,0,0,.52-8.38c-.45-3-1.88-4.13-4.79-3.21-6.76,2.13-14.79,2.45-16.09,12.13-4.83-4.47-4.82-4.44-10.8-2.55-7.59,2.4-15.44,2.3-23.26,2.27a89.31,89.31,0,0,0-12.44.71c-3.68.5-4.82,2.61-4.6,5.83.36,5.27,2.93,9.45,6.77,12.95,6.44,5.88,6.74,5.86,11.78-.88.41-.55.8-1,1.66-.85L91,123.56c1.21,2.76,1.22,6.7,5.37,6.86C106.24,130.8,115.52,129,123.1,122Zm-36-28.49c4.65.52,9.44-.26,14.2-1,13.3-2.17,25.3-7,34.6-17.27,7.62-8.37,6.47-19.12-2.4-26.12-8.25-6.5-17.75-6.63-27.5-6.64-4.23,0-7.55,1.06-9.69,4.77-1.74,3-3.84,3.54-6.42,1.2-3.6-3.25-7.51-2.86-11.67-1.36A66,66,0,0,0,63.9,54c-7.11,4.77-12.39,11.19-11.61,20.19S59.73,87.8,67.76,90.61A47.48,47.48,0,0,0,87.09,93.47Z" transform="translate(-3.05 -5.45)"/><path class="cls-2" d="M145.64,153.42c-1.27,5.22.27,10.23,1.11,15.31.53,3.28,1.13,6.55-.69,9.73-3.75,6.55-9.92,7.94-16,3.42a52.4,52.4,0,0,1-4.47-4c-9.09-8.65-20.6-8.66-29.72.09-4.6,4.41-9.19,8.47-16.23,4.9-3.94-2-6.25-4.74-5.82-9.44.3-3.31.25-6.65.36-10,21.11,6.33,41.53,5.53,61.17-5.42C138.61,156.26,141.42,153.17,145.64,153.42Z" transform="translate(-3.05 -5.45)"/><path class="cls-3" d="M145.64,153.42c-4.22-.25-7,2.84-10.27,4.65-19.64,11-40.06,11.75-61.17,5.42C67,160.72,60.75,156.23,54,152.75c-.68-2-2.8-3.14-2.9-5.41,7.87,4.95,15.53,10.12,24.6,13a73.43,73.43,0,0,0,84.47-32A75.68,75.68,0,0,0,171,93.48c1.64.71,1.93,2,1.81,3.67A79.12,79.12,0,0,1,159,137c-1,1.43-2.8,2.58-1.65,4.76A26.08,26.08,0,0,0,145.64,153.42Z" transform="translate(-3.05 -5.45)"/><path class="cls-4" d="M49.17,145.5l1.88,1.84c.1,2.27,2.22,3.45,2.9,5.41-4.48,4.42-8.56,9.35-14.52,11.95-2.13.93-3,2.18-2.52,4.61.39,1.8.31,3.81-1.79,4.71A4.52,4.52,0,0,1,30,173c-1.4-1.47-2.2-1-4-.55-3.79,1.06-7.28-2.21-11.26-1.91-.42,0-1.29-1.55-1.39-2.45-.24-2.17-.26-3.55-3.4-2.76a3.43,3.43,0,0,1-4.22-4.51c1.77-4.3.19-8.12-.14-12.14-.2-2.53.6-4.91,1.23-7.3-1.33-1.27-2.31,1.06-3.81,0a95.16,95.16,0,0,1,15.34-33.08c1.81-2.57,3.65-5.12,5.47-7.68,26.67-15.32,55.67-13.45,34.42,30.68C58.37,133.27,47.19,145.46,49.17,145.5Z" transform="translate(-3.05 -5.45)"/><path class="cls-4" d="M119.87,91.35C117.88,87.78,167.26,70,167,66c5.75-3.26,11.48-6.56,17.27-9.76,2.29-1.26,3.54-2.73,2.7-5.57-.57-1.92-.83-4.21,1.49-5.25a4.74,4.74,0,0,1,5.53,1.07c.86.88,1.59,1.73,2.87.74.09.64.16,1.28.28,1.91.25,1.28.5,2.69,2.25,2.51a2,2,0,0,0,1.24-1.29c.41-1.55-.45-2.41-1.91-2.75-.63-.14-1.27-.23-1.9-.35.85-1.23,2.7-2.06,3.34-1.24,2.35,3,5.37.72,7.92,1.5-.61.57-1.25,1.1-1.82,1.7a2.34,2.34,0,0,0-.46,3.14A1.64,1.64,0,0,0,207,53c1.43-.11,1.79-1.26,2-2.43.13-.65.21-1.31.32-2,1.69,1.67.86,5.8,5.75,4.47,2.73-.75,4,2.9,3.06,5.46-1.09,3.09-.46,5.73.44,8.63a14.42,14.42,0,0,1-.73,9.75c-.56,1.43-2.6,3.71,1.62,3.89,3,.13.54,2.41.19,3.21a97.68,97.68,0,0,1-24.59,34.14c-11.14,10.11-23.15,19-37.76,23.57C105.53,146.52,101.2,121.68,119.87,91.35ZM215,70.88c-.06-8.13-6.66-14.27-15.38-14.32-7.78,0-14.71,7-14.56,14.72.17,8.08,7.16,15.16,15,15.15C208.16,86.42,215.08,79.23,215,70.88ZM193.61,50.79A3.07,3.07,0,0,0,190.7,48c-1.65-.08-2.41,1-2.22,2.59A2.66,2.66,0,0,0,191,53.17,2.24,2.24,0,0,0,193.61,50.79Zm20.33,4.05a2.3,2.3,0,0,0-2.23,2.59c.09,1.41,1.16,1.89,2.42,1.79a2.19,2.19,0,0,0-.19-4.38Z" transform="translate(-3.05 -5.45)"/><path class="cls-3" d="M87.09,93.47a47.48,47.48,0,0,1-19.33-2.86c-8-2.81-14.7-7.3-15.47-16.38S56.79,58.81,63.9,54a66,66,0,0,1,14.31-7c4.16-1.5,8.07-1.89,11.67,1.36,2.58,2.34,4.68,1.8,6.42-1.2,2.14-3.71,5.46-4.77,9.69-4.77,9.75,0,19.25.14,27.5,6.64,8.87,7,10,17.75,2.4,26.12-9.3,10.23-21.3,15.1-34.6,17.27C96.53,93.21,91.74,94,87.09,93.47ZM121,73.16c2.45-.4,3.66-1.85,3.45-4.15a3.28,3.28,0,0,0-3.66-3.25c-2.25.13-3.78,1.39-3.66,3.81S118.84,73,121,73.16Zm-44.46,8c2.25-.44,3.68-1.77,3.47-4.08a3.36,3.36,0,0,0-3.62-3.34c-2.26.07-3.82,1.27-3.73,3.72S74.23,81,76.51,81.17Z" transform="translate(-3.05 -5.45)"/><path class="cls-5" d="M91,123.56l-2.54-4.16c-.86-.19-1.25.3-1.66.85-5,6.74-5.34,6.76-11.78.88-3.84-3.5-6.41-7.68-6.77-12.95-.22-3.22.92-5.33,4.6-5.83a89.31,89.31,0,0,1,12.44-.71c7.82,0,15.67.13,23.26-2.27,6-1.89,6-1.92,10.8,2.55,1.3-9.68,9.33-10,16.09-12.13,2.91-.92,4.34.22,4.79,3.21a16.07,16.07,0,0,1-.52,8.38A41.3,41.3,0,0,1,123.1,122c-1.41-2.35-3.86-3.12-6.24-3.64A31.34,31.34,0,0,0,91,123.56Z" transform="translate(-3.05 -5.45)"/><path class="cls-6" d="M91,123.56a31.34,31.34,0,0,1,25.88-5.24c2.38.52,4.83,1.29,6.24,3.64-7.58,7-16.86,8.84-26.75,8.46C92.2,130.26,92.19,126.32,91,123.56Z" transform="translate(-3.05 -5.45)"/><path class="cls-2" d="M215,70.88c.06,8.35-6.86,15.54-15,15.55-7.81,0-14.8-7.07-15-15.15-.15-7.75,6.78-14.76,14.56-14.72C208.36,56.61,215,62.75,215,70.88Z" transform="translate(-3.05 -5.45)"/><path class="cls-7" d="M121,73.16c-2.13-.2-3.75-1.19-3.87-3.59s1.41-3.68,3.66-3.81A3.28,3.28,0,0,1,124.42,69C124.63,71.31,123.42,72.76,121,73.16Z" transform="translate(-3.05 -5.45)"/><path class="cls-8" d="M76.51,81.17c-2.28-.21-3.79-1.34-3.88-3.7s1.47-3.65,3.73-3.72A3.36,3.36,0,0,1,80,77.09C80.19,79.4,78.76,80.73,76.51,81.17Z" transform="translate(-3.05 -5.45)"/></svg>