<svg id="icons" xmlns="http://www.w3.org/2000/svg" viewBox="0 0 31.62 28.28"><path d="M25.64,30.14a1.21,1.21,0,0,1-.7-.22l-8-5.39L12.73,27.6a1.26,1.26,0,0,1-1.16.16,1.25,1.25,0,0,1-.78-.86L8.65,18.79,1,15.87a1.26,1.26,0,0,1,0-2.34L30.07,2a1.17,1.17,0,0,1,.41-.1h.15a1.25,1.25,0,0,1,.8.36.23.23,0,0,1,.07.07,1.21,1.21,0,0,1,.3.73.67.67,0,0,1,0,.2.59.59,0,0,1,0,.14L26.87,29.12a1.24,1.24,0,0,1-.75.92A1.12,1.12,0,0,1,25.64,30.14ZM17.69,22l7.08,4.8,3.82-20L14.79,20,17.66,22Zm-5.9-1.07,1,3.6,2-1.47-2.68-1.82A1.34,1.34,0,0,1,11.79,20.91Zm-6.9-6.24,5.25,2a1.22,1.22,0,0,1,.76.85l.67,2.52a1.23,1.23,0,0,1,.38-.77L25.09,6.63Z"/></svg>