<svg id="icons" xmlns="http://www.w3.org/2000/svg" viewBox="0 0 30.11 32"><path d="M17.23,0C25,0,30.72,5.05,30.72,12.84c0,7.3-4.26,11.2-8.7,11.19-2.25,0-3.44-.89-3.9-2.62A6.39,6.39,0,0,1,12.79,24C10,24,8,21.82,8,18.13,8,12.67,11.72,7.75,18,7.75A11.9,11.9,0,0,1,23.13,8.9L21.9,17c-.29,1.72.17,2.09,1.07,2.14,1.11,0,3.32-1.19,3.32-6.11,0-5.09-3.49-8.17-9.68-8.17S5.08,9.11,5.08,17c0,7,4.64,10,10,10a14.92,14.92,0,0,0,6.23-1.19c.41,1.53.82,3.06,1.24,4.59A17.18,17.18,0,0,1,14.43,32C7.09,32,.61,26.55.61,17.4.61,7.91,7.17,0,17.23,0Zm.85,14.89c.14-.75.27-1.51.41-2.26a4.38,4.38,0,0,0-1.68-.24,4.57,4.57,0,0,0-4.35,4.72c0,1.22.58,2,1.76,2C15.83,19.11,17.59,17.76,18.08,14.89Z"/></svg>