<svg id="icons" xmlns="http://www.w3.org/2000/svg" viewBox="0 0 32 32"><path d="M16,2.6c.37.28.69.31,1.65.36a11.06,11.06,0,0,1,6.59,2.22,11.4,11.4,0,0,1,4.53,7.38A17.23,17.23,0,0,1,29,15.08a2.71,2.71,0,0,0,.22,1.26,1.42,1.42,0,0,0,1.15.73h.14a1.43,1.43,0,0,0,1.12-.51c.35-.43.35-.83.32-1.68a16.9,16.9,0,0,0-1.72-7.07,13.13,13.13,0,0,0-2.71-3.64,13.73,13.73,0,0,0-4-2.79A13,13,0,0,0,19,.13C18.66.09,18,0,17.54,0c-.87,0-1.21,0-1.61.36a1.4,1.4,0,0,0-.46,1.13A1.39,1.39,0,0,0,16,2.6Z" /><path d="M24.78,14c0,.75.06,1.45.8,1.82a1.66,1.66,0,0,0,.72.15,1.49,1.49,0,0,0,.62-.12,1.72,1.72,0,0,0,.72-.77,7.92,7.92,0,0,0,0-2.12A10.27,10.27,0,0,0,26,8.34,10.38,10.38,0,0,0,18.52,4c-1.11-.16-1.93-.22-2.41.52a1.43,1.43,0,0,0,.11,1.78,1.82,1.82,0,0,0,1.33.53,9.43,9.43,0,0,1,3.7,1.09h0a7.11,7.11,0,0,1,2.66,2.7A7.27,7.27,0,0,1,24.78,14Z" /><path d="M21.94,9.46a5.46,5.46,0,0,0-2.69-1.32A7.46,7.46,0,0,0,18.3,8a1.61,1.61,0,0,0-1,.13,1.46,1.46,0,0,0-.45,2.23,1.88,1.88,0,0,0,1.37.56,2.39,2.39,0,0,1,2.16,1.29,4.27,4.27,0,0,1,.35,1.43,1.54,1.54,0,0,0,.59,1.26,1.52,1.52,0,0,0,.91.29,1.46,1.46,0,0,0,1-.35h0c.53-.48.55-1.07.41-2A5.4,5.4,0,0,0,21.94,9.46Z" /><path d="M32,25.81a2.55,2.55,0,0,0-.6-1.54,36.39,36.39,0,0,0-3.68-2.94,30.48,30.48,0,0,0-2.65-1.61,3.3,3.3,0,0,0-2.6-.22,3.49,3.49,0,0,0-.45.18A4.71,4.71,0,0,0,20.64,21l-.8,1a1.58,1.58,0,0,1-.29.14c-.49.23-1.3,0-2.62-.6a13.65,13.65,0,0,1-3.25-2.24,14.62,14.62,0,0,1-2.47-2.84A7.62,7.62,0,0,1,10,13.23a1.77,1.77,0,0,1,.23-.8l0-.06.12-.12c.19-.16.46-.39.74-.61,1.23-1,1.62-1.36,1.83-2.09A3.55,3.55,0,0,0,12.42,7a24.56,24.56,0,0,0-4.75-5.9A3.69,3.69,0,0,0,7,.7,3.26,3.26,0,0,0,5.39.56,7.63,7.63,0,0,0,2.77,2.07,11.46,11.46,0,0,0,.49,4.26C-.27,5.54-.08,6.64.61,8.5a35.69,35.69,0,0,0,2.5,5.29l.05.09c.2.34.41.69.63,1l0,.09.66,1,.36.52.41.59c.27.38.55.75.84,1.13A40.2,40.2,0,0,0,17,28.14l.18.11c.61.37,1.26.75,1.94,1.11l.26.15c.7.37,1.36.7,2,1l.2.1c.79.36,1.51.67,2.2.95a4.28,4.28,0,0,0,1.82.44h.33a3.85,3.85,0,0,0,1-.17,5.24,5.24,0,0,0,1.43-.73l.28-.19.36-.3a13.63,13.63,0,0,0,1.82-2,7,7,0,0,0,.87-1.45A3.29,3.29,0,0,0,32,25.82Z" /></svg>