<svg id="icons" xmlns="http://www.w3.org/2000/svg" viewBox="0 0 32 32"><path  d="M31.83,23.36a2,2,0,0,0-.11-.21,16.21,16.21,0,0,0-3.18-3.68l0,0,0,0,0,0h0c-.71-.67-1.16-1.13-1.35-1.36a1.28,1.28,0,0,1-.24-1.35,13.53,13.53,0,0,1,1.5-2.19c.46-.58.82-1.06,1.09-1.41Q32.34,9.25,32,8.19L31.86,8a1,1,0,0,0-.52-.27,2.62,2.62,0,0,0-1.07,0l-4.8,0a.62.62,0,0,0-.33,0l-.22,0-.08,0-.07,0a.75.75,0,0,0-.18.18,1.15,1.15,0,0,0-.16.29,28.26,28.26,0,0,1-1.79,3.75c-.41.68-.79,1.28-1.13,1.79A8.81,8.81,0,0,1,20.64,15a6.22,6.22,0,0,1-.63.58c-.19.14-.33.2-.43.18l-.29-.07a1.1,1.1,0,0,1-.37-.4,1.72,1.72,0,0,1-.19-.65,4.7,4.7,0,0,1-.06-.68c0-.19,0-.45,0-.8s0-.58,0-.7c0-.42,0-.88,0-1.37s0-.89,0-1.18,0-.59,0-.91a3.68,3.68,0,0,0-.06-.76,2.55,2.55,0,0,0-.18-.53.79.79,0,0,0-.34-.4,1.82,1.82,0,0,0-.56-.23,11.07,11.07,0,0,0-2.25-.22,11,11,0,0,0-4,.4,2.48,2.48,0,0,0-.63.5c-.2.25-.23.38-.08.4a2,2,0,0,1,1.41.72l.1.2a3.05,3.05,0,0,1,.24.77,10,10,0,0,1,.15,1.21,14.33,14.33,0,0,1,0,2.08c-.06.58-.11,1-.16,1.35a2.66,2.66,0,0,1-.23.79,2,2,0,0,1-.2.36.24.24,0,0,1-.08.09,1.38,1.38,0,0,1-.45.08,1.11,1.11,0,0,1-.57-.23,4.39,4.39,0,0,1-.69-.64,9.08,9.08,0,0,1-.81-1.15,17.71,17.71,0,0,1-.93-1.73l-.27-.48-.68-1.36C7.24,9.64,7,9.06,6.76,8.51A1.06,1.06,0,0,0,6.36,8l-.08,0A1.07,1.07,0,0,0,6,7.78a2.11,2.11,0,0,0-.38-.11l-4.56,0A1.15,1.15,0,0,0,.12,8l-.07.1a.62.62,0,0,0,0,.27,1.27,1.27,0,0,0,.1.45q1,2.36,2.17,4.53c.79,1.46,1.47,2.63,2.05,3.52s1.16,1.72,1.76,2.51,1,1.3,1.19,1.52l.46.5.42.4a11.41,11.41,0,0,0,1.17,1c.52.37,1.09.73,1.72,1.1a9.53,9.53,0,0,0,2.19.88,7.32,7.32,0,0,0,2.43.27h1.92a1.3,1.3,0,0,0,.88-.36l.07-.09a1.31,1.31,0,0,0,.12-.3,1.7,1.7,0,0,0,.06-.46,5.69,5.69,0,0,1,.11-1.29,3.4,3.4,0,0,1,.28-.87,2.39,2.39,0,0,1,.36-.49,1.34,1.34,0,0,1,.28-.24l.14-.06a1.06,1.06,0,0,1,.94.26,5.35,5.35,0,0,1,1,1c.32.39.7.82,1.15,1.29a7.52,7.52,0,0,0,1.16,1.07l.33.2a4.54,4.54,0,0,0,.87.37,1.82,1.82,0,0,0,.93.08L30.54,25a2,2,0,0,0,1-.2.86.86,0,0,0,.42-.46,1.35,1.35,0,0,0,0-.57A2,2,0,0,0,31.83,23.36Z"/></svg>