<svg id="icons" xmlns="http://www.w3.org/2000/svg" viewBox="0 0 31.86 32"><path d="M27.31,4.65a15.86,15.86,0,0,0-25,19.13L.09,32,8.5,29.8a15.86,15.86,0,0,0,7.58,1.92h0A15.86,15.86,0,0,0,27.31,4.65ZM24.13,21.72a4.17,4.17,0,0,1-2.77,2c-.76.07-1.46.34-4.93-1-4.17-1.65-6.81-5.93-7-6.2A8,8,0,0,1,7.74,12.2,4.57,4.57,0,0,1,9.18,8.78a1.49,1.49,0,0,1,1.09-.51h.79c.29,0,.61,0,.92.71s1.16,2.85,1.27,3a.76.76,0,0,1,0,.72,2.86,2.86,0,0,1-.41.69c-.2.23-.43.53-.61.71s-.42.43-.18.84a11.92,11.92,0,0,0,2.28,2.84,11.11,11.11,0,0,0,3.3,2c.41.21.65.17.89-.1s1-1.2,1.3-1.61.55-.34.92-.21,2.4,1.13,2.81,1.34.68.31.79.48A3.47,3.47,0,0,1,24.13,21.72Z"/></svg>