<svg id="Capa_1" data-name="Capa 1" xmlns="http://www.w3.org/2000/svg" viewBox="0 0 681.42 577.57"><defs><style>.cls-2{fill:#ea7c69}.cls-5{fill:#e44723}.cls-8{opacity:.5;fill:#f2aca0}.cls-9{fill:#5c5b5f}</style><clipPath id="clip-path"><circle cx="342.85" cy="288.78" r="288.79" transform="rotate(-45 342.858 288.784)" fill="none"/></clipPath><clipPath id="clip-path-2"><circle class="cls-2" cx="342.85" cy="288.78" r="288.79" transform="rotate(-45 342.858 288.784)"/></clipPath></defs><circle cx="342.85" cy="288.78" r="288.79" transform="rotate(-45 342.858 288.784)" fill-opacity=".3" fill="#e44723"/><g clip-path="url(#clip-path)" opacity=".5"><path class="cls-5" d="M344.24 0h-1.39C183.36 0 54.07 129.29 54.07 288.78s129.29 288.79 288.78 288.79h1.39z"/><path class="cls-5" d="M344.24 0h-1.39C183.36 0 54.07 129.29 54.07 288.78s129.29 288.79 288.78 288.79h1.39z"/><path class="cls-5" d="M205 33.41s9.67 11.11 5.78 19.73-7.88 19.35-12.21 21.2S187.46 94 187.21 97.11s-14.62 18.61-14.62 18.61-4.54 7.28-2.09 10.86 27.76 10.56 27.76 10.56 18.59-7.75 33.37 6.19 41.51 10.89 53.5 22.13 27.72 31.06 27.72 31.06-3.35 41.64-10.12 42.08-3.43 27.34-16.89 31.54-37.29 38-33.27 40.44-6.34 63.81-21 76-26.83 61.65-26.83 61.65l-12.21 21.2-16.29-17s1.15-26.49-2.11-28.37-3.81-23.92-14.33-30-29.19-75.46-35.72-79.22-7.83-56.17-18.12-55.28-9.35-37.66-2.47-50 22-61.19 30-67.46 16.34-22 12.51-23.1-15.49-27.2-11.17-31.64S174 48.07 205 33.41z"/><path class="cls-5" d="M205 33.41s9.67 11.11 5.78 19.73-7.88 19.35-12.21 21.2S187.46 94 187.21 97.11s-14.62 18.61-14.62 18.61-4.54 7.28-2.09 10.86 27.76 10.56 27.76 10.56 18.59-7.75 33.37 6.19 41.51 10.89 53.5 22.13 27.72 31.06 27.72 31.06-3.35 41.64-10.12 42.08-3.43 27.34-16.89 31.54-37.29 38-33.27 40.44-6.34 63.81-21 76-26.83 61.65-26.83 61.65l-12.21 21.2-16.29-17s1.15-26.49-2.11-28.37-3.81-23.92-14.33-30-29.19-75.46-35.72-79.22-7.83-56.17-18.12-55.28-9.35-37.66-2.47-50 22-61.19 30-67.46 16.34-22 12.51-23.1-15.49-27.2-11.17-31.64S174 48.07 205 33.41zM510.86 51.38s-8 8.77-9.08 15.76-18 15.68-25.14 14.84-22.82 36.6-13.46 53 27.19 54 34.27 42 27.89 24.11 50 6.53 36.45 10.24 35.74 15.26-1 32.9 7.13 36.63-10.75 109.85-18.6 110.87 4.37 55.86 12.48 63.79 28.26-12 28.26-12 101.3-213.85-101.6-346.68z"/><path class="cls-5" d="M510.86 51.38s-8 8.77-9.08 15.76-18 15.68-25.14 14.84-22.82 36.6-13.46 53 27.19 54 34.27 42 27.89 24.11 50 6.53 36.45 10.24 35.74 15.26-1 32.9 7.13 36.63-10.75 109.85-18.6 110.87 4.37 55.86 12.48 63.79 28.26-12 28.26-12 101.3-213.85-101.6-346.68zM422.8 323.05S-152.21 686 45 399.92"/><path class="cls-5" d="M434.81 342.08c-5.35 3.09-10.55 6-15.83 9l-15.8 8.84q-15.81 8.77-31.71 17.39-31.79 17.22-63.92 33.75c-42.89 22-86.25 43.13-130.67 62.2-22.22 9.5-44.71 18.49-67.75 26.24-11.53 3.86-23.21 7.4-35.13 10.29-6 1.44-12 2.71-18.11 3.69a131.17 131.17 0 0 1-18.72 1.81 73.21 73.21 0 0 1-9.66-.39 46 46 0 0 1-9.85-2 28.85 28.85 0 0 1-9.42-5.11 22 22 0 0 1-6.45-9A27.86 27.86 0 0 1 0 488.52a47.92 47.92 0 0 1 1.05-9.68 92.21 92.21 0 0 1 5.86-17.64 230.55 230.55 0 0 1 17.48-31.78c6.52-10.11 13.45-19.9 20.62-29.5-6.4 10.13-12.53 20.42-18.2 30.92a227.22 227.22 0 0 0-14.65 32.39A85.61 85.61 0 0 0 8 480a39.81 39.81 0 0 0-.26 8.2 20 20 0 0 0 1.81 7.24c2 4.24 6 6.75 10.92 8a35.24 35.24 0 0 0 7.82 1 64.3 64.3 0 0 0 8.28-.32 120.11 120.11 0 0 0 16.85-3c5.62-1.36 11.21-3 16.77-4.81 11.12-3.64 22.1-7.93 33-12.54 21.73-9.25 43-19.76 64.08-30.77 42.08-22.11 83.17-46.28 123.74-71.28q30.42-18.76 60.42-38.22 15-9.7 29.89-19.58l14.84-9.9c4.91-3.3 9.9-6.66 14.67-9.94z"/><g id="layer1"><g id="rect3052"><path class="cls-5" d="M661.38 125.12c-5.5-7.8-29.81 4.91-40.9 11.29-3.28 2.07-6.3 3.88-9.17 6.06l-30.63 23.24c-1.8 1.25-2.54 1.25-4.26.72L536 154c-2.47-1.07-4.19-3.6-.22-6.32l2.74-2.07a3.89 3.89 0 0 0 .46-5.31l-2.85-4a3.58 3.58 0 0 0-5-1.17L515 147.25c-.48.38-.6.31-1.2.13l-38.74-11.51c-3.53-1.52-2.66-3.71.05-6l5-3.79a3.87 3.87 0 0 0 .46-5.3l-2.85-4a3.58 3.58 0 0 0-5-1.17l-16.63 12.59c-.21.15-.3.07-.49 0l-40.92-12.83c-3.25-.33-4.9-.74-8.17 1.86l-9.4 7c-1.43.73-.95 2.52.15 3.21 0 0 59.8 29.55 80 43s42.54 34.76 42.54 34.76c1.75 1.63 3 3.31 1.8 5.36l-67.4 51.13-2.8 2.13c-8.34 6.4-10.76 14-16.45 12.48l-47.41-11.8c-3-.6-5.24-.59-8.14 1.27l-2.86 2.23c-1.29 1.13-1.55 2.26-.35 3.62l36.31 33.53a2.8 2.8 0 0 1 1.17 3.12l-4.67 9.8 11.25-.87a3.51 3.51 0 0 1 3 2.26l18.65 42.38c.95 1.7 1.88 3 3.81 1.81l4.43-3.36c2.46-3.14 2.41-6.3 2.71-9.88l.34-48.22c.43-4.81 7.74-5.91 16.88-11.32l2.79-2.12 66.57-50.51.35-.14.35-.1a32.33 32.33 0 0 1 3.66 1.35c.09.13.44.72.52.88 0 0 11.85 25.79 18.54 50S580 385 580 385c.63 1.32 1.47 2.19 2.54 1.61l8.67-6.58c2.37-1.69 3.28-4.9 3.36-6.8l1.09-43.77c.31-1.71.34-2.07.91-2.54l16.47-12.5a3.91 3.91 0 0 0 .44-5.33l-2.85-4a3.56 3.56 0 0 0-5-1.15l-5 3.79c-2.76 2.58-4.52 2.47-4.67-.79l.47-42.47c0-.95-.07-1.11.36-1.42l16-12.15a3.91 3.91 0 0 0 .45-5.33l-2.85-4a3.56 3.56 0 0 0-5-1.15l-2.74 2.07c-3.49 3.35-6.35 1-5.92-2.43l.93-43.56a4.37 4.37 0 0 1 1.87-3.82l30.71-23.3a111.08 111.08 0 0 0 8.74-7.67c9.61-9.79 29.32-32.35 22.38-36.54z"/><path class="cls-5" d="M662.81 127.88l-1.77-2.4c-1.75-2.37-4.87-2.48-7.67-2.21a40 40 0 0 0-8.43 2 120.32 120.32 0 0 0-16 7.06c-2.6 1.34-5.17 2.75-7.7 4.2s-5 3.07-7.4 4.71-4.69 3.5-7 5.25l-7 5.33-14 10.64-3.51 2.66c-.6.44-1.13.9-1.81 1.31a4.25 4.25 0 0 1-2.3.77 8.29 8.29 0 0 1-2.28-.49l-2.1-.65-4.21-1.3-33.78-10.36a5.3 5.3 0 0 1-2.39-1.9 3 3 0 0 1-.45-1.58 3.27 3.27 0 0 1 .46-1.55 7.33 7.33 0 0 1 2.13-2.1l2.24-1.7a4.72 4.72 0 0 0 1-.85 3 3 0 0 0 .5-1.11 3.78 3.78 0 0 0-.29-2.45 7.3 7.3 0 0 0-.72-1.13l-.81-1.15-1.63-2.3a3.85 3.85 0 0 0-2-1.51 2.72 2.72 0 0 0-2.33.28l-4.56 3.36-9 6.82-2.25 1.7-.57.43a1.71 1.71 0 0 1-.41.24 1.16 1.16 0 0 1-.58 0c-.55-.14-.92-.27-1.4-.4l-5.4-1.61-10.82-3.22-21.57-6.4h-.05a6.5 6.5 0 0 1-1.5-.87 2.81 2.81 0 0 1-1-1.58 2.74 2.74 0 0 1 .36-1.84 5.81 5.81 0 0 1 1-1.39 17.38 17.38 0 0 1 2.55-2.12l2.6-2a15.58 15.58 0 0 0 1.23-1 3 3 0 0 0 .71-1.23 3.83 3.83 0 0 0-.37-2.84c-.52-.84-1.22-1.76-1.83-2.64l-.94-1.33a5.77 5.77 0 0 0-1-1.18 3.3 3.3 0 0 0-2.67-.86 2.74 2.74 0 0 0-1.28.6l-1.3 1-5.2 3.94-5.2 3.94-2.6 2-1.3 1-.65.49-.16.13a1.5 1.5 0 0 1-.24.15.73.73 0 0 1-.44.06h-.2l-40.92-12.84h.08c-1.7-.17-3.38-.47-4.9 0a15.92 15.92 0 0 0-4.2 2.63l-8.2 6.08a1.15 1.15 0 0 0-.66 1.22 1.88 1.88 0 0 0 .85 1.32q17 8.47 33.89 17.24c11.22 5.87 22.43 11.78 33.42 18.1 5.5 3.15 11 6.41 16.14 10.08S491.11 180.05 496 184s9.75 8.1 14.49 12.3q3.57 3.15 7.05 6.38c1.16 1.1 2.34 2.11 3.45 3.32a5.25 5.25 0 0 1 1.25 2.18 3.36 3.36 0 0 1-.43 2.52v.06l-66.48 50.42c-1.38 1.05-2.79 2.09-4.14 3.16a39.43 39.43 0 0 0-3.84 3.47c-1.22 1.22-2.36 2.53-3.52 3.83a28.53 28.53 0 0 1-3.75 3.7 5.8 5.8 0 0 1-5.14 1.17l-5.06-1.26-10.12-2.52-20.23-5.05-10.12-2.52a18.56 18.56 0 0 0-5.07-.81 9 9 0 0 0-4.74 1.57l-1.54 1.2c-.5.41-1 .8-1.51 1.21a2.42 2.42 0 0 0-.83 1.5 2.35 2.35 0 0 0 .7 1.56l19.46 18 9.72 9 4.87 4.5 2.44 2.24a3.54 3.54 0 0 1 1 1.43 3.09 3.09 0 0 1 0 1.78l-4.66 9.78-.25-.36 11.25-.87a3.69 3.69 0 0 1 2 .74 3.56 3.56 0 0 1 1.26 1.69l18.64 42.39a5.71 5.71 0 0 0 1.42 1.86 1.82 1.82 0 0 0 2.07-.14l4.43-3.36a10.87 10.87 0 0 0 2.11-4.6 43.78 43.78 0 0 0 .56-5.16l.35-48.21a5.22 5.22 0 0 1 1-2.51 9.08 9.08 0 0 1 2-1.77 35.75 35.75 0 0 1 4.65-2.47 102 102 0 0 0 9.33-4.73l69.37-52.61H539.65v.05h-.23l.13-.1.1.13h-.24l.14-.12.11.14h-.24l.15-.11.1.15-.22-.06a3.77 3.77 0 0 1 .59-.22h.17a.83.83 0 0 1 .22 0l.3.1 1.15.4 1.14.42.57.23.29.13c.18.09.19.21.25.29a16.53 16.53 0 0 1 1.09 2.19l1 2.22q1.93 4.46 3.78 9c2.44 6 4.78 12 6.95 18.13s4.18 12.26 5.92 18.49 3 12.59 4.35 18.93c2.53 12.7 4.73 25.45 6.85 38.22s4.1 25.56 6 38.36a4.49 4.49 0 0 0 .93 1.37 1.36 1.36 0 0 0 .69.34 1.16 1.16 0 0 0 .75-.15l6.22-4.73c1-.79 2.11-1.55 3.08-2.38a8.32 8.32 0 0 0 2.06-3.21 10.19 10.19 0 0 0 .65-3.79l.1-3.91.19-7.81.79-31.23c.09-.47.17-.95.27-1.42a2.77 2.77 0 0 1 .26-.71 1.92 1.92 0 0 1 .52-.54L599 325l4.61-3.5 9.22-7a3.25 3.25 0 0 0 1.43-2.33 4.35 4.35 0 0 0-.56-2.73c-1.08-1.57-2.2-3.17-3.33-4.71a3.87 3.87 0 0 0-2.41-1.35 3.22 3.22 0 0 0-2.6.86l-4.61 3.5a8.34 8.34 0 0 1-2.34 1.65 1.71 1.71 0 0 1-1.45 0 1.88 1.88 0 0 1-.81-1.19 10.14 10.14 0 0 1-.18-2.85v-2.85l.13-11.4.26-22.78v-4.28a2.31 2.31 0 0 1 .05-.73c.1-.26.34-.38.52-.52l4.54-3.45 9.08-6.88 2.26-1.72a3.31 3.31 0 0 0 1.19-2.45 4.35 4.35 0 0 0-.74-2.66l-1.64-2.33c-.56-.76-1.06-1.58-1.68-2.29a3.85 3.85 0 0 0-2.45-1.24 3.07 3.07 0 0 0-1.37.19 4.72 4.72 0 0 0-1.18.75l-2.27 1.72a7.19 7.19 0 0 1-1.9 1.32 3 3 0 0 1-2.28.13 2.9 2.9 0 0 1-1.58-1.64 4.82 4.82 0 0 1-.25-2.29l.52-24 .26-12 .13-6a15 15 0 0 1 .21-3 4.75 4.75 0 0 1 1.71-2.42l19-14.4L628 171l2.37-1.8 2.31-1.89c1.52-1.27 3-2.57 4.48-3.92 2.9-2.72 5.57-5.67 8.23-8.61s5.23-6 7.68-9.1a90.27 90.27 0 0 0 6.81-9.77 27 27 0 0 0 2.49-5.4 8.44 8.44 0 0 0 .44-2.63zm-1.43-2.76a3 3 0 0 1 1.43 2.48 8.13 8.13 0 0 1-.42 2.93 28.31 28.31 0 0 1-2.49 5.39 89.33 89.33 0 0 1-6.8 9.78c-2.46 3.12-5 6.15-7.68 9.11s-5.33 5.89-8.23 8.61c-1.45 1.35-3 2.65-4.48 3.93l-2.3 1.89L628 171l-9.49 7.21-19 14.41a4.75 4.75 0 0 0-1.7 2.38 15.61 15.61 0 0 0-.2 3l-.13 6-.25 12-.5 24a4.77 4.77 0 0 0 .24 2.25 2.77 2.77 0 0 0 1.53 1.58 2.9 2.9 0 0 0 2.2-.13 7.3 7.3 0 0 0 1.87-1.3l2.27-1.72a5.08 5.08 0 0 1 1.21-.77 3.27 3.27 0 0 1 1.42-.19 3.94 3.94 0 0 1 2.52 1.27c.64.73 1.12 1.54 1.69 2.3l1.64 2.33a4.5 4.5 0 0 1 .77 2.73 3.48 3.48 0 0 1-1.23 2.53l-2.27 1.72-9.08 6.9-4.53 3.44c-.19.15-.41.27-.48.47a2.52 2.52 0 0 0 0 .68v4.28l-.24 22.78-.12 11.4v2.85a9.77 9.77 0 0 0 .17 2.81 1.74 1.74 0 0 0 .74 1.09 1.54 1.54 0 0 0 1.31 0 8.29 8.29 0 0 0 2.29-1.62l4.61-3.5a4.16 4.16 0 0 1 1.25-.75 3.2 3.2 0 0 1 1.47-.15 4.11 4.11 0 0 1 2.52 1.41c1.16 1.57 2.25 3.13 3.35 4.74a4.52 4.52 0 0 1 .59 2.83 3.46 3.46 0 0 1-1.5 2.45l-9.22 7-4.6 3.5-2.31 1.75a1.74 1.74 0 0 0-.71 1.14c-.1.47-.18.94-.27 1.42l-.83 31.19-.19 7.81-.1 3.91a10.42 10.42 0 0 1-.66 3.86 8.49 8.49 0 0 1-2.11 3.3c-1 .86-2.07 1.6-3.1 2.4l-6.22 4.72a1.38 1.38 0 0 1-.89.19 1.64 1.64 0 0 1-.82-.41 4.75 4.75 0 0 1-1-1.44q-2.83-19.2-6-38.36c-2.13-12.76-4.34-25.51-6.87-38.2-1.31-6.34-2.63-12.68-4.36-18.91s-3.76-12.37-5.93-18.47-4.51-12.12-7-18.11q-1.85-4.48-3.78-8.93l-1-2.22a16 16 0 0 0-1.07-2.15c-.05-.08-.1-.19-.12-.17l-.26-.12-.56-.22-1.14-.42-1.14-.4-.28-.09h-.2a2.79 2.79 0 0 0-.55.2l-.13.06-.08-.12h.25l-.13.1-.11-.13h.25l-.13.12-.12-.14h.24l-.13.1-.1-.14.09.06h.15L470.22 291c-3 1.78-6.2 3.28-9.36 4.75a35.38 35.38 0 0 0-4.6 2.44 8.56 8.56 0 0 0-1.9 1.69 4.57 4.57 0 0 0-.92 2.29l-.33 48.22a42.09 42.09 0 0 1-.56 5.21 11.28 11.28 0 0 1-2.2 4.79l-4.42 3.36a3.49 3.49 0 0 1-1.24.46 1.9 1.9 0 0 1-1.33-.34 6 6 0 0 1-1.56-2l-18.67-42.38a3.26 3.26 0 0 0-2.79-2.09l-11.25.88h-.44l.19-.4 4.66-9.78v.05a2.6 2.6 0 0 0 0-1.49 3 3 0 0 0-.88-1.22l-2.44-2.24-4.87-4.49-9.74-9-19.47-18a2.81 2.81 0 0 1-.83-1.94 2.89 2.89 0 0 1 1-1.87c.52-.47 1-.83 1.55-1.24l1.54-1.22a9.52 9.52 0 0 1 5-1.66 18.78 18.78 0 0 1 5.2.82l10.13 2.51 20.24 5 10.07 2.65 5 1.24a5.2 5.2 0 0 0 4.64-1.08 27.12 27.12 0 0 0 3.65-3.62c1.16-1.3 2.31-2.61 3.54-3.86a43.34 43.34 0 0 1 3.89-3.52c1.37-1.08 2.77-2.11 4.15-3.17l66.45-50.46-.08.1a2.7 2.7 0 0 0 .35-2 4.66 4.66 0 0 0-1.1-1.9c-1-1.12-2.26-2.18-3.4-3.26-2.33-2.14-4.67-4.27-7.05-6.36-4.74-4.19-9.56-8.3-14.48-12.28s-9.94-7.84-15.12-11.46-10.6-6.89-16.09-10c-11-6.3-22.19-12.2-33.42-18.07s-22.53-11.57-33.87-17.2a2.65 2.65 0 0 1-1.2-1.88 2 2 0 0 1 .21-1.18 2.12 2.12 0 0 1 .86-.82h-.05l8.19-6.09a16.61 16.61 0 0 1 4.43-2.75 12.61 12.61 0 0 1 5.22-.08h.08l40.92 12.82h-.05.2-.05l.1-.07.17-.13.65-.49 1.3-1 2.59-2 5.2-3.94 5.19-4 1.3-1a3.52 3.52 0 0 1 1.65-.75 4.13 4.13 0 0 1 3.35 1 6.71 6.71 0 0 1 1.1 1.32l.94 1.33c.63.92 1.26 1.72 1.88 2.73a4.62 4.62 0 0 1 .44 3.46 3.75 3.75 0 0 1-.91 1.58 14.06 14.06 0 0 1-1.32 1l-2.59 2a18.44 18.44 0 0 0-2.46 2.05 3.22 3.22 0 0 0-1.18 2.49c.16.83 1.11 1.43 2 1.84h-.05l21.63 6.42 10.82 3.22 5.41 1.6c.43.12.95.29 1.31.38h.12a.78.78 0 0 0 .19-.12l.56-.42 2.24-1.71 9-6.82 4.53-3.42a3.62 3.62 0 0 1 3.08-.39 4.74 4.74 0 0 1 2.44 1.84l1.63 2.31.81 1.15a8.68 8.68 0 0 1 .8 1.25 4.74 4.74 0 0 1 .36 3 3.85 3.85 0 0 1-.66 1.44 5.16 5.16 0 0 1-1.13 1l-2.23 1.97a6.77 6.77 0 0 0-1.87 1.82 2 2 0 0 0 0 2.21 4.44 4.44 0 0 0 2 1.54l33.66 10.36 4.21 1.3 2.1.64a7.52 7.52 0 0 0 2 .46 3.41 3.41 0 0 0 1.8-.63c.58-.35 1.16-.85 1.75-1.28l3.5-2.66 14-10.65 7-5.32c2.36-1.76 4.63-3.59 7.07-5.28s4.93-3.21 7.45-4.76 5.14-2.87 7.75-4.23a124 124 0 0 1 16.17-7.13 41.5 41.5 0 0 1 8.65-2.08 14.68 14.68 0 0 1 4.53.13 7.32 7.32 0 0 1 2.2.82 5.15 5.15 0 0 1 1 .7 6.94 6.94 0 0 1 .74.82z"/></g></g></g><circle class="cls-2" cx="342.85" cy="288.78" r="288.79" transform="rotate(-45 342.858 288.784)"/><g clip-path="url(#clip-path-2)"><path d="M344.24 0h-1.39C183.36 0 54.07 129.29 54.07 288.78s129.29 288.79 288.78 288.79h1.39z" opacity=".5" fill="#e44723"/><path class="cls-8" d="M205 33.41s9.67 11.11 5.78 19.73-7.88 19.35-12.21 21.2S187.46 94 187.21 97.11s-14.62 18.61-14.62 18.61-4.54 7.28-2.09 10.86 27.76 10.56 27.76 10.56 18.59-7.75 33.37 6.19 41.51 10.89 53.5 22.13 27.72 31.06 27.72 31.06-3.35 41.64-10.12 42.08-3.43 27.34-16.89 31.54-37.29 38-33.27 40.44-6.34 63.81-21 76-26.83 61.65-26.83 61.65l-12.21 21.2-16.29-17s1.15-26.49-2.11-28.37-3.81-23.92-14.33-30-29.19-75.46-35.72-79.22-7.83-56.17-18.12-55.28-9.35-37.66-2.47-50 22-61.19 30-67.46 16.34-22 12.51-23.1-15.49-27.2-11.17-31.64S174 48.07 205 33.41zM510.86 51.38s-8 8.77-9.08 15.76-18 15.68-25.14 14.84-22.82 36.6-13.46 53 27.19 54 34.27 42 27.89 24.11 50 6.53 36.45 10.24 35.74 15.26-1 32.9 7.13 36.63-10.75 109.85-18.6 110.87 4.37 55.86 12.48 63.79 28.26-12 28.26-12 101.3-213.85-101.6-346.68z"/><path class="cls-9" d="M434.81 342.08c-5.35 3.09-10.55 6-15.83 9l-15.8 8.84q-15.81 8.77-31.71 17.39-31.79 17.22-63.92 33.75c-42.89 22-86.25 43.13-130.67 62.2-22.22 9.5-44.71 18.49-67.75 26.24-11.53 3.86-23.21 7.4-35.13 10.29-6 1.44-12 2.71-18.11 3.69a131.17 131.17 0 0 1-18.72 1.81 73.21 73.21 0 0 1-9.66-.39 46 46 0 0 1-9.85-2 28.85 28.85 0 0 1-9.42-5.11 22 22 0 0 1-6.45-9A27.86 27.86 0 0 1 0 488.52a47.92 47.92 0 0 1 1.05-9.68 92.21 92.21 0 0 1 5.86-17.64 230.55 230.55 0 0 1 17.48-31.78c6.52-10.11 13.45-19.9 20.62-29.5-6.4 10.13-12.53 20.42-18.2 30.92a227.22 227.22 0 0 0-14.65 32.39A85.61 85.61 0 0 0 8 480a39.81 39.81 0 0 0-.26 8.2 20 20 0 0 0 1.81 7.24c2 4.24 6 6.75 10.92 8a35.24 35.24 0 0 0 7.82 1 64.3 64.3 0 0 0 8.28-.32 120.11 120.11 0 0 0 16.85-3c5.62-1.36 11.21-3 16.77-4.81 11.12-3.64 22.1-7.93 33-12.54 21.73-9.25 43-19.76 64.08-30.77 42.08-22.11 83.17-46.28 123.74-71.28q30.42-18.76 60.42-38.22 15-9.7 29.89-19.58l14.84-9.9c4.91-3.3 9.9-6.66 14.67-9.94z"/><g id="layer1-2" data-name="layer1"><g id="rect3052-2" data-name="rect3052"><path class="cls-9" d="M661.38 125.12c-5.5-7.8-29.81 4.91-40.9 11.29-3.28 2.07-6.3 3.88-9.17 6.06l-30.63 23.24c-1.8 1.25-2.54 1.25-4.26.72L536 154c-2.47-1.07-4.19-3.6-.22-6.32l2.74-2.07a3.89 3.89 0 0 0 .46-5.31l-2.85-4a3.58 3.58 0 0 0-5-1.17L515 147.25c-.48.38-.6.31-1.2.13l-38.74-11.51c-3.53-1.52-2.66-3.71.05-6l5-3.79a3.87 3.87 0 0 0 .46-5.3l-2.85-4a3.58 3.58 0 0 0-5-1.17l-16.63 12.59c-.21.15-.3.07-.49 0l-40.92-12.83c-3.25-.33-4.9-.74-8.17 1.86l-9.4 7c-1.43.73-.95 2.52.15 3.21 0 0 59.8 29.55 80 43s42.54 34.76 42.54 34.76c1.75 1.63 3 3.31 1.8 5.36l-67.4 51.13-2.8 2.13c-8.34 6.4-10.76 14-16.45 12.48l-47.41-11.8c-3-.6-5.24-.59-8.14 1.27l-2.86 2.23c-1.29 1.13-1.55 2.26-.35 3.62l36.31 33.53a2.8 2.8 0 0 1 1.17 3.12l-4.67 9.8 11.25-.87a3.51 3.51 0 0 1 3 2.26l18.65 42.38c.95 1.7 1.88 3 3.81 1.81l4.43-3.36c2.46-3.14 2.41-6.3 2.71-9.88l.34-48.22c.43-4.81 7.74-5.91 16.88-11.32l2.79-2.12 66.57-50.51.35-.14.35-.1a32.33 32.33 0 0 1 3.66 1.35c.09.13.44.72.52.88 0 0 11.85 25.79 18.54 50S580 385 580 385c.63 1.32 1.47 2.19 2.54 1.61l8.67-6.58c2.37-1.69 3.28-4.9 3.36-6.8l1.09-43.77c.31-1.71.34-2.07.91-2.54l16.47-12.5a3.91 3.91 0 0 0 .44-5.33l-2.85-4a3.56 3.56 0 0 0-5-1.15l-5 3.79c-2.76 2.58-4.52 2.47-4.67-.79l.47-42.47c0-.95-.07-1.11.36-1.42l16-12.15a3.91 3.91 0 0 0 .45-5.33l-2.85-4a3.56 3.56 0 0 0-5-1.15l-2.74 2.07c-3.49 3.35-6.35 1-5.92-2.43l.93-43.56a4.37 4.37 0 0 1 1.87-3.82l30.71-23.3a111.08 111.08 0 0 0 8.74-7.67c9.61-9.79 29.32-32.35 22.38-36.54z"/><path class="cls-9" d="M662.81 127.88l-1.77-2.4c-1.75-2.37-4.87-2.48-7.67-2.21a40 40 0 0 0-8.43 2 120.32 120.32 0 0 0-16 7.06c-2.6 1.34-5.17 2.75-7.7 4.2s-5 3.07-7.4 4.71-4.69 3.5-7 5.25l-7 5.33-14 10.64-3.51 2.66c-.6.44-1.13.9-1.81 1.31a4.25 4.25 0 0 1-2.3.77 8.29 8.29 0 0 1-2.28-.49l-2.1-.65-4.21-1.3-33.78-10.36a5.3 5.3 0 0 1-2.39-1.9 3 3 0 0 1-.45-1.58 3.27 3.27 0 0 1 .46-1.55 7.33 7.33 0 0 1 2.13-2.1l2.24-1.7a4.72 4.72 0 0 0 1-.85 3 3 0 0 0 .5-1.11 3.78 3.78 0 0 0-.29-2.45 7.3 7.3 0 0 0-.72-1.13l-.81-1.15-1.63-2.3a3.85 3.85 0 0 0-2-1.51 2.72 2.72 0 0 0-2.33.28l-4.56 3.36-9 6.82-2.25 1.7-.57.43a1.71 1.71 0 0 1-.41.24 1.16 1.16 0 0 1-.58 0c-.55-.14-.92-.27-1.4-.4l-5.4-1.61-10.82-3.22-21.57-6.4h-.05a6.5 6.5 0 0 1-1.5-.87 2.81 2.81 0 0 1-1-1.58 2.74 2.74 0 0 1 .36-1.84 5.81 5.81 0 0 1 1-1.39 17.38 17.38 0 0 1 2.55-2.12l2.6-2a15.58 15.58 0 0 0 1.23-1 3 3 0 0 0 .71-1.23 3.83 3.83 0 0 0-.37-2.84c-.52-.84-1.22-1.76-1.83-2.64l-.94-1.33a5.77 5.77 0 0 0-1-1.18 3.3 3.3 0 0 0-2.67-.86 2.74 2.74 0 0 0-1.28.6l-1.3 1-5.2 3.94-5.2 3.94-2.6 2-1.3 1-.65.49-.16.13a1.5 1.5 0 0 1-.24.15.73.73 0 0 1-.44.06h-.2l-40.92-12.84h.08c-1.7-.17-3.38-.47-4.9 0a15.92 15.92 0 0 0-4.2 2.63l-8.2 6.08a1.15 1.15 0 0 0-.66 1.22 1.88 1.88 0 0 0 .85 1.32q17 8.47 33.89 17.24c11.22 5.87 22.43 11.78 33.42 18.1 5.5 3.15 11 6.41 16.14 10.08S491.11 180.05 496 184s9.75 8.1 14.49 12.3q3.57 3.15 7.05 6.38c1.16 1.1 2.34 2.11 3.45 3.32a5.25 5.25 0 0 1 1.25 2.18 3.36 3.36 0 0 1-.43 2.52v.06l-66.48 50.42c-1.38 1.05-2.79 2.09-4.14 3.16a39.43 39.43 0 0 0-3.84 3.47c-1.22 1.22-2.36 2.53-3.52 3.83a28.53 28.53 0 0 1-3.75 3.7 5.8 5.8 0 0 1-5.14 1.17l-5.06-1.26-10.12-2.52-20.23-5.05-10.12-2.52a18.56 18.56 0 0 0-5.07-.81 9 9 0 0 0-4.74 1.57l-1.54 1.2c-.5.41-1 .8-1.51 1.21a2.42 2.42 0 0 0-.83 1.5 2.35 2.35 0 0 0 .7 1.56l19.46 18 9.72 9 4.87 4.5 2.44 2.24a3.54 3.54 0 0 1 1 1.43 3.09 3.09 0 0 1 0 1.78l-4.66 9.78-.25-.36 11.25-.87a3.69 3.69 0 0 1 2 .74 3.56 3.56 0 0 1 1.26 1.69l18.64 42.39a5.71 5.71 0 0 0 1.42 1.86 1.82 1.82 0 0 0 2.07-.14l4.43-3.36a10.87 10.87 0 0 0 2.11-4.6 43.78 43.78 0 0 0 .56-5.16l.35-48.21a5.22 5.22 0 0 1 1-2.51 9.08 9.08 0 0 1 2-1.77 35.75 35.75 0 0 1 4.65-2.47 102 102 0 0 0 9.33-4.73l69.37-52.61H539.65v.05h-.23l.13-.1.1.13h-.24l.14-.12.11.14h-.24l.15-.11.1.15-.22-.06a3.77 3.77 0 0 1 .59-.22h.17a.83.83 0 0 1 .22 0l.3.1 1.15.4 1.14.42.57.23.29.13c.18.09.19.21.25.29a16.53 16.53 0 0 1 1.09 2.19l1 2.22q1.93 4.46 3.78 9c2.44 6 4.78 12 6.95 18.13s4.18 12.26 5.92 18.49 3 12.59 4.35 18.93c2.53 12.7 4.73 25.45 6.85 38.22s4.1 25.56 6 38.36a4.49 4.49 0 0 0 .93 1.37 1.36 1.36 0 0 0 .69.34 1.16 1.16 0 0 0 .75-.15l6.22-4.73c1-.79 2.11-1.55 3.08-2.38a8.32 8.32 0 0 0 2.06-3.21 10.19 10.19 0 0 0 .65-3.79l.1-3.91.19-7.81.79-31.23c.09-.47.17-.95.27-1.42a2.77 2.77 0 0 1 .26-.71 1.92 1.92 0 0 1 .52-.54L599 325l4.61-3.5 9.22-7a3.25 3.25 0 0 0 1.43-2.33 4.35 4.35 0 0 0-.56-2.73c-1.08-1.57-2.2-3.17-3.33-4.71a3.87 3.87 0 0 0-2.41-1.35 3.22 3.22 0 0 0-2.6.86l-4.61 3.5a8.34 8.34 0 0 1-2.34 1.65 1.71 1.71 0 0 1-1.45 0 1.88 1.88 0 0 1-.81-1.19 10.14 10.14 0 0 1-.18-2.85v-2.85l.13-11.4.26-22.78v-4.28a2.31 2.31 0 0 1 .05-.73c.1-.26.34-.38.52-.52l4.54-3.45 9.08-6.88 2.26-1.72a3.31 3.31 0 0 0 1.19-2.45 4.35 4.35 0 0 0-.74-2.66l-1.64-2.33c-.56-.76-1.06-1.58-1.68-2.29a3.85 3.85 0 0 0-2.45-1.24 3.07 3.07 0 0 0-1.37.19 4.72 4.72 0 0 0-1.18.75l-2.27 1.72a7.19 7.19 0 0 1-1.9 1.32 3 3 0 0 1-2.28.13 2.9 2.9 0 0 1-1.58-1.64 4.82 4.82 0 0 1-.25-2.29l.52-24 .26-12 .13-6a15 15 0 0 1 .21-3 4.75 4.75 0 0 1 1.71-2.42l19-14.4L628 171l2.37-1.8 2.31-1.89c1.52-1.27 3-2.57 4.48-3.92 2.9-2.72 5.57-5.67 8.23-8.61s5.23-6 7.68-9.1a90.27 90.27 0 0 0 6.81-9.77 27 27 0 0 0 2.49-5.4 8.44 8.44 0 0 0 .44-2.63zm-1.43-2.76a3 3 0 0 1 1.43 2.48 8.13 8.13 0 0 1-.42 2.93 28.31 28.31 0 0 1-2.49 5.39 89.33 89.33 0 0 1-6.8 9.78c-2.46 3.12-5 6.15-7.68 9.11s-5.33 5.89-8.23 8.61c-1.45 1.35-3 2.65-4.48 3.93l-2.3 1.89L628 171l-9.49 7.21-19 14.41a4.75 4.75 0 0 0-1.7 2.38 15.61 15.61 0 0 0-.2 3l-.13 6-.25 12-.5 24a4.77 4.77 0 0 0 .24 2.25 2.77 2.77 0 0 0 1.53 1.58 2.9 2.9 0 0 0 2.2-.13 7.3 7.3 0 0 0 1.87-1.3l2.27-1.72a5.08 5.08 0 0 1 1.21-.77 3.27 3.27 0 0 1 1.42-.19 3.94 3.94 0 0 1 2.52 1.27c.64.73 1.12 1.54 1.69 2.3l1.64 2.33a4.5 4.5 0 0 1 .77 2.73 3.48 3.48 0 0 1-1.23 2.53l-2.27 1.72-9.08 6.9-4.53 3.44c-.19.15-.41.27-.48.47a2.52 2.52 0 0 0 0 .68v4.28l-.24 22.78-.12 11.4v2.85a9.77 9.77 0 0 0 .17 2.81 1.74 1.74 0 0 0 .74 1.09 1.54 1.54 0 0 0 1.31 0 8.29 8.29 0 0 0 2.29-1.62l4.61-3.5a4.16 4.16 0 0 1 1.25-.75 3.2 3.2 0 0 1 1.47-.15 4.11 4.11 0 0 1 2.52 1.41c1.16 1.57 2.25 3.13 3.35 4.74a4.52 4.52 0 0 1 .59 2.83 3.46 3.46 0 0 1-1.5 2.45l-9.22 7-4.6 3.5-2.31 1.75a1.74 1.74 0 0 0-.71 1.14c-.1.47-.18.94-.27 1.42l-.83 31.19-.19 7.81-.1 3.91a10.42 10.42 0 0 1-.66 3.86 8.49 8.49 0 0 1-2.11 3.3c-1 .86-2.07 1.6-3.1 2.4l-6.22 4.72a1.38 1.38 0 0 1-.89.19 1.64 1.64 0 0 1-.82-.41 4.75 4.75 0 0 1-1-1.44q-2.83-19.2-6-38.36c-2.13-12.76-4.34-25.51-6.87-38.2-1.31-6.34-2.63-12.68-4.36-18.91s-3.76-12.37-5.93-18.47-4.51-12.12-7-18.11q-1.85-4.48-3.78-8.93l-1-2.22a16 16 0 0 0-1.07-2.15c-.05-.08-.1-.19-.12-.17l-.26-.12-.56-.22-1.14-.42-1.14-.4-.28-.09h-.2a2.79 2.79 0 0 0-.55.2l-.13.06-.08-.12h.25l-.13.1-.11-.13h.25l-.13.12-.12-.14h.24l-.13.1-.1-.14.09.06h.15L470.22 291c-3 1.78-6.2 3.28-9.36 4.75a35.38 35.38 0 0 0-4.6 2.44 8.56 8.56 0 0 0-1.9 1.69 4.57 4.57 0 0 0-.92 2.29l-.33 48.22a42.09 42.09 0 0 1-.56 5.21 11.28 11.28 0 0 1-2.2 4.79l-4.42 3.36a3.49 3.49 0 0 1-1.24.46 1.9 1.9 0 0 1-1.33-.34 6 6 0 0 1-1.56-2l-18.67-42.38a3.26 3.26 0 0 0-2.79-2.09l-11.25.88h-.44l.19-.4 4.66-9.78v.05a2.6 2.6 0 0 0 0-1.49 3 3 0 0 0-.88-1.22l-2.44-2.24-4.87-4.49-9.74-9-19.47-18a2.81 2.81 0 0 1-.83-1.94 2.89 2.89 0 0 1 1-1.87c.52-.47 1-.83 1.55-1.24l1.54-1.22a9.52 9.52 0 0 1 5-1.66 18.78 18.78 0 0 1 5.2.82l10.13 2.51 20.24 5 10.07 2.65 5 1.24a5.2 5.2 0 0 0 4.64-1.08 27.12 27.12 0 0 0 3.65-3.62c1.16-1.3 2.31-2.61 3.54-3.86a43.34 43.34 0 0 1 3.89-3.52c1.37-1.08 2.77-2.11 4.15-3.17l66.45-50.46-.08.1a2.7 2.7 0 0 0 .35-2 4.66 4.66 0 0 0-1.1-1.9c-1-1.12-2.26-2.18-3.4-3.26-2.33-2.14-4.67-4.27-7.05-6.36-4.74-4.19-9.56-8.3-14.48-12.28s-9.94-7.84-15.12-11.46-10.6-6.89-16.09-10c-11-6.3-22.19-12.2-33.42-18.07s-22.53-11.57-33.87-17.2a2.65 2.65 0 0 1-1.2-1.88 2 2 0 0 1 .21-1.18 2.12 2.12 0 0 1 .86-.82h-.05l8.19-6.09a16.61 16.61 0 0 1 4.43-2.75 12.61 12.61 0 0 1 5.22-.08h.08l40.92 12.82h-.05.2-.05l.1-.07.17-.13.65-.49 1.3-1 2.59-2 5.2-3.94 5.19-4 1.3-1a3.52 3.52 0 0 1 1.65-.75 4.13 4.13 0 0 1 3.35 1 6.71 6.71 0 0 1 1.1 1.32l.94 1.33c.63.92 1.26 1.72 1.88 2.73a4.62 4.62 0 0 1 .44 3.46 3.75 3.75 0 0 1-.91 1.58 14.06 14.06 0 0 1-1.32 1l-2.59 2a18.44 18.44 0 0 0-2.46 2.05 3.22 3.22 0 0 0-1.18 2.49c.16.83 1.11 1.43 2 1.84h-.05l21.63 6.42 10.82 3.22 5.41 1.6c.43.12.95.29 1.31.38h.12a.78.78 0 0 0 .19-.12l.56-.42 2.24-1.71 9-6.82 4.53-3.42a3.62 3.62 0 0 1 3.08-.39 4.74 4.74 0 0 1 2.44 1.84l1.63 2.31.81 1.15a8.68 8.68 0 0 1 .8 1.25 4.74 4.74 0 0 1 .36 3 3.85 3.85 0 0 1-.66 1.44 5.16 5.16 0 0 1-1.13 1l-2.23 1.97a6.77 6.77 0 0 0-1.87 1.82 2 2 0 0 0 0 2.21 4.44 4.44 0 0 0 2 1.54l33.66 10.36 4.21 1.3 2.1.64a7.52 7.52 0 0 0 2 .46 3.41 3.41 0 0 0 1.8-.63c.58-.35 1.16-.85 1.75-1.28l3.5-2.66 14-10.65 7-5.32c2.36-1.76 4.63-3.59 7.07-5.28s4.93-3.21 7.45-4.76 5.14-2.87 7.75-4.23a124 124 0 0 1 16.17-7.13 41.5 41.5 0 0 1 8.65-2.08 14.68 14.68 0 0 1 4.53.13 7.32 7.32 0 0 1 2.2.82 5.15 5.15 0 0 1 1 .7 6.94 6.94 0 0 1 .74.82z"/></g></g></g><path d="M453.83 306c-10.39 6.19-20.62 12.13-31 18.09s-20.68 11.82-31.06 17.65q-31.14 17.47-62.64 34.3t-63.43 32.8c-21.32 10.63-42.81 21-64.59 30.72s-43.82 19-66.39 27.13c-11.3 4-22.73 7.78-34.4 10.93s-23.59 5.72-36 6.59a68.17 68.17 0 0 1-19.06-1.14 32.16 32.16 0 0 1-9.53-3.78 21.46 21.46 0 0 1-7.53-7.67 24.89 24.89 0 0 1-3-9.91 40.26 40.26 0 0 1 .38-9.67 80.09 80.09 0 0 1 5.11-17.68c4.51-11.22 10.4-21.62 16.59-31.76s13-19.88 19.93-29.47C61 383.19 55 393.42 49.49 403.87S39 425 35.49 436.1a73.91 73.91 0 0 0-3.56 16.67 33.51 33.51 0 0 0 .24 8 17.45 17.45 0 0 0 2.58 6.79c2.53 3.85 7.12 5.86 12.26 6.68a59.65 59.65 0 0 0 16.31-.24c11.15-1.59 22.3-4.85 33.24-8.64s21.76-8.25 32.46-13c21.39-9.47 42.34-20.11 63-31.24s41.13-22.83 61.39-34.83 40.34-24.34 60.28-36.9 39.73-25.36 59.4-38.35q14.75-9.73 29.38-19.62c9.73-6.58 19.53-13.26 29-19.89z" fill="#f6b63e"/><path id="rect3052-3" data-name="rect3052" class="cls-5" d="M679.93 108.66c-5.62-7.45-29.73 5.13-40.72 11.44-3.25 2-6.23 3.83-9.08 6l-30.25 22.84c-1.78 1.23-2.52 1.24-4.25.75L555 138.17c-2.49-1-4.25-3.41-.32-6.09l2.7-2a3.64 3.64 0 0 0 .38-5.13l-2.91-3.85a3.67 3.67 0 0 0-5.05-1.07L534 132c-.48.38-.6.31-1.2.15l-38.92-10.6c-3.55-1.42-2.72-3.54 0-5.78l4.94-3.73a3.63 3.63 0 0 0 .37-5.12l-3-3.92a3.67 3.67 0 0 0-5.05-1.06l-16.43 12.4c-.2.15-.3.07-.48 0l-41.12-11.84c-3.25-.28-4.91-.64-8.14 1.91l-9.29 6.86c-1.42.73-.9 2.45.21 3.09 0 0 60.25 27.73 80.62 40.44s43.08 33 43.08 33c1.78 1.54 3.07 3.15 1.89 5.15l-66.54 50.23-2.77 2.09c-8.24 6.3-10.53 13.67-16.25 12.27l-47.58-10.76c-3-.54-5.26-.5-8.12 1.33l-2.83 2.21c-1.27 1.11-1.52 2.21-.3 3.5l36.85 31.88a2.69 2.69 0 0 1 1.21 3l-4.51 9.5 11.24-1a3.48 3.48 0 0 1 3.05 2.14L464.25 340c1 1.63 1.93 2.83 3.84 1.69l4.37-3.29c2.42-3.07 2.32-6.12 2.56-9.58l-.42-46.55c.35-4.65 7.64-5.81 16.7-11.15l2.75-2.08 65.76-49.64.35-.14.35-.1a33.94 33.94 0 0 1 3.68 1.25c.09.13.45.69.54.85 0 0 12.25 24.73 19.32 48.06s18.48 91.15 18.48 91.15c.64 1.27 1.5 2.1 2.56 1.52l8.57-6.47a8.83 8.83 0 0 0 3.25-6.61l.39-42.26c.28-1.65.32-2 .87-2.46L634.63 292a3.69 3.69 0 0 0 .35-5.15l-2.91-3.85a3.65 3.65 0 0 0-5-1l-4.94 3.73c-2.72 2.52-4.48 2.44-4.67-.71l-.21-41c0-.92-.09-1.07.34-1.38l15.82-11.94a3.68 3.68 0 0 0 .35-5.15l-2.91-3.86a3.65 3.65 0 0 0-5-1l-2.71 2c-3.43 3.28-6.33 1-6-2.27l.24-42.06c0-2 .55-2.55 1.82-3.71l30.33-22.9a109.51 109.51 0 0 0 8.61-7.51c9.46-9.58 28.81-31.62 21.81-35.57z"/></svg>