<svg xmlns="http://www.w3.org/2000/svg" viewBox="0 0 313.61 136.32"><defs><style>.cls-10,.cls-12,.cls-13,.cls-14,.cls-17,.cls-18,.cls-2,.cls-20,.cls-21,.cls-22,.cls-23,.cls-24,.cls-25,.cls-26,.cls-27,.cls-29,.cls-30,.cls-31,.cls-32,.cls-33,.cls-34,.cls-36,.cls-37,.cls-39,.cls-4,.cls-5,.cls-6,.cls-7,.cls-8,.cls-9{isolation:isolate}.cls-10,.cls-12,.cls-13,.cls-14,.cls-17,.cls-18,.cls-20,.cls-21,.cls-22,.cls-23,.cls-24,.cls-25,.cls-26,.cls-27,.cls-29,.cls-30,.cls-31,.cls-32,.cls-33,.cls-34,.cls-36,.cls-37,.cls-39,.cls-4,.cls-5,.cls-6,.cls-7,.cls-8,.cls-9{font-size:5px;fill:#595959}.cls-10,.cls-12,.cls-13,.cls-14,.cls-17,.cls-18,.cls-20,.cls-21,.cls-22,.cls-23,.cls-24,.cls-25,.cls-26,.cls-27,.cls-29,.cls-30,.cls-31,.cls-32,.cls-33,.cls-34,.cls-36,.cls-37,.cls-39,.cls-4,.cls-41,.cls-5,.cls-6,.cls-7,.cls-8,.cls-9{font-family:SegoeUI,Segoe UI}.cls-4{letter-spacing:.08em}.cls-5{letter-spacing:-.03em}.cls-7{letter-spacing:-.02em}.cls-8{letter-spacing:-.03em}.cls-9{letter-spacing:.06em}.cls-10{letter-spacing:.02em}.cls-12{letter-spacing:-.01em}.cls-13{letter-spacing:.1em}.cls-14{letter-spacing:-.02em}.cls-17{letter-spacing:.03em}.cls-18{letter-spacing:.1em}.cls-20{letter-spacing:.02em}.cls-21{letter-spacing:.05em}.cls-22,.cls-23{letter-spacing:-.03em}.cls-24,.cls-25{letter-spacing:-.01em}.cls-26{letter-spacing:-.04em}.cls-27{letter-spacing:.02em}.cls-29{letter-spacing:-.01em}.cls-30{letter-spacing:.03em}.cls-31{letter-spacing:-.06em}.cls-32{letter-spacing:0}.cls-33{letter-spacing:-.01em}.cls-34{letter-spacing:-.02em}.cls-36{letter-spacing:.04em}.cls-37{letter-spacing:-.04em}.cls-39{letter-spacing:-.01em}.cls-41{font-size:4px}.Graphic-Style-3,.Graphic-Style-6{fill:#f40}.Graphic-Style-6{fill-opacity:.5}</style><linearGradient id="linear-gradient" x1="162.38" y1="-2.61" x2="161.93" y2="75.37" gradientUnits="userSpaceOnUse"><stop offset=".03" stop-color="#fff"/><stop offset="1" stop-color="#f40"/></linearGradient></defs><g id="eria"><path id="eria-2" data-name="eria" fill="url(#linear-gradient)" d="M10.91 66.92l19.89-3.83 19.88-6.12 20.65.77 19.88-2.3 19.89-6.89 20.65-6.12 19.88-5.36 19.88-3.06 20.65-8.42 19.88-6.89 19.89 2.3 20.65-1.53 19.88-8.42 19.89 17.6 20.64 18.37v29.09H10.91v-9.19z"/></g><g id="names"><g class="cls-2"><text transform="rotate(-90 56.985 46.425)" style="isolation:isolate" letter-spacing="-.04em" font-family="SegoeUI,Segoe UI" font-size="5" fill="#595959">Б</text><text class="cls-4" transform="rotate(-90 55.435 44.875)">е</text><text class="cls-5" transform="rotate(-90 53.835 43.275)">н</text><text class="cls-6" transform="rotate(-90 52.54 41.98)">и</text></g><g class="cls-2"><text class="cls-7" transform="rotate(-90 67.73 37.04)">М</text><text class="cls-8" transform="rotate(-90 65.7 35.01)">у</text><text class="cls-9" transform="rotate(-90 64.54 33.85)">р</text><text class="cls-6" transform="rotate(-90 63.005 32.315)">и</text></g><g class="cls-2"><text class="cls-7" transform="rotate(-90 77.59 26.77)">М</text><text class="cls-8" transform="rotate(-90 75.56 24.74)">у</text><text class="cls-5" transform="rotate(-90 74.4 23.58)">н</text><text class="cls-6" transform="rotate(-90 73.1 22.28)">и</text></g><g class="cls-2"><text class="cls-10" transform="rotate(-90 93.91 22.95)">Д</text><text transform="rotate(-90 92.16 21.2)" style="isolation:isolate" letter-spacing="-.02em" font-family="SegoeUI,Segoe UI" font-size="5" fill="#595959">ж</text><text class="cls-8" transform="rotate(-90 90.545 19.585)">у</text><text class="cls-12" transform="rotate(-90 89.38 18.42)">г</text><text class="cls-13" transform="rotate(-90 88.5 17.54)">а</text><text class="cls-14" transform="rotate(-90 86.85 15.89)">п</text><text class="cls-13" transform="rotate(-90 85.545 14.585)">а</text><text class="cls-5" transform="rotate(-90 83.895 12.935)">н</text><text class="cls-6" transform="rotate(-90 82.6 11.64)">и</text></g><g class="cls-2"><text transform="rotate(-90 102.02 10.93)" style="isolation:isolate" letter-spacing=".03em" font-family="SegoeUI,Segoe UI" font-size="5" fill="#595959">Ч</text><text transform="rotate(-90 100.285 9.195)" style="isolation:isolate" letter-spacing=".08em" font-family="SegoeUI,Segoe UI" font-size="5" fill="#595959">е</text><text class="cls-17" transform="rotate(-90 98.685 7.595)">т</text><text class="cls-18" transform="rotate(-90 97.465 6.375)">а</text><text transform="rotate(-90 95.815 4.725)" style="isolation:isolate" letter-spacing="-.03em" font-family="SegoeUI,Segoe UI" font-size="5" fill="#595959">р</text><text class="cls-20" transform="rotate(-90 94.49 3.4)">а</text><text class="cls-5" transform="rotate(-90 93.045 1.955)">н</text><text class="cls-6" transform="rotate(-90 91.75 .66)">г</text></g><g class="cls-2"><text class="cls-10" transform="rotate(-90 109.505 -.715)">Д</text><text class="cls-21" transform="rotate(-90 107.755 -2.465)">о</text><text class="cls-22" transform="rotate(-90 106.23 -3.99)">б</text><text class="cls-18" transform="rotate(-90 104.875 -5.345)">а</text><text class="cls-23" transform="rotate(-90 103.225 -6.995)">н</text><text class="cls-6" transform="rotate(-90 101.93 -8.29)">г</text></g><g class="cls-2"><text class="cls-22" transform="rotate(-90 121.94 -8.42)">С</text><text class="cls-18" transform="rotate(-90 120.215 -10.145)">а</text><text class="cls-24" transform="rotate(-90 118.565 -11.795)">л</text><text class="cls-18" transform="rotate(-90 117.135 -13.225)">а</text><text class="cls-25" transform="rotate(-90 115.485 -14.875)">г</text><text class="cls-26" transform="rotate(-90 114.6 -15.76)">и</text><text class="cls-9" transform="rotate(-90 113.305 -17.055)">р</text><text class="cls-6" transform="rotate(-90 111.77 -18.59)">и</text></g><g class="cls-2"><text class="cls-27" transform="rotate(-90 143.405 -7.085)">И</text><text class="cls-17" transform="rotate(-90 141.545 -8.945)">т</text><text class="cls-18" transform="rotate(-90 140.33 -10.16)">а</text><text class="cls-24" transform="rotate(-90 138.68 -11.81)">л</text><text transform="rotate(-90 137.245 -13.245)" style="isolation:isolate" letter-spacing=".03em" font-family="SegoeUI,Segoe UI" font-size="5" fill="#595959">ь</text><text class="cls-27" transform="rotate(-90 135.865 -14.625)">я</text><text class="cls-5" transform="rotate(-90 134.45 -16.04)">н</text><text class="cls-29" transform="rotate(-90 133.155 -17.335)">с</text><text class="cls-30" transform="rotate(-90 131.92 -18.57)">к</text><text class="cls-26" transform="rotate(-90 130.735 -19.755)">ий</text><text class="cls-31" transform="rotate(-90 128.145 -22.345)"></text><text class="cls-22" transform="rotate(-90 127.595 -22.895)">б</text><text class="cls-13" transform="rotate(-90 126.245 -24.245)">а</text><text class="cls-32" transform="rotate(-90 124.595 -25.895)">з</text><text class="cls-33" transform="rotate(-90 123.46 -27.03)">л</text><text class="cls-13" transform="rotate(-90 122.03 -28.46)">а</text><text class="cls-6" transform="rotate(-90 120.38 -30.11)">г</text></g><g class="cls-2"><text class="cls-17" transform="rotate(-90 150.425 -21.195)">Я</text><text class="cls-7" transform="rotate(-90 148.55 -23.07)">п</text><text class="cls-21" transform="rotate(-90 147.245 -24.375)">о</text><text class="cls-5" transform="rotate(-90 145.72 -25.9)">н</text><text class="cls-29" transform="rotate(-90 144.42 -27.2)">с</text><text class="cls-30" transform="rotate(-90 143.185 -28.435)">к</text><text class="cls-26" transform="rotate(-90 142.005 -29.615)">ий</text><text class="cls-10" transform="rotate(-90 139.41 -32.21)"></text><text class="cls-22" transform="rotate(-90 138.66 -32.96)">б</text><text class="cls-18" transform="rotate(-90 137.305 -34.315)">а</text><text class="cls-29" transform="rotate(-90 135.655 -35.965)">з</text><text class="cls-33" transform="rotate(-90 134.525 -37.095)">л</text><text class="cls-13" transform="rotate(-90 133.09 -38.53)">а</text><text class="cls-6" transform="rotate(-90 131.44 -40.18)">г</text></g><g class="cls-2"><text class="cls-22" transform="rotate(-90 162.855 -28.895)">б</text><text class="cls-13" transform="rotate(-90 161.505 -30.245)">а</text><text class="cls-32" transform="rotate(-90 159.855 -31.895)">з</text><text class="cls-24" transform="rotate(-90 158.72 -33.03)">л</text><text class="cls-18" transform="rotate(-90 157.29 -34.46)">а</text><text class="cls-12" transform="rotate(-90 155.635 -36.115)">г</text><text class="cls-31" transform="rotate(-90 154.755 -36.995)"></text><text class="cls-10" transform="rotate(-90 154.21 -37.54)">Д</text><text class="cls-34" transform="rotate(-90 152.46 -39.29)">х</text><text class="cls-13" transform="rotate(-90 151.25 -40.5)">а</text><text class="cls-23" transform="rotate(-90 149.6 -42.15)">у</text><text class="cls-24" transform="rotate(-90 148.435 -43.315)">л</text><text class="cls-18" transform="rotate(-90 147.005 -44.745)">а</text><text class="cls-25" transform="rotate(-90 145.355 -46.395)">г</text><text class="cls-26" transform="rotate(-90 144.47 -47.28)">и</text><text class="cls-9" transform="rotate(-90 143.175 -48.575)">р</text><text class="cls-6" transform="rotate(-90 141.64 -50.11)">и</text></g><g class="cls-2"><text transform="rotate(-90 167.135 -44.755)" style="isolation:isolate" letter-spacing="-.03em" font-family="SegoeUI,Segoe UI" font-size="5" fill="#595959">Ф</text><text class="cls-9" transform="rotate(-90 165.31 -46.58)">р</text><text class="cls-13" transform="rotate(-90 163.775 -48.115)">а</text><text class="cls-5" transform="rotate(-90 162.125 -49.765)">н</text><text class="cls-36" transform="rotate(-90 160.83 -51.06)">ц</text><text class="cls-23" transform="rotate(-90 159.295 -52.595)">у</text><text class="cls-32" transform="rotate(-90 158.135 -53.755)">зс</text><text class="cls-30" transform="rotate(-90 155.765 -56.125)">к</text><text class="cls-37" transform="rotate(-90 154.585 -57.305)">ий</text></g><g class="cls-2"><text class="cls-22" transform="rotate(-90 180.325 -51.695)">С</text><text class="cls-30" transform="rotate(-90 178.6 -53.42)">к</text><text class="cls-9" transform="rotate(-90 177.42 -54.6)">р</text><text class="cls-6" transform="rotate(-90 175.885 -56.135)">ы</text><text class="cls-17" transform="rotate(-90 174.09 -57.93)">т</text><text class="cls-18" transform="rotate(-90 172.87 -59.15)">а</text><text class="cls-27" transform="rotate(-90 171.22 -60.8)">я</text><text class="cls-31" transform="rotate(-90 169.805 -62.215)"></text><text class="cls-10" transform="rotate(-90 169.255 -62.765)">Д</text><text class="cls-21" transform="rotate(-90 167.51 -64.51)">о</text><text class="cls-33" transform="rotate(-90 165.98 -66.04)">л</text><text class="cls-37" transform="rotate(-90 164.55 -67.47)">и</text><text class="cls-5" transform="rotate(-90 163.25 -68.77)">н</text><text class="cls-6" transform="rotate(-90 161.955 -70.065)">а</text></g><g class="cls-2"><text class="cls-7" transform="rotate(-90 191.29 -60.86)">п</text><text class="cls-4" transform="rotate(-90 189.985 -62.165)">е</text><text class="cls-9" transform="rotate(-90 188.385 -63.765)">р</text><text class="cls-4" transform="rotate(-90 186.85 -65.3)">е</text><text transform="rotate(-90 185.25 -66.9)" style="isolation:isolate" letter-spacing=".02em" font-family="SegoeUI,Segoe UI" font-size="5" fill="#595959">ва</text><text class="cls-33" transform="rotate(-90 182.43 -69.72)">л</text><text class="cls-31" transform="rotate(-90 180.995 -71.155)"></text><text class="cls-10" transform="rotate(-90 180.45 -71.7)">Д</text><text class="cls-34" transform="rotate(-90 178.7 -73.45)">х</text><text class="cls-20" transform="rotate(-90 177.49 -74.66)">а</text><text class="cls-39" transform="rotate(-90 176.05 -76.1)">м</text><text class="cls-7" transform="rotate(-90 174.355 -77.795)">п</text><text class="cls-8" transform="rotate(-90 173.05 -79.1)">у</text><text class="cls-6" transform="rotate(-90 171.89 -80.26)">с</text></g><g class="cls-2"><text class="cls-10" transform="rotate(-90 195.85 -76.44)">Д</text><text class="cls-34" transform="rotate(-90 194.1 -78.19)">х</text><text class="cls-13" transform="rotate(-90 192.89 -79.4)">а</text><text class="cls-39" transform="rotate(-90 191.24 -81.05)">м</text><text class="cls-7" transform="rotate(-90 189.545 -82.745)">п</text><text class="cls-23" transform="rotate(-90 188.24 -84.05)">у</text><text class="cls-29" transform="rotate(-90 187.08 -85.21)">с</text><text class="cls-31" transform="rotate(-90 185.845 -86.445)"></text><text class="cls-14" transform="rotate(-90 185.295 -86.995)">п</text><text class="cls-37" transform="rotate(-90 183.995 -88.295)">и</text><text class="cls-6" transform="rotate(-90 182.695 -89.595)">к</text></g><g class="cls-2"><text class="cls-17" transform="rotate(-90 203.645 -88.775)">Я</text><text class="cls-30" transform="rotate(-90 201.77 -90.65)">к</text><text class="cls-31" transform="rotate(-90 200.585 -91.835)"></text><text class="cls-36" transform="rotate(-90 200.04 -92.38)">К</text><text class="cls-34" transform="rotate(-90 198.48 -93.94)">х</text><text class="cls-18" transform="rotate(-90 197.27 -95.15)">а</text><text class="cls-9" transform="rotate(-90 195.62 -96.8)">р</text><text transform="rotate(-90 194.09 -98.33)" style="isolation:isolate" letter-spacing=".04em" font-family="SegoeUI,Segoe UI" font-size="5" fill="#595959">к</text><text class="cls-6" transform="rotate(-90 192.905 -99.515)">а</text></g><g class="cls-2"><text class="cls-7" transform="rotate(-90 209.88 -101.67)">М</text><text class="cls-13" transform="rotate(-90 207.85 -103.7)">а</text><text class="cls-9" transform="rotate(-90 206.2 -105.35)">р</text><text class="cls-37" transform="rotate(-90 204.665 -106.885)">ф</text><text class="cls-6" transform="rotate(-90 202.71 -108.84)">а</text></g></g><g id="altitude"><text class="cls-41" transform="translate(0 13.58)">6000</text><text class="cls-41" transform="translate(0 24.53)">5000</text><text class="cls-41" transform="translate(0 35.3)">4000</text><text class="cls-41" transform="translate(0 46.07)">3000</text><text class="cls-41" transform="translate(0 56.84)">2000</text><text class="cls-41" transform="translate(0 67.6)">1000</text><text class="cls-41" transform="translate(0 76.77)">0 м.</text></g><g id="days"><text class="cls-41" transform="translate(8.42 85.6)">2</text><text class="cls-41" transform="translate(28.42 85.6)">3</text><text class="cls-41" transform="translate(48.42 85.6)">4</text><text class="cls-41" transform="translate(68.42 85.6)">5</text><text class="cls-41" transform="translate(88.42 85.6)">6</text><text class="cls-41" transform="translate(108.42 85.6)">7</text><text class="cls-41" transform="translate(128.42 85.6)">8</text><text class="cls-41" transform="translate(148.42 85.6)">9</text><text class="cls-41" transform="translate(168.42 85.6)">10</text><text class="cls-41" transform="translate(188.42 85.6)">11</text><text class="cls-41" transform="translate(208.42 85.6)">12</text><text class="cls-41" transform="translate(228.42 85.6)">13</text><text class="cls-41" transform="translate(248.42 85.6)">14</text><text class="cls-41" transform="translate(268.42 85.6)">15</text><text class="cls-41" transform="translate(288.42 85.6)">16</text><text class="cls-41" transform="translate(308.42 85.6)">17</text></g><g id="icons"><path id="jeep" class="Graphic-Style-3" d="M26.28 48.53L18 50.15a1.44 1.44 0 0 0-1.14 1.69l.28 1.45-1.17.23.47 2.4 1.17-.23.58 2.93-.65.13a.66.66 0 0 0-.51.79l.95 5a.6.6 0 0 0 .38.46l2.62-.51a.63.63 0 0 0 .18-.58l-.41-2.13 1.39-.27a.9.9 0 0 0 1.06.62l2.8-.55a.91.91 0 0 0 .76-1l1.37-.27.42 2.14a.7.7 0 0 0 .41.5l2.58-.5a.66.66 0 0 0 .2-.62l-1-5a.68.68 0 0 0-.8-.54l-.62.13-.57-2.93 1.2-.24-.46-2.4-1.21.23-.28-1.42a1.43 1.43 0 0 0-1.72-1.13zm-6 10a1.05 1.05 0 0 1-1.23-.82 1 1 0 1 1 1.23.83zm1.88-.38l-.39-2 3.13-.61.39 2zM28 56a1 1 0 1 1-1.23-.82A1 1 0 0 1 28 56zm-.92-2.78l-8.19 1.6-.61-3.15L26.5 50z"/><g id="trekking"><path class="Graphic-Style-3" d="M87.7 55.82a.74.74 0 0 1-.21 0 .57.57 0 0 1-.43-.45l-.43-2.2-.81-.48.39-1.09 1.31.76a.2.2 0 0 1 .1.16l.52 2.62a.56.56 0 0 1-.09.42.6.6 0 0 1-.35.26zM84.62 48.43a.22.22 0 0 1-.17 0 1 1 0 0 1-.21-.19 1 1 0 0 1 1.25-1.59 1 1 0 0 1 .75-.53 1 1 0 0 1 1.11.87 1 1 0 0 1-1.92.39.84.84 0 0 0-.24.14.88.88 0 0 0-.34.72.26.26 0 0 1-.14.22z"/><path class="Graphic-Style-3" d="M89.44 55.44l-1-5.47-1.07.43-.17.05a.66.66 0 0 1-.5-.16l-.25-.21-.69 2.3-1.17 3.42a.56.56 0 0 1-.48.39.54.54 0 0 1-.22 0 .55.55 0 0 1-.35-.28.54.54 0 0 1-.05-.43l1.13-3.42.11-.83a.76.76 0 0 1-.49.08.75.75 0 0 1-.5-.31.77.77 0 0 1-.14-.57l.16-1.12a.78.78 0 0 1 .88-.64.8.8 0 0 1 .42.21.82.82 0 0 1 .7-.64.79.79 0 0 1 .72.27l.66.56 1.3-.53h.16a.65.65 0 0 1 .67.4.58.58 0 0 1 0 .48.65.65 0 0 1-.35.34l-.13.05 1.08 5.58a.27.27 0 0 1-.43.05zM81 48a.9.9 0 0 1-1-.78.89.89 0 0 1 1.76-.22.89.89 0 0 1-.76 1zM83.35 50.66a.38.38 0 0 0-.29-.38L81.69 50l-.81-1.57a1.08 1.08 0 0 0-.78-.49.79.79 0 0 0-.76.46v-.28a.81.81 0 0 0 0-.22.85.85 0 0 0-.95-.75.85.85 0 0 0-.75.78l-.43 3.26v.2a.86.86 0 0 0 1 .75.9.9 0 0 0 .69-.5l-.26 2.24-1 2.18a.56.56 0 0 0 0 .28.59.59 0 0 0 .2.45.64.64 0 0 0 .47.17h.06a.62.62 0 0 0 .5-.39l1.12-2.35.09-.28.44-4v-.07l-.16-.27a.06.06 0 0 1 0-.09.07.07 0 0 1 .09 0l.63 1v.06a.6.6 0 0 0 .21.14l1.27.3-.56 1.56-.09-.07-1.33-.84-.21 1.34 1 .68.06.41-.82 2.3s0 .18.15.21a.21.21 0 0 0 .24-.1c0-.1.26-.74.55-1.55l.14 1a.56.56 0 0 0 .6.43.52.52 0 0 0 .41-.21.59.59 0 0 0 .15-.44l-.3-2.34a.74.74 0 0 0-.22-.48h-.06c.3-.84.55-1.55.61-1.73a.45.45 0 0 0 .45-.46zM164 35.05a.5.5 0 0 1-.21 0 .58.58 0 0 1-.44-.43l-.48-2.2-.82-.46.36-1.09 1.33.73h.05a.23.23 0 0 1 .11.16l.57 2.6a.51.51 0 0 1-.08.43.56.56 0 0 1-.39.26zM160.77 27.74a.25.25 0 0 1-.17 0l-.22-.19a1 1 0 0 1 1.21-1.62 1 1 0 0 1 .75-.54 1 1 0 0 1 1.12.84 1 1 0 0 1-1.9.43 1.28 1.28 0 0 0-.25.15.89.89 0 0 0-.32.72.25.25 0 0 1-.13.23z"/><path class="Graphic-Style-3" d="M165.75 34.63l-1.17-5.44-1.07.46-.16.05a.71.71 0 0 1-.51-.14l-.25-.21-.59 2.31-1 3.45a.58.58 0 0 1-.48.4.81.81 0 0 1-.22 0 .61.61 0 0 1-.36-.27.59.59 0 0 1-.05-.43l1-3.45.09-.84a.73.73 0 0 1-.48.1.74.74 0 0 1-.51-.29.81.81 0 0 1-.16-.58l.14-1.11a.78.78 0 0 1 .86-.67.73.73 0 0 1 .43.21.83.83 0 0 1 .69-.66.8.8 0 0 1 .72.25l.67.55 1.29-.56a.53.53 0 0 1 .16 0 .62.62 0 0 1 .68.38.57.57 0 0 1 0 .48.67.67 0 0 1-.35.35L165 29l1.21 5.55a.27.27 0 0 1-.46.08zM157.12 27.34a.87.87 0 0 1-1-.74.88.88 0 1 1 1.75-.26.88.88 0 0 1-.75 1zM159.56 30a.4.4 0 0 0-.3-.37l-1.39-.28-.87-1.55a1.07 1.07 0 0 0-.79-.47.79.79 0 0 0-.75.48v-.28a.81.81 0 0 0 0-.22.86.86 0 0 0-1-.73.85.85 0 0 0-.73.8l-.35 3.27v.2a.86.86 0 0 0 1 .72.88.88 0 0 0 .67-.51l-.2 2.24-1 2.21a.46.46 0 0 0 0 .28.56.56 0 0 0 .21.44.64.64 0 0 0 .47.17h.06a.61.61 0 0 0 .49-.4l1.07-2.38c0-.06 0-.15.08-.27l.34-4v-.07l-.17-.28a.07.07 0 0 1 0-.09.07.07 0 0 1 .09 0l.65 1 .05.07a.39.39 0 0 0 .2.13l1.28.27-.5 1.62-.09-.07-1.36-.81-.09 1.29 1 .66.07.41-.76 2.32s0 .18.17.21a.2.2 0 0 0 .21-.09c0-.1.25-.75.51-1.57l.16 1a.59.59 0 0 0 .62.42.53.53 0 0 0 .4-.22.62.62 0 0 0 .14-.45l-.35-2.33a.8.8 0 0 0-.23-.48h-.06l.56-1.75a.47.47 0 0 0 .45-.47zM301.34 36.5a.58.58 0 0 1-.14-.17.56.56 0 0 1 0-.61l1.35-1.8-.18-.92 1.06-.44.32 1.48a.22.22 0 0 1-.05.19l-1.6 2.13a.49.49 0 0 1-.37.21.58.58 0 0 1-.39-.07zM304.76 29.27a.27.27 0 0 1-.08-.17 1.31 1.31 0 0 1 0-.28 1 1 0 0 1 2-.14 1 1 0 0 1 .9.21 1 1 0 0 1 .09 1.4 1 1 0 0 1-1.39.07 1 1 0 0 1-.18-1.23 1.07 1.07 0 0 0-.27-.09.9.9 0 0 0-.76.23.25.25 0 0 1-.26 0z"/><path class="Graphic-Style-3" d="M302.79 37.53l3.35-4.44-1-.5a.71.71 0 0 1-.14-.1.62.62 0 0 1-.22-.47v-.33l-2.17 1-3.29 1.46a.59.59 0 0 1-.62-.1 1.07 1.07 0 0 1-.14-.16.69.69 0 0 1 0-.45.53.53 0 0 1 .3-.32l3.29-1.46.69-.48a.83.83 0 0 1-.39-.3.8.8 0 0 1-.11-.58.84.84 0 0 1 .34-.5l.93-.62a.77.77 0 0 1 1.07.22.76.76 0 0 1 .12.46.81.81 0 0 1 .95.09.8.8 0 0 1 .29.71v.86l1.27.62a.55.55 0 0 1 .14.09.64.64 0 0 1 .15.76.59.59 0 0 1-.37.32.69.69 0 0 1-.49 0l-.12-.07-3.41 4.54a.27.27 0 0 1-.42-.25zM302.68 26.24a.89.89 0 1 1 1.25-.09.89.89 0 0 1-1.25.09zM302.26 29.81a.38.38 0 0 0 .08-.46l-.69-1.23.63-1.65a1.09 1.09 0 0 0-.17-.91.78.78 0 0 0-.85-.25l.24-.17a.7.7 0 0 0 .16-.14.86.86 0 0 0-.07-1.21.86.86 0 0 0-1.09 0l-2.7 1.87a.28.28 0 0 0-.1.09v.05a.85.85 0 0 0 .07 1.2.92.92 0 0 0 .83.18l-1.83 1.3-2.33.69a.51.51 0 0 0-.24.15.59.59 0 0 0-.2.45.66.66 0 0 0 .19.46h.05a.6.6 0 0 0 .61.12l2.51-.75.26-.12 3.26-2.35v-.07l.09-.3a.06.06 0 0 1 .08 0 .06.06 0 0 1 0 .08l-.3 1.16v.08a.41.41 0 0 0 0 .24l.62 1.14-1.53.64v-.11l-.27-1.56-1 .77.15 1.18-.26.32-2.26.94s-.1.15-.05.26a.25.25 0 0 0 .21.11l1.52-.64-.65.78a.57.57 0 0 0 .08.74.5.5 0 0 0 .43.16.59.59 0 0 0 .43-.19l1.51-1.86a.69.69 0 0 0 .21-.49v-.07l1.69-.71a.47.47 0 0 0 .65 0z"/></g><g id="mountaineering"><path class="Graphic-Style-3" d="M234.67 10.83a1.06 1.06 0 0 1-1 1.11 1.07 1.07 0 0 1-.08-2.14 1.06 1.06 0 0 1 1.1 1zM231 10.65a.42.42 0 0 0-.58.11l-.42.75a2.21 2.21 0 0 0-.25.84l-.13 2.25a.46.46 0 0 0 .42.48l1 .09a.53.53 0 0 0 .54-.41l.63-2.86a.71.71 0 0 0-.28-.68zM238.65 15.63a3.48 3.48 0 0 0-.82-.29 4.34 4.34 0 0 0-.87-.12h-.25a3.57 3.57 0 0 0-.64.11 3.13 3.13 0 0 0-.84.36c-.16.13.28.67.44.55a2.5 2.5 0 0 1 .94-.46l.28 4.43a.25.25 0 0 0 .49 0l-.29-4.47a3.26 3.26 0 0 1 .7 0 3.72 3.72 0 0 1 .75.17.17.17 0 0 0 .22-.09.18.18 0 0 0-.09-.22zM236.86 14.23l-3.5-1.88h-.07a.67.67 0 0 0-.86.37.74.74 0 0 0-.15.34l-.44 2.25 1.72-.11.23-1.22L236.5 15a.43.43 0 0 0 .56-.24.44.44 0 0 0-.2-.53zM235 17.29l-1.29-1.13-1.78.11a.29.29 0 0 0 0 .16c0 .1 0 .16.19.26l2 1.37.13 2.07a.59.59 0 0 0 1.17-.08l-.15-2.34a.56.56 0 0 0-.2-.4z"/><path class="Graphic-Style-3" d="M228.18 18.94a.25.25 0 0 1-.27-.23.26.26 0 0 1 .21-.27 5 5 0 0 0 3.23-2.75.27.27 0 0 1 .21-.15l2-.12-.06.5-1.73.11a5.41 5.41 0 0 1-3.53 2.91zM232.48 17.94l-1 2.55a.53.53 0 0 1-.71.26.53.53 0 0 1-.29-.64l.91-2.58a.59.59 0 0 1 .79-.26.58.58 0 0 1 .31.65z"/></g><g id="pass"><path class="Graphic-Style-3" d="M216.09 10.88L214 15.69c.29.84 1.2 1.61 2.06 3.18h4.25z"/><path class="Graphic-Style-3" d="M212.6 16.89c-1.12-.93.1-2.46 1.12-2.83l-.69-.59-4.15 5.39h6.05a8.18 8.18 0 0 0-2.14-1.86z"/><path class="Graphic-Style-6" d="M214.71 14.06h-1l-.16.07c-1 .46-2 1.88-1 2.76l.19.15a8.18 8.18 0 0 1 2.14 1.82h1.13c-.86-1.57-1.77-2.34-2.06-3.18z"/><path class="Graphic-Style-3" d="M250.86 9.94l-2.47 5.71c.34 1 1.42 1.91 2.44 3.79h5z"/><path class="Graphic-Style-3" d="M246.72 17.08c-1.33-1.1.12-2.91 1.33-3.35l-.82-.71-4.93 6.4h7.19a9.72 9.72 0 0 0-2.49-2.16z"/><path class="Graphic-Style-6" d="M249.22 13.73h-1.17l-.19.07c-1.16.55-2.4 2.23-1.14 3.28l.23.18a9.72 9.72 0 0 1 2.54 2.16h1.34c-1-1.88-2.1-2.79-2.44-3.79z"/></g></g><path class="Graphic-Style-3" d="M264.78 14.89h12.3l-1-1.64h2.23l-4.15-6.93L273 8.27l-1.58-2.54V4h4.25l-1.78-2 1.78-2h-5.17v5.73l-1.5 2.4-1.08-1.81-4.15 6.93h2z" id="Layer_8" data-name="Layer 8"/></svg>