<svg id="chart_for_mobile" data-name="chart for mobile" xmlns="http://www.w3.org/2000/svg" xmlns:xlink="http://www.w3.org/1999/xlink" viewBox="0 0 313.42 239.01"><defs><style>.cls-1{fill:url(#linear-gradient);}.cls-2{font-size:8px;fill:#111;}.cls-2,.cls-3{font-family:Calibri, Calibri;}.cls-3{font-size:12px;fill:#7e7e7e;}.cls-4{letter-spacing:0em;}.cls-5{letter-spacing:0em;}.cls-6{letter-spacing:0em;}.cls-7{letter-spacing:0em;}.cls-8{letter-spacing:0em;}.cls-9{letter-spacing:0em;}.cls-10{letter-spacing:0em;}.cls-11{letter-spacing:0em;}.cls-12{opacity:0.5;}.cls-13{fill:#f40;}</style><linearGradient id="linear-gradient" x1="162.44" y1="19.96" x2="163.98" y2="309.4" gradientUnits="userSpaceOnUse"><stop offset="0" stop-color="#fff"/><stop offset="0.09" stop-color="#fff5f1"/><stop offset="0.27" stop-color="#ffdacc"/><stop offset="0.5" stop-color="#ffae91"/><stop offset="0.79" stop-color="#ff7340"/><stop offset="1" stop-color="#f40"/></linearGradient></defs><title>everest-altitude-chart-small</title><path id="aria" class="cls-1" d="M295.52,225l.15-51.93c0-9.58-2-18.46-5.29-23.46l-13.11-20a15.61,15.61,0,0,0-1.08-1.45l-5.11-17.08c-1.19-4-3.23-5.69-5.14-4.35l-5.08,3.57c-2-2.29-3.61-6-4.74-10.57L244,50.2c-2.87-11.7-8.77-16.35-13.82-10.89l-9.6,10.36a8.55,8.55,0,0,1-1,.93L205.42,62c-2.73,2.21-5.7,1.67-8.28-1.49l-9.55-11.72c-3.34-4.1-7.29-3.73-10.49,1L168.78,62c-3.37,4.94-7.54,5.08-11,.37L149.56,51c-3.2-4.42-7.07-4.59-10.34-.48L126.36,66.69a10,10,0,0,1-1.68,1.7L106.62,82.53,89.75,93.41A12,12,0,0,0,86,97.77L80.49,99c-2.57.58-4.9,4.06-6.31,9.45l-5.35,20.37-15.42,27.9c-2.23,4.05-5,5.87-7.75,5.08L31,157.65l.07,68"/><text class="cls-2" transform="translate(6.08 226.17)">0 м.</text><text class="cls-2" transform="translate(4.4 196.23)">2000</text><text class="cls-2" transform="translate(4.4 151.23)">3000</text><text class="cls-2" transform="translate(4.4 106.29)">4000</text><text class="cls-2" transform="translate(4.4 61.29)">5000</text><text class="cls-2" transform="translate(4.4 16.35)">6000</text><text class="cls-3" transform="translate(82.78 109.64)"><tspan class="cls-4">Н</tspan><tspan class="cls-5" x="7.44" y="0">а</tspan><tspan class="cls-6" x="13.2" y="0">м</tspan><tspan class="cls-7" x="21.28" y="0">ч</tspan><tspan class="cls-8" x="26.89" y="0">е Ба</tspan><tspan class="cls-9" x="47.92" y="0">з</tspan><tspan class="cls-5" x="52.97" y="0">а</tspan><tspan x="58.73" y="0">р</tspan></text><text class="cls-3" transform="translate(100.36 32.15)"><tspan class="cls-10">Г</tspan><tspan class="cls-9" x="5.14" y="0">о</tspan><tspan class="cls-11" x="11.45" y="0">к</tspan><tspan x="17.04" y="0">и</tspan><tspan class="cls-9" x="23.53" y="0">о</tspan><tspan class="cls-10" x="29.83" y="0"> Р</tspan><tspan x="38.72" y="0">и</tspan></text><text class="cls-3" transform="translate(169.33 32.16)"><tspan class="cls-10">Ч</tspan><tspan x="6.66" y="0">о</tspan><tspan class="cls-5" x="12.98" y="0"> Л</tspan><tspan x="23.05" y="0">а</tspan></text><text class="cls-3" transform="translate(211.82 22.24)">Кала Патар</text><g class="cls-12"><path class="cls-13" d="M136.21,58.53a.52.52,0,0,0,.07-.56h0a.49.49,0,0,0-.28-.21l-2.24-1.17a.37.37,0,0,0-.14,0A1.18,1.18,0,0,0,132,56a1.13,1.13,0,0,0-.45.36.39.39,0,0,0-.3,0s-2.46,1.26-2.5,1.33a.56.56,0,0,0,.29.72l1.78,1.15.18.08c0,.45-.12,1.3-.14,1.65a11.06,11.06,0,0,1-.23,1.42s-1.57-.28-1.63-.28a.79.79,0,0,0-.83.4l-1.93,3.34a.56.56,0,0,0,.1.76h0a.55.55,0,0,0,.74-.23l1.57-2.29L129,68a.56.56,0,0,0,.53.56.55.55,0,0,0,.47-.61S130,64,130,64l2.24.65a.83.83,0,0,0,1-.57,3.78,3.78,0,0,0,.1-.42s.26-1.1.39-2c0-.31.09-1,.13-1.46L134,60,136,58.76A1.09,1.09,0,0,0,136.21,58.53Zm-2.7.3a.83.83,0,0,0-.49-.21l-.94-.11a1,1,0,0,0-.51.1l-.12-.08-1.27-.65,1.18-.71a1.19,1.19,0,0,0,2.29.31l1.1.72Z"/></g><path class="cls-13" d="M136.21,58.53a.52.52,0,0,0,.07-.56h0a.49.49,0,0,0-.28-.21l-2.24-1.17a.37.37,0,0,0-.14,0A1.18,1.18,0,0,0,132,56a1.13,1.13,0,0,0-.45.36.39.39,0,0,0-.3,0s-2.46,1.26-2.5,1.33a.56.56,0,0,0,.29.72l1.78,1.15.18.08c0,.45-.12,1.3-.14,1.65a11.06,11.06,0,0,1-.23,1.42s-1.57-.28-1.63-.28a.79.79,0,0,0-.83.4l-1.93,3.34a.56.56,0,0,0,.1.76h0a.55.55,0,0,0,.74-.23l1.57-2.29L129,68a.56.56,0,0,0,.53.56.55.55,0,0,0,.47-.61S130,64,130,64l2.24.65a.83.83,0,0,0,1-.57,3.78,3.78,0,0,0,.1-.42s.26-1.1.39-2c0-.31.09-1,.13-1.46L134,60,136,58.76A1.09,1.09,0,0,0,136.21,58.53Zm-2.7.3a.83.83,0,0,0-.49-.21l-.94-.11a1,1,0,0,0-.51.1l-.12-.08-1.27-.65,1.18-.71a1.19,1.19,0,0,0,2.29.31l1.1.72Z"/><g class="cls-12"><path class="cls-13" d="M79.66,100.62a.54.54,0,0,0,.07-.57h0a.45.45,0,0,0-.28-.2l-2.24-1.17a.34.34,0,0,0-.14-.05,1.19,1.19,0,0,0-1.58-.57,1.15,1.15,0,0,0-.45.37.35.35,0,0,0-.3,0s-2.46,1.26-2.5,1.33a.56.56,0,0,0,.29.72l1.78,1.14a1.51,1.51,0,0,0,.18.09c0,.45-.12,1.3-.14,1.65a9.77,9.77,0,0,1-.23,1.42s-1.57-.28-1.63-.28a.8.8,0,0,0-.83.39l-1.93,3.34a.56.56,0,0,0,.11.77h0a.56.56,0,0,0,.73-.23l1.57-2.29.34,3.58a.58.58,0,0,0,.54.57.55.55,0,0,0,.46-.62s-.07-3.93-.08-4l2.24.64a.81.81,0,0,0,1-.56s.09-.32.1-.43.26-1.1.39-2c0-.3.09-1,.13-1.46a1,1,0,0,0,.21-.1l1.94-1.25A1.31,1.31,0,0,0,79.66,100.62Zm-2.7.29a.9.9,0,0,0-.49-.21l-.94-.1a.91.91,0,0,0-.51.09l-.12-.08L73.63,100l1.18-.7a1.19,1.19,0,0,0,2.29.31l1.1.71Z"/></g><path class="cls-13" d="M79.66,100.62a.54.54,0,0,0,.07-.57h0a.45.45,0,0,0-.28-.2l-2.24-1.17a.34.34,0,0,0-.14-.05,1.19,1.19,0,0,0-1.58-.57,1.15,1.15,0,0,0-.45.37.35.35,0,0,0-.3,0s-2.46,1.26-2.5,1.33a.56.56,0,0,0,.29.72l1.78,1.14a1.51,1.51,0,0,0,.18.09c0,.45-.12,1.3-.14,1.65a9.77,9.77,0,0,1-.23,1.42s-1.57-.28-1.63-.28a.8.8,0,0,0-.83.39l-1.93,3.34a.56.56,0,0,0,.11.77h0a.56.56,0,0,0,.73-.23l1.57-2.29.34,3.58a.58.58,0,0,0,.54.57.55.55,0,0,0,.46-.62s-.07-3.93-.08-4l2.24.64a.81.81,0,0,0,1-.56s.09-.32.1-.43.26-1.1.39-2c0-.3.09-1,.13-1.46a1,1,0,0,0,.21-.1l1.94-1.25A1.31,1.31,0,0,0,79.66,100.62Zm-2.7.29a.9.9,0,0,0-.49-.21l-.94-.1a.91.91,0,0,0-.51.09l-.12-.08L73.63,100l1.18-.7a1.19,1.19,0,0,0,2.29.31l1.1.71Z"/><path class="cls-13" d="M38,168.56h0a5.9,5.9,0,0,0-2.1-.84,6.19,6.19,0,0,1-1.39-.58h0l-.26-.15a6.76,6.76,0,0,1-1-.95,3,3,0,0,0-1.51-.46c-.68-.11-1.62-.16-2.82-.25h0a14.33,14.33,0,0,0-1.71-.45h0l-.49-.93h0l.25,0h0l0-.24h0a6.46,6.46,0,0,0,.93-.26c.45-.17.18-.25-.09-.42a4.05,4.05,0,0,0-.68-.33h0l-.13-.11h0c.05-.2,0-.26-.14-.34h0a1.34,1.34,0,0,0-.92-.1h0l-.31-.08h0l-2-3.82c-.14-.26-.36-.74-.64-.8-.67-.12-2,0-3.13-.12a.33.33,0,0,0-.36.3h0a.31.31,0,0,0,0,.1c.49,2.25,1.32,5,1.11,5h0l-.39.3h0l.44,1.65a0,0,0,0,1,0,0h0l-1.83-.17a1.22,1.22,0,0,0-.33,0h0l-.69,0h0l-3.79-1c-.48-.14-.48-.37-.48-.39h0l-.76-2.19h0a.44.44,0,0,0-.3-.39,7.27,7.27,0,0,0-1.42-.16.37.37,0,0,0-.37.22h0l-.79,3a1.55,1.55,0,0,1-.6.88c-.46.3.27.5.31.51h0l.1.11h0L8.5,166.59a.32.32,0,0,0,.06.45.27.27,0,0,0,.12.06l1.75.4a.33.33,0,0,0,.3-.09l1.15-1.14h0l.1,0h0l1.89.56h0l.52-.07h0c.09,0,3.9,1.16,4.29,1.24h0c.34,0,.9.07,1.57.14h0l-.81,1.55h0l.31.37h0c.22,0-1.21,2.54-2.18,4.62a.32.32,0,0,0,.16.44l.09,0c1.13.17,2.4.54,3.08.57.29,0,.61-.41.8-.63l3.13-3.67h0a5.84,5.84,0,0,0,2.12.22h0l.47-.07h0l0-.24h0a6.16,6.16,0,0,0,.93-.27c.45-.16.19-.25-.08-.42a4.5,4.5,0,0,0-.68-.32h0l-.13-.12h0c0-.19-.05-.25-.14-.34h0a1.37,1.37,0,0,0-.92-.11h0l-.12,0h0l.56-.65h0a4.8,4.8,0,0,1,1.5-.11h0l8.5.87h0a10.2,10.2,0,0,0,1.11,0h0C39.35,169.5,38,168.59,38,168.56Zm-18.63-2.91a.17.17,0,0,1-.2.15l-.45-.05a.18.18,0,0,1-.16-.2l0-.34a.19.19,0,0,1,.2-.16l.46,0a.18.18,0,0,1,.16.2Zm1.59.2a.18.18,0,0,1-.2.16l-.45,0a.18.18,0,0,1-.16-.2l0-.34a.18.18,0,0,1,.2-.16l.45.05a.18.18,0,0,1,.16.2Zm1.46.14a.18.18,0,0,1-.2.16l-.46-.06a.18.18,0,0,1-.15-.19l0-.35a.18.18,0,0,1,.19-.16l.46.05a.18.18,0,0,1,.16.2Zm1.34.15a.18.18,0,0,1-.2.16l-.45-.05a.19.19,0,0,1-.16-.2l0-.35a.18.18,0,0,1,.2-.16l.45.05a.18.18,0,0,1,.16.2Zm1.85.17a.18.18,0,0,1-.2.16l-.45-.05a.18.18,0,0,1-.16-.2l0-.34a.18.18,0,0,1,.2-.16l.45.05a.18.18,0,0,1,.16.2Zm1.15.13a.19.19,0,0,1-.2.16l-.46,0a.19.19,0,0,1-.16-.2l0-.34a.18.18,0,0,1,.2-.16l.45.05a.17.17,0,0,1,.16.2Zm1.88.13a.18.18,0,0,1-.2.16l-.45,0a.18.18,0,0,1-.16-.2l0-.35a.18.18,0,0,1,.2-.16l.45.05a.18.18,0,0,1,.16.2Zm1.4.15a.18.18,0,0,1-.2.16l-.45,0a.18.18,0,0,1-.16-.2l0-.34a.18.18,0,0,1,.2-.16l.45.05a.18.18,0,0,1,.16.2Zm1,.12a.18.18,0,0,1-.2.16l-.45-.05a.18.18,0,0,1-.16-.2l0-.35a.19.19,0,0,1,.2-.16l.45.06a.18.18,0,0,1,.16.19Zm2,.52c-.56-.07-.68,0-.67-.32s.06-.72.06-.72a.22.22,0,0,1,.19-.18l.5-.06h0l0,0a3.62,3.62,0,0,0,1,.93l.1.06v0h0l-.15.05a1.68,1.68,0,0,1-1.08.18Z"/><path class="cls-13" d="M9.75,163.51c0-.1.53-2,.57-2.16H9.25a.31.31,0,0,0-.31.31.5.5,0,0,0,0,.13Z"/><path class="cls-13" d="M310.17,156.86h0s-.36-.24-2.24-.33a5.68,5.68,0,0,1-1.48-.23h0l-.28-.09a6.38,6.38,0,0,1-1.23-.68,3,3,0,0,0-1.57-.09c-.69.06-1.61.24-2.8.42h0a14.93,14.93,0,0,0-1.77,0h0l-.69-.79h0l.23-.09h0l0-.24h0a7,7,0,0,0,.84-.48c.4-.27.13-.29-.18-.39a4,4,0,0,0-.74-.15h0l-.16-.08h0c0-.2-.11-.24-.22-.3h0a1.34,1.34,0,0,0-.92.12h-.33l-2.87-3.23c-.19-.22-.51-.64-.8-.62-.68,0-2,.43-3.07.62a.34.34,0,0,0-.28.38h0l0,.09c1,2.07,2.48,4.58,2.27,4.58h0l-.31.38h0l.82,1.5h0l-1.82.27a1.83,1.83,0,0,0-.32.07h0l-.66.2h0l-3.92-.09c-.49,0-.55-.25-.56-.27h0l-1.26-1.95h0a.43.43,0,0,0-.38-.31,7.06,7.06,0,0,0-1.42.19.34.34,0,0,0-.3.29h0l-.06,3.09a1.54,1.54,0,0,1-.37,1c-.38.41.37.43.42.43h0l.13.09h0l-.79,1.82a.32.32,0,0,0,.17.42l.13,0,1.8,0a.28.28,0,0,0,.26-.15l.85-1.38h.11l2,.1h0l.49-.19h0c.1,0,4.07.2,4.46.19h0c.33-.08.89-.14,1.56-.23h0l-.43,1.7h0l.39.29h0c.21-.06-.57,2.74-1,5a.34.34,0,0,0,.26.39h.1c1.14-.1,2.46,0,3.13-.18.28-.06.49-.55.62-.81l2.18-4.31h0a5.89,5.89,0,0,0,2.1-.29h0l.45-.18h0v-.24h0a7.12,7.12,0,0,0,.85-.48c.4-.27.12-.29-.19-.39a3.91,3.91,0,0,0-.73-.15h0l-.15-.08h0c0-.2-.1-.23-.22-.3h0a1.33,1.33,0,0,0-.91.11h-.15l.39-.77h0a5.62,5.62,0,0,1,1.42-.47h0l8.47-1.17h0a7.86,7.86,0,0,0,1.08-.26h0C311.7,157.44,310.21,156.87,310.17,156.86Zm-18.79,1.58a.18.18,0,0,1-.16.2l-.45.06a.18.18,0,0,1-.2-.16l-.05-.34a.18.18,0,0,1,.16-.2l.45-.06a.18.18,0,0,1,.2.15Zm1.59-.18a.18.18,0,0,1-.15.2l-.46.06a.17.17,0,0,1-.2-.15l0-.35a.17.17,0,0,1,.15-.2l.45-.06a.2.2,0,0,1,.21.16Zm1.45-.21a.18.18,0,0,1-.16.2l-.45.06a.18.18,0,0,1-.2-.16l0-.34a.18.18,0,0,1,.15-.21l.45,0a.18.18,0,0,1,.21.15Zm1.34-.18a.2.2,0,0,1-.16.21l-.45,0a.17.17,0,0,1-.2-.15l0-.35a.17.17,0,0,1,.15-.2l.45-.06a.2.2,0,0,1,.21.16Zm1.84-.26a.18.18,0,0,1-.16.2l-.45.06a.18.18,0,0,1-.2-.16l-.05-.34a.18.18,0,0,1,.16-.2l.45-.06a.18.18,0,0,1,.21.15Zm1.14-.15a.17.17,0,0,1-.15.2l-.45.06a.2.2,0,0,1-.21-.16l0-.34a.18.18,0,0,1,.15-.2l.46-.06a.19.19,0,0,1,.2.16Zm1.86-.32a.17.17,0,0,1-.15.2l-.45.06a.2.2,0,0,1-.21-.16l0-.34a.2.2,0,0,1,.15-.21l.46-.05a.17.17,0,0,1,.2.15ZM302,157a.18.18,0,0,1-.16.2l-.45.06a.18.18,0,0,1-.2-.16l-.05-.34a.2.2,0,0,1,.16-.21l.45-.06a.18.18,0,0,1,.2.16Zm1-.14a.2.2,0,0,1-.15.21l-.46.05a.17.17,0,0,1-.2-.15l0-.35a.17.17,0,0,1,.15-.2l.45-.06a.2.2,0,0,1,.21.16Zm2.05,0c-.57.07-.68.12-.73-.16s-.11-.71-.11-.71a.19.19,0,0,1,.13-.21l.48-.18h0l0,0a3.44,3.44,0,0,0,1.21.67l.12,0h0l-.14.09a1.73,1.73,0,0,1-1,.43Z"/><path class="cls-13" d="M281.53,158.65c0-.11,0-2.07,0-2.24l-1,.26a.31.31,0,0,0-.22.37.61.61,0,0,0,.05.12Z"/><path class="cls-13" d="M62,153.31a.75.75,0,0,1-.26-.05.69.69,0,0,1-.46-.61l-.2-2.78-.93-.72.64-1.28L62.32,149l0,0,0,0a.29.29,0,0,1,.11.21l.23,3.31a.65.65,0,0,1-.17.51A.76.76,0,0,1,62,153.31Zm-2.68-9.59a.32.32,0,0,1-.21-.08,1.49,1.49,0,0,1-.23-.27,1.28,1.28,0,0,1,1.78-1.77,1.21,1.21,0,0,1,1-.55,1.26,1.26,0,0,1,1.23,1.25,1.22,1.22,0,0,1-2.42.19,1,1,0,0,0-.32.13,1.12,1.12,0,0,0-.53.83.3.3,0,0,1-.21.26A.17.17,0,0,1,59.34,143.72Z"/><path class="cls-13" d="M64.54,153.56a.31.31,0,0,1-.3-.28l-.48-7.09-1.39.37a.83.83,0,0,1-.22,0,.79.79,0,0,1-.59-.26l-.27-.3-1.21,2.73-1.89,4.06a.73.73,0,0,1-.66.41,1.26,1.26,0,0,1-.27,0,.76.76,0,0,1-.39-.4.68.68,0,0,1,0-.54l1.9-4.06.27-1a.94.94,0,0,1-.62,0,1,1,0,0,1-.66-1.19l.37-1.35a1,1,0,0,1,1.18-.66.92.92,0,0,1,.49.33l0,0a1.06,1.06,0,0,1,1-.69,1,1,0,0,1,.85.44l.05,0,.72.8,1.69-.46.2,0a.79.79,0,0,1,.77.59.68.68,0,0,1-.09.59.8.8,0,0,1-.48.37l-.16,0,.49,7.21a.3.3,0,0,1-.26.33h0Zm-9.62-11a1.11,1.11,0,1,1,1.1-1.11h0A1.11,1.11,0,0,1,54.92,142.58Zm2.51,3.7a.47.47,0,0,0-.3-.51l-1.65-.59-.76-2.06a1.32,1.32,0,0,0-.89-.72,1,1,0,0,0-1,.46c.06-.22.09-.35.09-.35a1.09,1.09,0,0,0,0-.26,1.07,1.07,0,0,0-1.06-1.08h0a1.06,1.06,0,0,0-1.05.85l-1,4a1,1,0,0,0,0,.17v.08a1.08,1.08,0,0,0,1.06,1.07h0a1.13,1.13,0,0,0,.93-.51l-.66,2.72-1.62,2.54a.6.6,0,0,0-.11.34.76.76,0,0,0,.18.58.81.81,0,0,0,.56.29h.07a.75.75,0,0,0,.67-.4l1.75-2.74c0-.08.08-.18.15-.32l1.14-4.88,0-.09-.16-.35a.08.08,0,0,1,.15-.07h0l.62,1.35,0,.08a.55.55,0,0,0,.23.2l1.53.57-.93,1.85-.09-.1-1.53-1.25-.35,1.58,1.11,1v.52l-1.35,2.72v0s0,.23.16.29a.27.27,0,0,0,.28-.08l0,0,.9-1.84,0,1.26a.73.73,0,0,0,.68.64.71.71,0,0,0,.54-.2.78.78,0,0,0,.25-.53v-2.93a1,1,0,0,0-.2-.63l-.07-.07c.5-1,.91-1.83,1-2h0a.56.56,0,0,0,.63-.5Z"/><path class="cls-13" d="M107.46,88.48a.75.75,0,0,1-.26,0,.7.7,0,0,1-.47-.61L106.54,85l-.93-.71.64-1.29,1.51,1.14,0,0h0a.29.29,0,0,1,.1.22l.24,3.3a.66.66,0,0,1-.17.51A.73.73,0,0,1,107.46,88.48Zm-2.69-9.59a.3.3,0,0,1-.2-.08,1.49,1.49,0,0,1-.23-.28,1.28,1.28,0,0,1,.4-1.77,1.3,1.3,0,0,1,1.38,0,1.2,1.2,0,0,1,1-.54,1.24,1.24,0,0,1,1.23,1.24,1.22,1.22,0,0,1-2.42.19,1.3,1.3,0,0,0-.32.14,1.09,1.09,0,0,0-.53.83.33.33,0,0,1-.21.26Z"/><path class="cls-13" d="M110,88.73a.31.31,0,0,1-.3-.29l-.48-7.08-1.39.37-.22,0a.81.81,0,0,1-.59-.26l-.28-.3-1.2,2.73L103.63,88a.73.73,0,0,1-.66.41.86.86,0,0,1-.27-.05.71.71,0,0,1-.39-.39.68.68,0,0,1,0-.54l1.9-4.06.27-1a1.09,1.09,0,0,1-.62,0,1,1,0,0,1-.57-.46.94.94,0,0,1-.09-.73l.37-1.35a1,1,0,0,1,1.18-.66,1,1,0,0,1,.49.32l0,0a1,1,0,0,1,1-.69,1,1,0,0,1,.85.44l0,0,.73.8,1.69-.46.2,0a.8.8,0,0,1,.77.6.72.72,0,0,1-.09.59.83.83,0,0,1-.49.37l-.16,0,.5,7.2a.3.3,0,0,1-.26.34h0Zm-9.62-11a1.1,1.1,0,1,1,1.1-1.1h0A1.1,1.1,0,0,1,100.36,77.74Zm2.51,3.71a.47.47,0,0,0-.3-.51l-1.65-.59-.76-2.06a1.32,1.32,0,0,0-.89-.72,1,1,0,0,0-1,.45c.06-.21.09-.34.09-.34a1.24,1.24,0,0,0,0-.27,1.07,1.07,0,0,0-1-1.08h0a1.07,1.07,0,0,0-1,.86l-1,4a1,1,0,0,0,0,.16v.09a1.08,1.08,0,0,0,1.06,1.07h0a1.13,1.13,0,0,0,.92-.51l-.65,2.72L95,87.22a.6.6,0,0,0-.11.34.73.73,0,0,0,.18.58.8.8,0,0,0,.55.28h.08a.74.74,0,0,0,.67-.39l1.75-2.74.14-.33,1.15-4.87,0-.09-.16-.35a.08.08,0,0,1,0-.11.07.07,0,0,1,.1,0h0l.63,1.35,0,.08a.45.45,0,0,0,.23.2l1.52.56-.92,1.86-.1-.1-1.52-1.25-.35,1.57,1.11,1v.52L98.6,88.08v0s0,.23.17.29a.27.27,0,0,0,.28-.08l0,0,.9-1.84,0,1.26a.71.71,0,0,0,.68.63.67.67,0,0,0,.54-.19.78.78,0,0,0,.25-.53V84.69a1,1,0,0,0-.2-.63l-.07-.07c.49-1,.91-1.83,1-2h0a.57.57,0,0,0,.63-.5Z"/><path class="cls-13" d="M167.4,80a.84.84,0,0,1-.27,0,.72.72,0,0,1-.46-.62l-.2-2.78-.92-.72.64-1.28,1.5,1.14.05,0v0a.26.26,0,0,1,.11.21l.24,3.31a.7.7,0,0,1-.7.74Zm-2.69-9.58a.29.29,0,0,1-.21-.09,2,2,0,0,1-.23-.27,1.27,1.27,0,0,1,.41-1.77,1.26,1.26,0,0,1,1.37,0,1.22,1.22,0,0,1,1-.54A1.24,1.24,0,0,1,168.29,69a1.22,1.22,0,0,1-2.42.19,1.27,1.27,0,0,0-.32.13,1.12,1.12,0,0,0-.53.84.29.29,0,0,1-.2.25A.22.22,0,0,1,164.71,70.44Z"/><path class="cls-13" d="M169.92,80.27a.31.31,0,0,1-.31-.28l-.48-7.09-1.39.38a1.46,1.46,0,0,1-.22,0,.8.8,0,0,1-.59-.27l-.27-.29-1.2,2.73-1.9,4a.7.7,0,0,1-.66.41.75.75,0,0,1-.26,0,.78.78,0,0,1-.4-.4.72.72,0,0,1,0-.54l1.91-4,.26-1a1,1,0,0,1-.62,0,1,1,0,0,1-.57-.46,1,1,0,0,1-.09-.74l.37-1.34a1,1,0,0,1,1.18-.67.94.94,0,0,1,.49.33l0,0a1,1,0,0,1,1.81-.25l0,0,.72.79,1.7-.45a.64.64,0,0,1,.2,0,.78.78,0,0,1,.76.59.71.71,0,0,1-.09.6.84.84,0,0,1-.48.37l-.16,0,.5,7.2a.31.31,0,0,1-.27.33h0Zm-9.63-11a1.1,1.1,0,1,1,1.1-1.1h0A1.1,1.1,0,0,1,160.29,69.29ZM162.81,73a.5.5,0,0,0-.3-.51l-1.66-.59-.75-2.06a1.33,1.33,0,0,0-.9-.72,1,1,0,0,0-1,.45l.08-.34a.84.84,0,0,0,0-.27,1.07,1.07,0,0,0-1.06-1.08h0a1.07,1.07,0,0,0-1.05.85l-1,4a.44.44,0,0,0,0,.16v.08A1.06,1.06,0,0,0,156.22,74h0a1.09,1.09,0,0,0,.93-.51l-.66,2.72-1.62,2.55a.48.48,0,0,0-.1.33.7.7,0,0,0,.18.59.82.82,0,0,0,.55.28h.08a.74.74,0,0,0,.66-.4L158,76.83c0-.07.08-.17.15-.32l1.14-4.87,0-.09-.15-.35a.08.08,0,0,1,0-.11.08.08,0,0,1,.11,0h0l.62,1.34,0,.09a.47.47,0,0,0,.22.2l1.53.56-.93,1.85-.09-.1-1.53-1.24-.35,1.57,1.11,1v.51l-1.35,2.73h0s0,.23.16.29a.29.29,0,0,0,.28-.07l0,0c.06-.12.43-.88.91-1.83l0,1.26a.71.71,0,0,0,.68.63.69.69,0,0,0,.54-.2.79.79,0,0,0,.24-.53V76.24a1,1,0,0,0-.2-.63l-.06-.07c.49-1,.9-1.84,1-2.05h0a.57.57,0,0,0,.64-.5Z"/><path class="cls-13" d="M208,74.53a.75.75,0,0,1-.26,0,.73.73,0,0,1-.47-.62l-.19-2.78-.93-.72.64-1.28,1.51,1.14,0,0,0,0a.28.28,0,0,1,.1.21l.24,3.31a.65.65,0,0,1-.18.51A.68.68,0,0,1,208,74.53ZM205.34,65a.37.37,0,0,1-.2-.09,1.18,1.18,0,0,1-.23-.27,1.29,1.29,0,0,1,1.78-1.77,1.2,1.2,0,0,1,1-.54,1.25,1.25,0,0,1,1.23,1.24,1.22,1.22,0,0,1-2.42.19,1.27,1.27,0,0,0-.32.13,1.09,1.09,0,0,0-.53.84.33.33,0,0,1-.21.25A.2.2,0,0,1,205.34,65Z"/><path class="cls-13" d="M210.55,74.78a.3.3,0,0,1-.3-.28l-.48-7.09-1.39.38-.22,0a.82.82,0,0,1-.59-.27l-.28-.29L206.09,70,204.2,74a.7.7,0,0,1-.66.41.84.84,0,0,1-.27,0,.73.73,0,0,1-.39-.4.68.68,0,0,1,0-.54l1.9-4.06.27-1a.94.94,0,0,1-.62,0,.92.92,0,0,1-.57-.45,1,1,0,0,1-.09-.74l.37-1.35a1,1,0,0,1,1.18-.66,1,1,0,0,1,.49.33l0,0a1,1,0,0,1,1-.69,1,1,0,0,1,.85.44l0,0,.73.79,1.69-.45a.69.69,0,0,1,.2,0,.79.79,0,0,1,.77.59.75.75,0,0,1-.09.6.83.83,0,0,1-.49.37l-.16,0,.5,7.2a.3.3,0,0,1-.26.33h0Zm-9.62-11a1.11,1.11,0,1,1,1.1-1.1h0A1.1,1.1,0,0,1,200.93,63.8Zm2.51,3.7a.5.5,0,0,0-.3-.51l-1.65-.59-.76-2.05a1.29,1.29,0,0,0-.89-.72,1,1,0,0,0-1,.45c.06-.21.09-.34.09-.35a1.09,1.09,0,0,0,0-.26,1.06,1.06,0,0,0-1-1.08h0a1.07,1.07,0,0,0-1,.85l-1,4a.88.88,0,0,0,0,.16v.08a1.06,1.06,0,0,0,1.06,1.07h0a1.09,1.09,0,0,0,.92-.51l-.65,2.72-1.62,2.54a.6.6,0,0,0-.11.34.75.75,0,0,0,.18.59.84.84,0,0,0,.55.28h.08a.75.75,0,0,0,.67-.4l1.74-2.74a2.55,2.55,0,0,0,.15-.32l1.15-4.87,0-.1-.16-.34a.08.08,0,0,1,0-.11.07.07,0,0,1,.1,0h0l.63,1.34,0,.09a.57.57,0,0,0,.23.2l1.52.56-.92,1.85-.1-.1-1.52-1.24-.35,1.57,1.11,1v.51l-1.36,2.72v0a.36.36,0,0,0,.17.29.29.29,0,0,0,.28-.07l0,0,.9-1.84,0,1.27a.72.72,0,0,0,.68.63.68.68,0,0,0,.54-.2.78.78,0,0,0,.25-.53V70.75a.93.93,0,0,0-.2-.63l-.07-.07,1-2h.05a.58.58,0,0,0,.63-.5Z"/><path class="cls-13" d="M277.42,131.89a.75.75,0,0,1-.26,0,.73.73,0,0,1-.47-.62l-.19-2.78-.93-.72.64-1.28,1.51,1.14,0,0,0,0a.28.28,0,0,1,.1.21l.24,3.31a.65.65,0,0,1-.18.51A.68.68,0,0,1,277.42,131.89Zm-2.69-9.58a.37.37,0,0,1-.2-.09,1.18,1.18,0,0,1-.23-.27,1.29,1.29,0,0,1,1.78-1.77,1.2,1.2,0,0,1,1-.54,1.25,1.25,0,0,1,1.23,1.24,1.22,1.22,0,0,1-2.42.19,1.27,1.27,0,0,0-.32.13,1.09,1.09,0,0,0-.53.84.33.33,0,0,1-.21.25A.2.2,0,0,1,274.73,122.31Z"/><path class="cls-13" d="M279.94,132.14a.3.3,0,0,1-.3-.28l-.48-7.09-1.4.38-.21,0a.82.82,0,0,1-.59-.27l-.28-.29-1.2,2.72-1.89,4.06a.7.7,0,0,1-.66.41.84.84,0,0,1-.27,0,.73.73,0,0,1-.39-.4.68.68,0,0,1,0-.54l1.9-4.06.27-1a.94.94,0,0,1-.62,0,.92.92,0,0,1-.57-.45,1,1,0,0,1-.09-.74l.37-1.35a1,1,0,0,1,1.18-.66,1,1,0,0,1,.49.33l0,0a1,1,0,0,1,1-.69,1,1,0,0,1,.85.44l0,0,.73.79,1.69-.45a.69.69,0,0,1,.2,0,.79.79,0,0,1,.77.59.75.75,0,0,1-.09.6.83.83,0,0,1-.49.37l-.16,0,.5,7.2a.3.3,0,0,1-.26.33h0Zm-9.62-11a1.11,1.11,0,1,1,1.1-1.1h0A1.1,1.1,0,0,1,270.32,121.16Zm2.51,3.7a.5.5,0,0,0-.3-.51l-1.65-.59-.76-2.05a1.29,1.29,0,0,0-.9-.72,1,1,0,0,0-1,.45c.06-.21.09-.34.09-.35a1.09,1.09,0,0,0,0-.26,1.06,1.06,0,0,0-1-1.08h0a1.07,1.07,0,0,0-1,.85l-1,4a.88.88,0,0,0,0,.16v.08a1.06,1.06,0,0,0,1.06,1.07h0a1.09,1.09,0,0,0,.92-.51l-.65,2.72-1.63,2.54a.67.67,0,0,0-.1.34.75.75,0,0,0,.18.59.84.84,0,0,0,.55.28h.08a.75.75,0,0,0,.67-.4L268,128.7a2.55,2.55,0,0,0,.15-.32l1.15-4.87,0-.1-.16-.34a.08.08,0,0,1,0-.11.07.07,0,0,1,.1,0h0l.63,1.34,0,.09a.57.57,0,0,0,.23.2l1.52.56-.92,1.85-.1-.1-1.52-1.24-.35,1.57,1.11,1v.51l-1.35,2.72v0a.36.36,0,0,0,.17.29.29.29,0,0,0,.28-.07l0,0,.9-1.84,0,1.27a.72.72,0,0,0,.68.63.68.68,0,0,0,.54-.2.78.78,0,0,0,.25-.53l0-2.92a.88.88,0,0,0-.19-.63l-.07-.07,1-2h.05a.58.58,0,0,0,.63-.5Z"/><path class="cls-13" d="M248.67,81.88a.84.84,0,0,1-.27,0,.72.72,0,0,1-.46-.62l-.2-2.78-.92-.72.64-1.28,1.5,1.14,0,0v0a.26.26,0,0,1,.11.21l.24,3.31a.7.7,0,0,1-.7.74ZM246,72.3a.33.33,0,0,1-.21-.09,2,2,0,0,1-.23-.27,1.28,1.28,0,0,1,.41-1.77,1.26,1.26,0,0,1,1.37,0,1.22,1.22,0,0,1,1-.54,1.24,1.24,0,0,1,1.23,1.24,1.22,1.22,0,0,1-1.23,1.2,1.23,1.23,0,0,1-1.19-1,1.27,1.27,0,0,0-.32.13,1.12,1.12,0,0,0-.53.84.29.29,0,0,1-.2.25A.22.22,0,0,1,246,72.3Z"/><path class="cls-13" d="M251.19,82.13a.31.31,0,0,1-.31-.28l-.48-7.09-1.39.38-.22,0a.8.8,0,0,1-.59-.27l-.27-.29-1.2,2.72-1.9,4.06a.7.7,0,0,1-.66.41.75.75,0,0,1-.26,0,.78.78,0,0,1-.4-.4.72.72,0,0,1,0-.54l1.91-4.06.26-1a.94.94,0,0,1-.62,0,.92.92,0,0,1-.57-.45,1,1,0,0,1-.09-.74l.37-1.34a1,1,0,0,1,1.18-.67.94.94,0,0,1,.49.33l0,0a1,1,0,0,1,1-.69,1,1,0,0,1,.84.44l.05,0,.72.79,1.7-.45a.64.64,0,0,1,.2,0,.78.78,0,0,1,.76.59.71.71,0,0,1-.09.6.84.84,0,0,1-.48.37l-.16,0,.5,7.2a.31.31,0,0,1-.27.33h0Zm-9.63-11a1.1,1.1,0,1,1,1.1-1.1h0A1.1,1.1,0,0,1,241.56,71.15Zm2.52,3.7a.49.49,0,0,0-.3-.5l-1.66-.6-.75-2a1.33,1.33,0,0,0-.9-.72.93.93,0,0,0-1,.45l.08-.34a.84.84,0,0,0,0-.27,1.07,1.07,0,0,0-1.06-1.08h0a1.07,1.07,0,0,0-1.05.85l-1,4a.44.44,0,0,0,0,.16v.08a1.06,1.06,0,0,0,1.05,1.07h0a1.09,1.09,0,0,0,.93-.51l-.66,2.72-1.62,2.54a.52.52,0,0,0-.1.34.71.71,0,0,0,.18.59.82.82,0,0,0,.55.28h.08a.74.74,0,0,0,.66-.4l1.75-2.74c0-.07.08-.17.15-.32l1.14-4.87,0-.09-.16-.35a.08.08,0,0,1,0-.11.08.08,0,0,1,.11,0h0l.62,1.34.05.09a.61.61,0,0,0,.22.2l1.53.56L242,77l-.09-.1-1.53-1.24L240,77.26l1.11,1v.51l-1.35,2.73h0s0,.23.16.29a.29.29,0,0,0,.28-.07l0,0c.06-.12.43-.88.91-1.83l0,1.26a.71.71,0,0,0,.68.63.69.69,0,0,0,.54-.2.81.81,0,0,0,.24-.53V78.1a.93.93,0,0,0-.2-.63l-.06-.07c.49-1,.9-1.84,1-2.05h0a.58.58,0,0,0,.64-.5Z"/><path class="cls-13" d="M186.65,38.66l-3.47,7.91c.48,1.39,2,2.65,3.42,5.25h7.07Z"/><path class="cls-13" d="M180.86,48.55c-1.87-1.53.16-4,1.85-4.65l-1.15-1-6.89,8.88h10.06a13.77,13.77,0,0,0-3.56-3Z"/><path class="cls-13" d="M226.57,44.56h15.77L241,42.45h2.86l-5.33-8.88-1.5,2.49-2-3.25V30.63h5.45l-2.29-2.58,2.29-2.59h-6.63v7.35L232,35.88l-1.38-2.31-5.32,8.88h2.61Z"/><path class="cls-13" d="M150.39,48.9a3.26,3.26,0,0,1-2.55,0,4.21,4.21,0,0,0-1.1-.22,4.06,4.06,0,0,0-1.09.22,3.28,3.28,0,0,1-2.56,0,2.81,2.81,0,0,0-2.18,0,3.28,3.28,0,0,1-2.56,0,4.4,4.4,0,0,0-1-.21l.69,1.09,1.13-.19.88,2.06.86.16,1.2,2.37,1.47-.23,1.18,2.44.7,0,.82-1.1.84-.56.21-1.29,1.07.14,1.26-3,1,.16,1-2h-.07A4.05,4.05,0,0,0,150.39,48.9Z"/><path class="cls-13" d="M153.92,47.9c-.26,0-.51-.11-.77-.18a9.36,9.36,0,0,0-1.14-.26l-1.15-1.63-.26.05-.76-1.47-.55.53-1-2.23-.79.73-2.36-4.93-.2.31-.44,1.38,1.09,1.59-.51.36-1.28-1.84.42-1.32-.13-.11-.57.42-1.29,3,.38,1.06.82.94-.47.42-.9-1-.37-1-.35,0-1.23,1.53,1.07.69-.34.53-1.14-.74h-.48L137,47.44a6.94,6.94,0,0,0-1.37.28l-.77.18a.32.32,0,0,0-.25.37h0a.3.3,0,0,0,.36.24h0c.28-.05.55-.13.81-.2a6.49,6.49,0,0,1,1.24-.25l.25,0h0a3.72,3.72,0,0,1,1.09.23,3.38,3.38,0,0,0,2.55,0,3.79,3.79,0,0,1,1.1-.23,3.72,3.72,0,0,1,1.09.23,3.38,3.38,0,0,0,2.55,0,3.86,3.86,0,0,1,1.1-.23,3.72,3.72,0,0,1,1.09.23,4.69,4.69,0,0,0,1.28.25,4.61,4.61,0,0,0,1.28-.25,3.72,3.72,0,0,1,1.09-.23h0a1.42,1.42,0,0,1,.29,0,6.91,6.91,0,0,1,1.2.25c.27.07.54.15.81.2h.06a.32.32,0,0,0,.07-.63Z"/></svg>