<svg xmlns="http://www.w3.org/2000/svg" xmlns:xlink="http://www.w3.org/1999/xlink" viewBox="0 0 701.3 239"><style>.Graphic_x0020_Style_x0020_2{fill:#f40}.st0{display:none}.st1{display:inline;fill:#7e7e7e}.st2{font-family:&apos;Calibri&apos;}.st3{font-size:9px}.st4{fill:#111}.st5{font-size:8px}.st6{fill:#7e7e7e}.st7{opacity:.5}.st8{fill:#f40}.st9{display:inline}</style><g id="Layer_1"><path d="M31 14.1v-.7h658.7v.7H31zm0 45v-.8h658.7v.8H31zm0 45v-.8h658.7v.8H31zm0 45v-.8h658.7v.8H31zm0 45v-.8h658.7v.8H31zm658.8 44.1v.8" fill="#f40" fill-opacity=".3"/><defs><path id="aria" d="M689.4 225l.4-51.9c0-9.6-5-18.5-13.1-23.5l-32.6-20c-.9-.5-1.8-1-2.7-1.4l-12.7-17.1c-2.9-4-8-5.7-12.8-4.3l-12.7 3.6c-4.9-2.3-9-6-11.8-10.6l-30.3-49.6c-7.1-11.7-21.8-16.4-34.4-10.9l-23.9 10.4c-.8.3-1.6.7-2.5.9L465.1 62c-6.8 2.2-14.2 1.7-20.6-1.5l-23.8-11.7c-8.3-4.1-18.1-3.7-26.1 1L373.9 62c-8.4 4.9-18.8 5.1-27.3.4L326 51c-8-4.4-17.6-4.6-25.7-.5l-32 16.2c-1.3.7-2.7 1.2-4.2 1.7l-44.9 14.1-42 10.9c-3.3.9-6.5 2.3-9.3 4.4L154.1 99c-6.4.6-12.2 4.1-15.7 9.5l-13.3 20.4-38.4 27.9c-5.6 4.1-12.5 5.9-19.3 5.1L31 157.7l.2 68"/></defs><linearGradient id="aria_1_" gradientUnits="userSpaceOnUse" x1="359.553" y1="20.482" x2="361.095" y2="310.664"><stop offset="0" stop-color="#fff"/><stop offset=".092" stop-color="#fff5f1"/><stop offset=".265" stop-color="#ffdacc"/><stop offset=".502" stop-color="#ffae91"/><stop offset=".79" stop-color="#ff7340"/><stop offset="1" stop-color="#f40"/></linearGradient><use xlink:href="#aria" overflow="visible" fill="url(#aria_1_)"/><clipPath id="aria_2_"><use xlink:href="#aria" overflow="visible"/></clipPath><g id="marks" class="st0"><text transform="translate(68.897 160.412)" class="st1 st2 st3">2680</text><text transform="translate(115.996 130.312)" class="st1 st2 st3">3440</text><text transform="translate(163.037 96.212)" class="st1 st2 st3">4200</text><text transform="translate(210.077 80.153)" class="st1 st2 st3">4470</text><text transform="translate(257.117 62.712)" class="st1 st2 st3">4800</text><text transform="translate(304.157 46.832)" class="st1 st2 st3">5330</text><text transform="translate(351.257 63.853)" class="st1 st2 st3">4750</text><text transform="translate(398.298 49.993)" class="st1 st2 st3">5367</text><text transform="translate(445.338 63.632)" class="st1 st2 st3">4850</text><text transform="translate(492.378 51.953)" class="st1 st2 st3">5190</text><text transform="translate(539.478 37.812)" class="st1 st2 st3">5643</text><text transform="translate(586.518 108.332)" class="st1 st2 st3">3930</text><text transform="translate(633.558 132.313)" class="st1 st2 st3">3440</text><text transform="translate(679.518 157.712)" class="st1 st2 st3">2800</text></g><text transform="translate(6.08 226.173)" class="st4 st2 st5">0 м.</text><text transform="translate(4.4 196.233)" class="st4 st2 st5">2000</text><text transform="translate(4.4 151.233)" class="st4 st2 st5">3000</text><text transform="translate(4.399 106.293)" class="st4 st2 st5">4000</text><text transform="translate(4.399 61.293)" class="st4 st2 st5">5000</text><g><text transform="translate(4.399 16.353)" class="st4 st2 st5">6000</text></g><g id="name"><text transform="translate(8.469 133.878)"><tspan x="0" y="0" class="st6 st2 st3">Лукл</tspan><tspan x="18.4" y="0" class="st6 st2 st3">а</tspan></text><text transform="translate(43.925 133.533)" class="st6 st2 st3">Пакдинг</text><text transform="translate(73.523 100.95)"><tspan x="0" y="0" class="st6 st2 st3">Н</tspan><tspan x="5.6" y="0" class="st6 st2 st3">а</tspan><tspan x="9.9" y="0" class="st6 st2 st3">м</tspan><tspan x="16" y="0" class="st6 st2 st3">ч</tspan><tspan x="20.2" y="0" class="st6 st2 st3">е Ба</tspan><tspan x="35.9" y="0" class="st6 st2 st3">з</tspan><tspan x="39.7" y="0" class="st6 st2 st3">а</tspan><tspan x="44" y="0" class="st6 st2 st3">р</tspan></text><text transform="translate(148.19 68.418)"><tspan x="0" y="0" class="st6 st2 st3">Дол</tspan><tspan x="15.2" y="0" class="st6 st2 st3">е</tspan></text><text transform="translate(178.918 56.727)" class="st6 st2 st3">Мачермо</text><text transform="translate(239.896 41.743)"><tspan x="0" y="0" class="st6 st2 st3">Г</tspan><tspan x="3.9" y="0" class="st6 st2 st3">о</tspan><tspan x="8.6" y="0" class="st6 st2 st3">к</tspan><tspan x="12.8" y="0" class="st6 st2 st3">ио</tspan></text><text transform="translate(276.18 12.567)"><tspan x="0" y="0" class="st6 st2 st3">Г</tspan><tspan x="3.9" y="0" class="st6 st2 st3">о</tspan><tspan x="8.6" y="0" class="st6 st2 st3">к</tspan><tspan x="12.8" y="0" class="st6 st2 st3">и</tspan><tspan x="17.6" y="0" class="st6 st2 st3">о</tspan><tspan x="22.4" y="0" class="st6 st2 st3"> Р</tspan><tspan x="29" y="0" class="st6 st2 st3">и</tspan></text><text transform="translate(326.6 40.248)"><tspan x="0" y="0" class="st6 st2 st3">Дра</tspan><tspan x="14.8" y="0" class="st6 st2 st3">гн</tspan><tspan x="22.8" y="0" class="st6 st2 st3">ак</tspan></text><text transform="translate(346.208 19.655)"><tspan x="0" y="0" class="st6 st2 st3">Пе</tspan><tspan x="10.1" y="0" class="st6 st2 st3">р</tspan><tspan x="14.8" y="0" class="st6 st2 st3">евал</tspan><tspan x="32.5" y="0" class="st6 st2 st3"> </tspan><tspan x="34.5" y="0" class="st6 st2 st3">Ч</tspan><tspan x="39.5" y="0" class="st6 st2 st3">о</tspan><tspan x="44.3" y="0" class="st6 st2 st3"> Л</tspan><tspan x="51.8" y="0" class="st6 st2 st3">а</tspan></text><text transform="translate(417.715 38.163)"><tspan x="0" y="0" class="st6 st2 st3">Д</tspan><tspan x="5.8" y="0" class="st6 st2 st3">з</tspan><tspan x="9.6" y="0" class="st6 st2 st3">о</tspan><tspan x="14.3" y="0" class="st6 st2 st3">нгл</tspan><tspan x="26.9" y="0" class="st6 st2 st3">а</tspan></text><text transform="translate(454.924 23.99)"><tspan x="0" y="0" class="st6 st2 st3">Г</tspan><tspan x="3.9" y="0" class="st6 st2 st3">ор</tspan><tspan x="13.3" y="0" class="st6 st2 st3">а</tspan><tspan x="17.6" y="0" class="st6 st2 st3">к</tspan><tspan x="21.8" y="0" class="st6 st2 st3"> Ш</tspan><tspan x="31.7" y="0" class="st6 st2 st3">е</tspan><tspan x="36.2" y="0" class="st6 st2 st3">п</tspan></text><text transform="translate(492.11 9.875)" class="st6 st2 st3">Кала Патар</text><text transform="translate(600.463 80.59)"><tspan x="0" y="0" class="st6 st2 st3">Пангб</tspan><tspan x="22.6" y="0" class="st6 st2 st3">о</tspan><tspan x="27.4" y="0" class="st6 st2 st3">че</tspan></text><text transform="translate(646.144 99.95)"><tspan x="0" y="0" class="st6 st2 st3">Н</tspan><tspan x="5.6" y="0" class="st6 st2 st3">а</tspan><tspan x="9.9" y="0" class="st6 st2 st3">м</tspan><tspan x="16" y="0" class="st6 st2 st3">ч</tspan><tspan x="20.2" y="0" class="st6 st2 st3">е Ба</tspan><tspan x="35.9" y="0" class="st6 st2 st3">з</tspan><tspan x="39.7" y="0" class="st6 st2 st3">а</tspan><tspan x="44" y="0" class="st6 st2 st3">р</tspan></text><text transform="translate(657.212 127.877)"><tspan x="0" y="0" class="st6 st2 st3">Лукл</tspan><tspan x="18.4" y="0" class="st6 st2 st3">а</tspan></text></g><g id="arrow"><path id="arrow_1_" d="M36.7 150.8v-20h-2.4v.3h2.1v19.7h-1.1l1.3 7.2 1.2-7.2z"/><path id="arrow_2_" d="M80.1 151.3v-19.9h-2.4v.3h2.1v19.6h-1.1l1.2 7.2 1.2-7.2z"/><path id="arrow_3_" d="M127.1 118.3V98.4h-2.4v.3h2.1v19.6h-1l1.2 7.2 1.2-7.2z"/><path id="arrow_4_" d="M173 85.8V65.9h-2.4v.3h2.1v19.6h-1.1l1.2 7.2 1.2-7.2z"/><path id="arrow_5_" d="M219.9 73.8V53.9h-2.4v.3h2.1v19.6h-1l1.2 7.3 1.2-7.3z"/><path id="arrow_6_" d="M267.2 58.6V38.7h-2.4v.3h2.1v19.6h-1.1l1.2 7.3 1.2-7.3z"/><path id="arrow_10_" d="M315.3 29.9V10H313v.3h2v19.6h-1l1.2 7.3 1.2-7.3z"/><path id="arrow_8_" d="M361.1 57.8V37.9h-2.4v.3h2.1v19.6h-1.1l1.2 7.3 1.2-7.3z"/><path id="arrow_16_" d="M407.5 37.3V17.4h-2.3v.3h2v19.6h-1l1.2 7.3 1.2-7.3z"/><path id="arrow_9_" d="M454.5 55.6V35.7h-2.3v.3h2v19.6h-1l1.2 7.3 1.2-7.3z"/><path id="arrow_11_" d="M501.5 40.9V21h-2.3v.3h2v19.6h-1l1.2 7.3 1.2-7.3z"/><path id="arrow_12_" d="M540 28.3V8.4h-2.4v.3h2.1v19.6h-1.1l1.2 7.3 1.2-7.3z"/><path id="arrow_13_" d="M640.9 118.7V98.8h2.3v.3h-2v19.6h1l-1.2 7.2-1.2-7.2z"/><path id="arrow_14_" d="M596.4 97.3V77.4h2.4v.3h-2.1v19.6h1l-1.2 7.2-1.2-7.2z"/><path id="arrow_15_" d="M685.1 145.5v-20h-2.4v.4h2.1v19.6h-1.1l1.3 7.2 1.2-7.2z"/></g></g><g id="day"><text transform="translate(70.592 234.582)" class="st4 st2 st5">День 2</text><text transform="translate(631.592 234.582)" class="st4 st2 st5">День 13</text><text transform="translate(663.926 234.582)" class="st4 st2 st5">День 14</text><text transform="translate(118.592 234.582)" class="st4 st2 st5">День 3-4</text><text transform="translate(172.593 234.582)" class="st4 st2 st5">День 5</text><text transform="translate(211.592 234.582)" class="st4 st2 st5">День 6</text><text transform="translate(589.592 234.582)" class="st4 st2 st5">День 12</text><text transform="translate(264.592 234.582)" class="st4 st2 st5">День 7-8</text><text transform="translate(354.592 234.582)" class="st4 st2 st5">День 9</text><text transform="translate(428.592 234.582)" class="st4 st2 st5">День 10</text><text transform="translate(495.592 234.582)" class="st4 st2 st5">День 11</text><path class="st4" d="M141.1 122.8c.2-.2.2-.5.1-.8-.1-.1-.2-.3-.4-.3l-3.2-1.7c-.1 0-.1-.1-.2-.1-.4-.8-1.4-1.2-2.3-.8-.3.1-.5.3-.6.5-.1-.1-.3-.1-.4 0 0 0-3.5 1.8-3.6 1.9-.2.3 0 .8.4 1l2.5 1.6c.1 0 .2.1.2.1-.1.6-.2 1.9-.2 2.4-.1.7-.2 1.4-.3 2 0 0-2.2-.4-2.3-.4-.5-.1-.9.1-1.2.6l-2.8 4.8c-.2.4-.2.9.2 1.1.3.2.8.1 1.1-.3l2.2-3.3.5 5.1c0 .5.4.8.8.8s.7-.4.7-.9c0 0-.1-5.6-.1-5.7l3.2.9c.6.2 1.3-.2 1.4-.8 0-.1.1-.4.1-.6 0 0 .4-1.6.6-2.9.1-.4.1-1.4.2-2.1.1 0 .2-.1.3-.1l2.8-1.8c.1 0 .2-.1.3-.2zm-3.8.4c-.2-.2-.4-.3-.7-.3l-1.3-.1c-.2 0-.5 0-.7.1-.1 0-.1-.1-.2-.1l-1.8-.9 1.7-1c.1.9.9 1.6 1.9 1.5.6-.1 1.2-.5 1.4-1.1l1.6 1-1.9.9z"/><path class="st4" d="M141.1 122.8c.2-.2.2-.5.1-.8-.1-.1-.2-.3-.4-.3l-3.2-1.7c-.1 0-.1-.1-.2-.1-.4-.8-1.4-1.2-2.3-.8-.3.1-.5.3-.6.5-.1-.1-.3-.1-.4 0 0 0-3.5 1.8-3.6 1.9-.2.3 0 .8.4 1l2.5 1.6c.1 0 .2.1.2.1-.1.6-.2 1.9-.2 2.4-.1.7-.2 1.4-.3 2 0 0-2.2-.4-2.3-.4-.5-.1-.9.1-1.2.6l-2.8 4.8c-.2.4-.2.9.2 1.1.3.2.8.1 1.1-.3l2.2-3.3.5 5.1c0 .5.4.8.8.8s.7-.4.7-.9c0 0-.1-5.6-.1-5.7l3.2.9c.6.2 1.3-.2 1.4-.8 0-.1.1-.4.1-.6 0 0 .4-1.6.6-2.9.1-.4.1-1.4.2-2.1.1 0 .2-.1.3-.1l2.8-1.8c.1 0 .2-.1.3-.2zm-3.8.4c-.2-.2-.4-.3-.7-.3l-1.3-.1c-.2 0-.5 0-.7.1-.1 0-.1-.1-.2-.1l-1.8-.9 1.7-1c.1.9.9 1.6 1.9 1.5.6-.1 1.2-.5 1.4-1.1l1.6 1-1.9.9z"/><path class="st4" d="M141.1 122.8c.2-.2.2-.5.1-.8-.1-.1-.2-.3-.4-.3l-3.2-1.7c-.1 0-.1-.1-.2-.1-.4-.8-1.4-1.2-2.3-.8-.3.1-.5.3-.6.5-.1-.1-.3-.1-.4 0 0 0-3.5 1.8-3.6 1.9-.2.3 0 .8.4 1l2.5 1.6c.1 0 .2.1.2.1-.1.6-.2 1.9-.2 2.4-.1.7-.2 1.4-.3 2 0 0-2.2-.4-2.3-.4-.5-.1-.9.1-1.2.6l-2.8 4.8c-.2.4-.2.9.2 1.1.3.2.8.1 1.1-.3l2.2-3.3.5 5.1c0 .5.4.8.8.8s.7-.4.7-.9c0 0-.1-5.6-.1-5.7l3.2.9c.6.2 1.3-.2 1.4-.8 0-.1.1-.4.1-.6 0 0 .4-1.6.6-2.9.1-.4.1-1.4.2-2.1.1 0 .2-.1.3-.1l2.8-1.8c.1 0 .2-.1.3-.2zm-3.8.4c-.2-.2-.4-.3-.7-.3l-1.3-.1c-.2 0-.5 0-.7.1-.1 0-.1-.1-.2-.1l-1.8-.9 1.7-1c.1.9.9 1.6 1.9 1.5.6-.1 1.2-.5 1.4-1.1l1.6 1-1.9.9zM283.3 60.6c.2-.2.2-.5.1-.8-.1-.1-.2-.3-.4-.3l-3.2-1.7c-.1 0-.1-.1-.2-.1-.4-.8-1.4-1.2-2.3-.8-.3.1-.5.3-.6.5-.1-.1-.3-.1-.4 0 0 0-3.5 1.8-3.6 1.9-.2.3 0 .8.4 1l2.5 1.6c.1 0 .2.1.2.1-.1.6-.2 1.9-.2 2.4-.1.7-.2 1.4-.3 2 0 0-2.2-.4-2.3-.4-.5-.1-.9.1-1.2.6l-2.8 4.8c-.2.4-.2.9.2 1.1.3.2.8.1 1.1-.3l2.2-3.3.5 5.1c0 .5.4.8.8.8s.7-.4.7-.9c0 0-.1-5.6-.1-5.7l3.2.9c.6.2 1.3-.2 1.4-.8 0-.1.1-.4.1-.6 0 0 .4-1.6.6-2.9.1-.4.1-1.4.2-2.1.1 0 .2-.1.3-.1l2.8-1.8s.2-.1.3-.2zm-3.9.4c-.2-.2-.4-.3-.7-.3l-1.3-.1c-.2 0-.5 0-.7.1-.1 0-.1-.1-.2-.1l-1.8-.9 1.7-1c.1.9.9 1.6 1.9 1.5.6-.1 1.2-.5 1.4-1.1l1.6 1-1.9.9z"/><path class="st4" d="M283.3 60.6c.2-.2.2-.5.1-.8-.1-.1-.2-.3-.4-.3l-3.2-1.7c-.1 0-.1-.1-.2-.1-.4-.8-1.4-1.2-2.3-.8-.3.1-.5.3-.6.5-.1-.1-.3-.1-.4 0 0 0-3.5 1.8-3.6 1.9-.2.3 0 .8.4 1l2.5 1.6c.1 0 .2.1.2.1-.1.6-.2 1.9-.2 2.4-.1.7-.2 1.4-.3 2 0 0-2.2-.4-2.3-.4-.5-.1-.9.1-1.2.6l-2.8 4.8c-.2.4-.2.9.2 1.1.3.2.8.1 1.1-.3l2.2-3.3.5 5.1c0 .5.4.8.8.8s.7-.4.7-.9c0 0-.1-5.6-.1-5.7l3.2.9c.6.2 1.3-.2 1.4-.8 0-.1.1-.4.1-.6 0 0 .4-1.6.6-2.9.1-.4.1-1.4.2-2.1.1 0 .2-.1.3-.1l2.8-1.8s.2-.1.3-.2zm-3.9.4c-.2-.2-.4-.3-.7-.3l-1.3-.1c-.2 0-.5 0-.7.1-.1 0-.1-.1-.2-.1l-1.8-.9 1.7-1c.1.9.9 1.6 1.9 1.5.6-.1 1.2-.5 1.4-1.1l1.6 1-1.9.9z"/><path class="st4" d="M283.3 60.6c.2-.2.2-.5.1-.8-.1-.1-.2-.3-.4-.3l-3.2-1.7c-.1 0-.1-.1-.2-.1-.4-.8-1.4-1.2-2.3-.8-.3.1-.5.3-.6.5-.1-.1-.3-.1-.4 0 0 0-3.5 1.8-3.6 1.9-.2.3 0 .8.4 1l2.5 1.6c.1 0 .2.1.2.1-.1.6-.2 1.9-.2 2.4-.1.7-.2 1.4-.3 2 0 0-2.2-.4-2.3-.4-.5-.1-.9.1-1.2.6l-2.8 4.8c-.2.4-.2.9.2 1.1.3.2.8.1 1.1-.3l2.2-3.3.5 5.1c0 .5.4.8.8.8s.7-.4.7-.9c0 0-.1-5.6-.1-5.7l3.2.9c.6.2 1.3-.2 1.4-.8 0-.1.1-.4.1-.6 0 0 .4-1.6.6-2.9.1-.4.1-1.4.2-2.1.1 0 .2-.1.3-.1l2.8-1.8s.2-.1.3-.2zm-3.9.4c-.2-.2-.4-.3-.7-.3l-1.3-.1c-.2 0-.5 0-.7.1-.1 0-.1-.1-.2-.1l-1.8-.9 1.7-1c.1.9.9 1.6 1.9 1.5.6-.1 1.2-.5 1.4-1.1l1.6 1-1.9.9zM38 168.6s-.3-.3-2.1-.8c-.6-.2-1-.4-1.4-.6l-.3-.1c-.4-.2-1-.9-1-.9-.3-.3-.8-.4-1.5-.5-.7-.1-1.6-.2-2.8-.3-.6-.2-1.1-.3-1.7-.4l-.5-.9h.3v-.2l.9-.3c.5-.2.2-.3-.1-.4-.3-.2-.7-.3-.7-.3l-.1-.1c0-.2 0-.3-.1-.3-.4-.2-.9-.1-.9-.1l-.3-.1-2-3.8c-.1-.3-.4-.7-.6-.8-.7-.1-2 0-3.1-.1-.2 0-.3.1-.4.3v.1c.5 2.2 1.3 5 1.1 5l-.4.3.4 1.6c-.8-.1-1.7-.2-1.8-.2h-1c-.1 0-3.3-.9-3.8-1-.5-.1-.5-.4-.5-.4l-.8-2.2s0-.3-.3-.4c-.3-.1-1.2-.1-1.4-.2-.3 0-.4.2-.4.2l-.8 3s-.1.6-.6.9c-.5.3.3.5.3.5l.1.1-1.2 1.6c-.1.1-.1.3.1.4 0 0 .1 0 .1.1l1.8.4c.1 0 .2 0 .3-.1l1.1-1.1h.1l1.9.6.5-.1c.1 0 3.9 1.2 4.3 1.2.3 0 .9.1 1.6.1l-.8 1.6.3.4c.2 0-1.2 2.5-2.2 4.6-.1.2 0 .4.2.4h.1c1.1.2 2.4.5 3.1.6.3 0 .6-.4.8-.6l3.1-3.7c.9.3 2.1.2 2.1.2l.5-.1v-.2l.9-.3c.5-.2.2-.3-.1-.4-.3-.2-.7-.3-.7-.3l-.1-.1c0-.2 0-.3-.1-.3-.4-.2-.9-.1-.9-.1h-.1l.6-.7c1.2-.2 1.5-.1 1.5-.1.1 0 8.4.9 8.5.9h1.1c1.2-.6-.1-1.5-.1-1.5zm-18.6-3c0 .1-.1.2-.2.2l-.5-.1c-.1 0-.2-.1-.2-.2v-.3c0-.1.1-.2.2-.2l.5.1c.1 0 .2.1.2.2v.3zm1.6.3c0 .1-.1.2-.2.2l-.5-.1c-.1 0-.2-.1-.2-.2v-.3c0-.1.1-.2.2-.2l.5.1c.1 0 .2.1.2.2v.3zm1.4.1c0 .1-.1.2-.2.2l-.5-.1c-.1 0-.2-.1-.2-.2v-.3c0-.1.1-.2.2-.2l.5.1c.1 0 .2.1.2.2v.3zm1.4.1c0 .1-.1.2-.2.2l-.5-.1c-.1 0-.2-.1-.2-.2v-.3c0-.1.1-.2.2-.2l.5.1c.1 0 .2.1.2.2v.3zm1.8.2c0 .1-.1.2-.2.2l-.5-.1c-.1 0-.2-.1-.2-.2v-.3c0-.1.1-.2.2-.2h.5c.1 0 .2.1.2.2v.4zm1.2.1c0 .1-.1.2-.2.2l-.5-.1c-.1 0-.2-.1-.2-.2v-.3c0-.1.1-.2.2-.2l.5.1c.1 0 .2.1.2.2v.3zm1.8.2c0 .1-.1.2-.2.2l-.5-.1c-.1 0-.2-.1-.2-.2v-.3c0-.1.1-.2.2-.2l.5.1c.1 0 .2.1.2.2v.3zm1.4.1c0 .1-.1.2-.2.2l-.5-.1c-.1 0-.2-.1-.2-.2v-.3c0-.1.1-.2.2-.2l.5.1c.1 0 .2.1.2.2v.3zm1.1.1c0 .1-.1.2-.2.2l-.5-.1c-.1 0-.2-.1-.2-.2v-.3c0-.1.1-.2.2-.2l.5.1c.1 0 .2.1.2.2v.3zm2 .6c-.6-.1-.7 0-.7-.3s.1-.7.1-.7 0-.1.2-.2c.1 0 .4 0 .5-.1.3.4.6.7 1 .9l.1.1h-.1c-.3.2-.6.3-1.1.3z"/><path class="st4" d="M9.7 163.5c0-.1.5-2 .6-2.2H9.2c-.2 0-.3.1-.3.3v.1l.8 1.8zM697.2 163.4s-.3-.3-2.1-.8c-.6-.2-1-.4-1.4-.6l-.3-.1c-.4-.2-1-.9-1-.9-.3-.3-.8-.4-1.5-.5s-1.6-.2-2.8-.3c-.6-.2-1.1-.3-1.7-.4l-.5-.9h.3v-.2l.9-.3c.5-.2.2-.3-.1-.4-.3-.2-.7-.3-.7-.3l-.1-.1c0-.2 0-.3-.1-.3-.4-.2-.9-.1-.9-.1l-.3-.1-2-3.8c-.1-.3-.4-.7-.6-.8-.7-.1-2 0-3.1-.1-.2 0-.3.1-.4.3v.1c.5 2.2 1.3 5 1.1 5l-.4.3.4 1.6c-.8-.1-1.7-.2-1.8-.2h-1c-.1 0-3.3-.9-3.8-1-.5-.1-.5-.4-.5-.4l-.8-2.2s0-.3-.3-.4c-.3-.1-1.2-.1-1.4-.2-.3 0-.4.2-.4.2l-.8 3s-.1.6-.6.9c-.5.3.3.5.3.5l.1.1-1.2 1.6c-.1.1-.1.3.1.4 0 0 .1 0 .1.1l1.8.4c.1 0 .2 0 .3-.1l1.1-1.1h.1l1.9.6.5-.1c.1 0 3.9 1.2 4.3 1.2.3 0 .9.1 1.6.1l-.8 1.6.3.4c.2 0-1.2 2.5-2.2 4.6-.1.2 0 .4.2.4h.1c1.1.2 2.4.5 3.1.6.3 0 .6-.4.8-.6l3.1-3.7c.9.3 2.1.2 2.1.2l.5-.1v-.2l.9-.3c.5-.2.2-.3-.1-.4-.3-.2-.7-.3-.7-.3l-.1-.1c0-.2 0-.3-.1-.3-.4-.2-.9-.1-.9-.1h-.1l.6-.7c1.2-.2 1.5-.1 1.5-.1.1 0 8.4.9 8.5.9h1.1c1.3-.6 0-1.5-.1-1.5zm-18.6-2.9c0 .1-.1.2-.2.2l-.5-.1c-.1 0-.2-.1-.2-.2v-.3c0-.1.1-.2.2-.2l.5.1c.1 0 .2.1.2.2v.3zm1.6.2c0 .1-.1.2-.2.2l-.5-.1c-.1 0-.2-.1-.2-.2v-.3c0-.1.1-.2.2-.2l.5.1c.1 0 .2.1.2.2v.3zm1.4.1c0 .1-.1.2-.2.2l-.5-.1c-.1 0-.2-.1-.2-.2v-.3c0-.1.1-.2.2-.2l.5.1c.1 0 .2.1.2.2v.3zm1.4.2c0 .1-.1.2-.2.2l-.5-.1c-.1 0-.2-.1-.2-.2v-.3c0-.1.1-.2.2-.2l.5.1c.1 0 .2.1.2.2v.3zm1.8.2c0 .1-.1.2-.2.2l-.5-.1c-.1 0-.2-.1-.2-.2v-.3c0-.1.1-.2.2-.2h.5c.1 0 .2.1.2.2v.4zm1.2.1c0 .1-.1.2-.2.2l-.5-.1c-.1 0-.2-.1-.2-.2v-.3c0-.1.1-.2.2-.2l.5.1c.1 0 .2.1.2.2v.3zm1.9.1c0 .1-.1.2-.2.2l-.5-.1c-.1 0-.2-.1-.2-.2v-.3c0-.1.1-.2.2-.2l.5.1c.1 0 .2.1.2.2v.3zm1.4.2c0 .1-.1.2-.2.2l-.5-.1c-.1 0-.2-.1-.2-.2v-.3c0-.1.1-.2.2-.2l.5.1c.1 0 .2.1.2.2v.3zm1 .1c0 .1-.1.2-.2.2l-.5-.1c-.1 0-.2-.1-.2-.2v-.3c0-.1.1-.2.2-.2l.5.1c.1 0 .2.1.2.2v.3zm2 .5c-.6-.1-.7 0-.7-.3s.1-.7.1-.7 0-.1.2-.2c.1 0 .4 0 .5-.1.3.4.6.7 1 .9l.1.1h-.1c-.3.2-.6.4-1.1.3z"/><path class="st4" d="M669 158.4c0-.1.5-2 .6-2.2h-1.1c-.2 0-.3.1-.3.3v.1l.8 1.8zM68.3 162.3c-.1 0-.3 0-.4-.1-.4-.1-.6-.5-.7-.9l-.3-4-1.3-1 .9-1.8 2.2 1.6h.1c.1.1.2.2.2.3l.3 4.7c0 .3-.1.5-.3.7-.1.4-.4.5-.7.5zm-3.8-13.7c-.1 0-.2 0-.3-.1-.1-.1-.2-.2-.3-.4-.5-.9-.3-2 .6-2.5.6-.4 1.4-.4 2 0 .3-.5.9-.8 1.4-.8 1 0 1.8.8 1.8 1.8s-.8 1.7-1.8 1.7c-.8 0-1.5-.6-1.7-1.4-.2 0-.3.1-.5.2-.4.3-.7.7-.8 1.2 0 .2-.1.3-.3.4 0-.1-.1-.1-.1-.1z"/><path class="st4" d="M71.9 162.7c-.2 0-.4-.2-.4-.4l-.7-10.1-2 .5h-.3c-.3 0-.6-.1-.8-.4l-.4-.4-1.7 3.9-2.7 5.8c-.2.4-.5.6-.9.6-.1 0-.3 0-.4-.1-.3-.1-.5-.3-.6-.6-.1-.2-.1-.5 0-.8l2.7-5.8.4-1.4c-.3.1-.6.1-.9 0-.3-.1-.6-.3-.8-.7-.2-.3-.2-.7-.1-1.1l.5-1.9c.2-.7 1-1.2 1.7-.9.3.1.5.2.7.5.2-.6.8-1 1.4-1 .5 0 .9.2 1.2.6l.1.1 1 1.1 2.4-.6h.3c.5 0 1 .3 1.1.8.1.3 0 .6-.1.9-.2.3-.4.4-.7.5l-.2.1.7 10.3c0 .2-.2.4-.5.5zM58.2 147c-.9 0-1.6-.7-1.6-1.6s.7-1.6 1.6-1.6 1.6.7 1.6 1.6c-.1.9-.8 1.6-1.6 1.6zm3.5 5.3c0-.3-.1-.6-.4-.7l-2.4-.8-1.1-2.9c-.2-.5-.7-.9-1.3-1-.6-.1-1.1.2-1.4.6.1-.3.1-.5.1-.5v-.4c0-.8-.7-1.5-1.5-1.5-.7 0-1.3.5-1.5 1.2l-1.5 5.7V152.3c0 .8.7 1.5 1.5 1.5.5 0 1-.3 1.3-.7l-.9 3.9-2.3 3.6c-.1.1-.2.3-.1.5 0 .3.1.6.3.8.2.2.5.4.8.4h.1c.4 0 .8-.2 1-.6l2.5-3.9c.1-.1.1-.3.2-.5l1.6-7v-.1l-.2-.5c0-.1 0-.1.1-.2.1 0 .1 0 .2.1l.9 1.9.1.1.3.3 2.2.8-1.3 2.6-.1-.1-2.2-1.8-.5 2.2 1.6 1.4v.7l-1.9 3.9s0 .3.2.4c.1 0 .3 0 .4-.1.1-.2.6-1.3 1.3-2.6v1.8c.1.5.5.9 1 .9.3 0 .6-.1.8-.3.2-.2.3-.5.4-.8v-4.2c0-.3-.1-.6-.3-.9l-.1-.1c.7-1.4 1.3-2.6 1.4-2.9.3.2.7-.1.7-.5z"/><g><path class="st4" d="M202.6 92.2c-.1 0-.3 0-.4-.1-.4-.1-.6-.5-.7-.9l-.3-4-1.3-1 .9-1.8L203 86h.1c.1.1.2.2.2.3l.3 4.7c0 .3-.1.5-.3.7-.1.3-.4.5-.7.5zm-3.8-13.7c-.1 0-.2 0-.3-.1-.1-.1-.2-.2-.3-.4-.5-.9-.3-2 .6-2.5.6-.4 1.4-.4 2 0 .3-.5.9-.8 1.4-.8 1 0 1.8.8 1.8 1.8s-.8 1.7-1.8 1.7c-.8 0-1.5-.6-1.7-1.4-.2 0-.3.1-.5.2-.4.3-.7.7-.8 1.2 0 .2-.1.3-.3.4 0-.1-.1-.1-.1-.1z"/><path class="st4" d="M206.2 92.5c-.2 0-.4-.2-.4-.4l-.7-10.1-2 .5h-.3c-.3 0-.6-.1-.8-.4l-.4-.4-1.7 3.9-2.7 5.8c-.2.4-.5.6-.9.6-.1 0-.3 0-.4-.1-.3-.1-.5-.3-.6-.6-.1-.2-.1-.5 0-.8l2.7-5.8.4-1.4c-.3.1-.6.1-.9 0-.3-.1-.6-.3-.8-.7-.2-.3-.2-.7-.1-1.1l.5-1.9c.2-.7 1-1.2 1.7-.9.3.1.5.2.7.5.2-.6.8-1 1.4-1 .5 0 .9.2 1.2.6l.1.1 1 1.1 2.4-.6h.3c.5 0 1 .3 1.1.8.1.3 0 .6-.1.9-.2.3-.4.4-.7.5l-.2.1.7 10.3c0 .3-.2.5-.5.5zm-13.7-15.7c-.9 0-1.6-.7-1.6-1.6s.7-1.6 1.6-1.6 1.6.7 1.6 1.6c-.1.9-.8 1.6-1.6 1.6zm3.5 5.3c0-.3-.1-.6-.4-.7l-2.4-.8-1.1-2.9c-.2-.5-.7-.9-1.3-1-.6-.1-1.1.2-1.4.6.1-.3.1-.5.1-.5v-.4c0-.8-.7-1.5-1.5-1.5-.7 0-1.3.5-1.5 1.2l-1.5 5.7v.2c0 .8.7 1.5 1.5 1.5.5 0 1-.3 1.3-.7l-.9 3.9-2.3 3.6c-.1.1-.2.3-.1.5 0 .3.1.6.3.8.2.2.5.4.8.4h.1c.4 0 .8-.2 1-.6l2.5-3.9c.1-.1.1-.3.2-.5l1.6-7v-.1l-.2-.5c0-.1 0-.1.1-.2.1 0 .1 0 .2.1l.9 1.9.1.1.3.3 2.2.8-1.3 2.6-.1-.1-2.2-1.8-.5 2.2 1.6 1.4v.7l-1.9 3.9s0 .3.2.4c.1 0 .3 0 .4-.1.1-.2.6-1.3 1.3-2.6v1.8c.1.5.5.9 1 .9.3 0 .6-.1.8-.3.2-.2.3-.5.4-.8v-4.2c0-.3-.1-.6-.3-.9l-.1-.1c.7-1.4 1.3-2.6 1.4-2.9.3.4.7.1.7-.4z"/></g><g><path class="st4" d="M616.8 110c-.1 0-.3 0-.4-.1-.4-.1-.6-.5-.7-.9l-.3-4-1.3-1 .9-1.8 2.2 1.6h.1c.1.1.2.2.2.3l.3 4.7c0 .3-.1.5-.3.7-.1.4-.4.5-.7.5zM613 96.3c-.1 0-.2 0-.3-.1-.1-.1-.2-.2-.3-.4-.5-.9-.3-2 .6-2.5.6-.4 1.4-.4 2 0 .3-.5.9-.8 1.4-.8 1 0 1.8.8 1.8 1.8s-.8 1.7-1.8 1.7c-.8 0-1.5-.6-1.7-1.4-.2 0-.3.1-.5.2-.4.3-.7.7-.8 1.2 0 .2-.1.3-.3.4 0-.1-.1-.1-.1-.1z"/><path class="st4" d="M620.4 110.4c-.2 0-.4-.2-.4-.4l-.7-10.1-2 .5h-.3c-.3 0-.6-.1-.8-.4l-.4-.4-1.7 3.9-2.7 5.8c-.2.4-.5.6-.9.6-.1 0-.3 0-.4-.1-.3-.1-.5-.3-.6-.6-.1-.2-.1-.5 0-.8l2.7-5.8.4-1.4c-.3.1-.6.1-.9 0-.3-.1-.6-.3-.8-.7-.2-.3-.2-.7-.1-1.1l.5-1.9c.2-.7 1-1.2 1.7-.9.3.1.5.2.7.5.2-.6.8-1 1.4-1 .5 0 .9.2 1.2.6l.1.1 1 1.1 2.4-.6h.3c.5 0 1 .3 1.1.8.1.3 0 .6-.1.9-.2.3-.4.4-.7.5l-.2.1.7 10.3c-.1.2-.2.4-.5.5zm-13.8-15.7c-.9 0-1.6-.7-1.6-1.6s.7-1.6 1.6-1.6c.9 0 1.6.7 1.6 1.6 0 .9-.7 1.6-1.6 1.6zm3.6 5.3c0-.3-.1-.6-.4-.7l-2.4-.8-1.1-2.9c-.2-.5-.7-.9-1.3-1-.6-.1-1.1.2-1.4.6.1-.3.1-.5.1-.5v-.4c0-.8-.7-1.5-1.5-1.5-.7 0-1.3.5-1.5 1.2l-1.5 5.7V100c0 .8.7 1.5 1.5 1.5.5 0 1-.3 1.3-.7l-.9 3.9-2.3 3.6c-.1.1-.2.3-.1.5 0 .3.1.6.3.8.2.2.5.4.8.4h.1c.4 0 .8-.2 1-.6l2.5-3.9c.1-.1.1-.3.2-.5l1.6-7v-.1l-.2-.5c0-.1 0-.1.1-.2.1 0 .1 0 .2.1l.9 1.9.1.1.3.3 2.2.8-1.3 2.6-.1-.1-2.2-1.8-.5 2.2 1.6 1.4v.7l-1.9 3.9s0 .3.2.4c.1 0 .3 0 .4-.1.1-.2.6-1.3 1.3-2.6v1.8c.1.5.5.9 1 .9.3 0 .6-.1.8-.3.2-.2.3-.5.4-.8v-4.2c0-.3-.1-.6-.3-.9l-.1-.1c.7-1.4 1.3-2.6 1.4-2.9.3.2.7-.1.7-.5z"/></g><g><path class="st4" d="M484.2 63c-.1 0-.3 0-.4-.1-.4-.1-.6-.5-.7-.9l-.3-4-1.3-1 .9-1.8 2.2 1.6h.1c.1.1.2.2.2.3l.3 4.7c0 .3-.1.5-.3.7-.2.3-.4.5-.7.5zm-3.9-13.7c-.1 0-.2 0-.3-.1-.1-.1-.2-.2-.3-.4-.5-.9-.3-2 .6-2.5.6-.4 1.4-.4 2 0 .3-.5.9-.8 1.4-.8 1 0 1.8.8 1.8 1.8s-.8 1.7-1.8 1.7c-.8 0-1.5-.6-1.7-1.4-.2 0-.3.1-.5.2-.4.3-.7.7-.8 1.2 0 .2-.1.3-.3.4.1-.1 0-.1-.1-.1z"/><path class="st4" d="M487.8 63.3c-.2 0-.4-.2-.4-.4l-.7-10.1-2 .5h-.3c-.3 0-.6-.1-.8-.4l-.4-.4-1.7 3.9-2.7 5.8c-.2.4-.5.6-.9.6-.1 0-.3 0-.4-.1-.3-.1-.5-.3-.6-.6-.1-.2-.1-.5 0-.8l2.7-5.8.4-1.4c-.3.1-.6.1-.9 0-.3-.1-.6-.3-.8-.7-.2-.3-.2-.7-.1-1.1l.5-1.9c.2-.7 1-1.2 1.7-.9.3.1.5.2.7.5.2-.6.8-1 1.4-1 .5 0 .9.2 1.2.6l.1.1 1 1.1 2.4-.6h.3c.5 0 1 .3 1.1.8.1.3 0 .6-.1.9-.2.3-.4.4-.7.5l-.2.1.7 10.3c-.1.3-.2.5-.5.5zM474 47.6c-.9 0-1.6-.7-1.6-1.6 0-.9.7-1.6 1.6-1.6.9 0 1.6.7 1.6 1.6 0 .9-.7 1.6-1.6 1.6zm3.6 5.3c0-.3-.1-.6-.4-.7l-2.4-.8-1.1-2.9c-.2-.5-.7-.9-1.3-1-.6-.1-1.1.2-1.4.6.1-.3.1-.5.1-.5v-.4c0-.8-.7-1.5-1.5-1.5-.7 0-1.3.5-1.5 1.2l-1.5 5.7V52.9c0 .8.7 1.5 1.5 1.5.5 0 1-.3 1.3-.7l-.9 3.9-2.3 3.6c-.1.1-.2.3-.1.5 0 .3.1.6.3.8.2.2.5.4.8.4h.1c.4 0 .8-.2 1-.6l2.5-3.9c.1-.1.1-.3.2-.5l1.6-7v-.1l-.2-.5c0-.1 0-.1.1-.2.1 0 .1 0 .2.1l.9 1.9.1.1.3.3 2.2.8-1.3 2.6-.1-.1-2.2-1.8-.5 2.2 1.6 1.4v.7l-1.9 3.9s0 .3.2.4c.1 0 .3 0 .4-.1.1-.2.6-1.3 1.3-2.6v1.8c.1.5.5.9 1 .9.3 0 .6-.1.8-.3.2-.2.3-.5.4-.8v-4.2c0-.3-.1-.6-.3-.9l-.1-.1c.7-1.4 1.3-2.6 1.4-2.9.3.3.7 0 .7-.5z"/></g><g><path class="st4" d="M358.9 67.4c-.1 0-.3 0-.4-.1-.4-.1-.6-.5-.7-.9l-.3-4-1.3-1 .9-1.8 2.2 1.6h.1c.1.1.2.2.2.3l.3 4.7c0 .3-.1.5-.3.7-.1.4-.4.5-.7.5zm-3.8-13.7c-.1 0-.2 0-.3-.1-.1-.1-.2-.2-.3-.4-.5-.9-.3-2 .6-2.5.6-.4 1.4-.4 2 0 .3-.5.9-.8 1.4-.8 1 0 1.8.8 1.8 1.8s-.8 1.7-1.8 1.7c-.8 0-1.5-.6-1.7-1.4-.2 0-.3.1-.5.2-.4.3-.7.7-.8 1.2 0 .2-.1.3-.3.4 0-.1-.1-.1-.1-.1z"/><path class="st4" d="M362.5 67.8c-.2 0-.4-.2-.4-.4l-.7-10.1-2 .5h-.3c-.3 0-.6-.1-.8-.4l-.4-.4-1.7 3.9-2.7 5.8c-.2.4-.5.6-.9.6-.1 0-.3 0-.4-.1-.3-.1-.5-.3-.6-.6-.1-.2-.1-.5 0-.8l2.7-5.8.4-1.4c-.3.1-.6.1-.9 0-.3-.1-.6-.3-.8-.7-.2-.3-.2-.7-.1-1.1l.5-1.9c.2-.7 1-1.2 1.7-.9.3.1.5.2.7.5.2-.6.8-1 1.4-1 .5 0 .9.2 1.2.6l.1.1 1 1.1 2.4-.6h.3c.5 0 1 .3 1.1.8.1.3 0 .6-.1.9-.2.3-.4.4-.7.5l-.2.1.7 10.3c0 .2-.2.4-.5.5zm-13.7-15.7c-.9 0-1.6-.7-1.6-1.6 0-.9.7-1.6 1.6-1.6.9 0 1.6.7 1.6 1.6-.1.9-.8 1.6-1.6 1.6zm3.6 5.3c0-.3-.1-.6-.4-.7l-2.4-.8-1.1-2.9c-.2-.5-.7-.9-1.3-1-.6-.1-1.1.2-1.4.6.1-.3.1-.5.1-.5v-.4c0-.8-.7-1.5-1.5-1.5-.7 0-1.3.5-1.5 1.2l-1.5 5.7V57.4c0 .8.7 1.5 1.5 1.5.5 0 1-.3 1.3-.7l-.9 3.9-2.3 3.6c-.1.1-.2.3-.1.5 0 .3.1.6.3.8.2.2.5.4.8.4h.1c.4 0 .8-.2 1-.6l2.5-3.9c.1-.1.1-.3.2-.5l1.6-7v-.1l-.2-.5c0-.1 0-.1.1-.2.1 0 .1 0 .2.1l.9 1.9.1.1.3.3 2.2.8-1.3 2.6-.1-.1-2.2-1.8-.5 2.2 1.6 1.4v.7l-1.9 3.9s0 .3.2.4c.1 0 .3 0 .4-.1.1-.2.6-1.3 1.3-2.6v1.8c.1.5.5.9 1 .9.3 0 .6-.1.8-.3.2-.2.3-.5.4-.8v-4.2c0-.3-.1-.6-.3-.9l-.1-.1c.7-1.4 1.3-2.6 1.4-2.9.2.2.6-.1.7-.5z"/></g><g><path class="st4" d="M413.5 34.7l-6 13.9c.8 2.4 3.5 4.6 5.9 9.2h12.3l-12.2-23.1z"/><path class="st4" d="M403.4 52.1c-3.2-2.7.3-7.1 3.2-8.1l-2-1.7-12 15.6h17.5c-1.8-2.5-4.3-3.8-6.2-5.2l-.5-.6z"/></g><g><path class="st4" d="M532.1 51.5h23.2l-1.9-3.1h4.2l-7.8-13.1-2.2 3.7-3-4.8V31h8l-3.4-3.8 3.4-3.8h-9.8v10.8l-2.8 4.5-2-3.4-7.8 13.1h3.8l-1.9 3.1z"/></g><g><path class="st4" d="M322.7 50.7c-.5.2-1.1.3-1.7.3-.6 0-1.1-.1-1.7-.3-.5-.2-.9-.3-1.4-.3-.5 0-1 .1-1.4.3-.5.2-1.1.3-1.7.3-.6 0-1.1-.1-1.7-.3-.5-.2-.9-.3-1.4-.3-.5 0-1 .1-1.4.3-.5.2-1.1.3-1.7.3-.6 0-1.1-.1-1.7-.3-.4-.1-.9-.2-1.3-.3l.9 1.4 1.5-.2 1.1 2.7 1.1.2 1.6 3.1 1.9-.3 1.5 3.2h.9l1.1-1.4 1.1-.7.3-1.7 1.4.2 1.6-4 1.3.2 1.2-2.6h-.1c-.4 0-.9 0-1.3.2z"/><path class="st4" d="M327.2 49.4c-.3-.1-.7-.2-1-.2-.5-.1-1-.3-1.5-.3l-1.5-2.1-.3.1-1-1.9-.7.7-1.3-2.9-1 1-3.1-6.4-.3.4-.6 1.8 1.4 2.1-.7.5-1.7-2.4.5-1.7-.2-.1-.7.5-1.7 3.9.5 1.4 1.1 1.2-.6.5-1.2-1.3-.5-1.3-.4-.1-1.6 2 1.4.9-.4.7-1.5-1h-.6l-3 3.6c-.6.1-1.2.2-1.8.4-.3.1-.7.2-1 .2-.2 0-.4.3-.3.5 0 .2.3.4.5.3.4-.1.7-.2 1-.3.5-.2 1.1-.3 1.6-.3h.3c.5 0 1 .1 1.4.3.5.2 1.1.3 1.7.3.6 0 1.1-.1 1.7-.3.5-.2.9-.3 1.4-.3.5 0 1 .1 1.4.3.5.2 1.1.3 1.7.3.6 0 1.1-.1 1.7-.3.5-.2.9-.3 1.4-.3.5 0 1 .1 1.4.3.5.2 1.1.3 1.7.3.6 0 1.1-.1 1.7-.3.5-.2.9-.3 1.4-.3h.4c.5.1 1.1.2 1.6.3.3.1.7.2 1 .3h.1c.2 0 .4-.1.4-.4.2-.4.1-.6-.2-.6z"/></g><g><text transform="translate(70.592 234.582)" class="st4 st2 st5">День 2</text><text transform="translate(631.592 234.582)" class="st4 st2 st5">День 13</text><text transform="translate(663.926 234.582)" class="st4 st2 st5">День 14</text><text transform="translate(118.592 234.582)" class="st4 st2 st5">День 3-4</text><text transform="translate(172.593 234.582)" class="st4 st2 st5">День 5</text><text transform="translate(211.592 234.582)" class="st4 st2 st5">День 6</text><text transform="translate(589.592 234.582)" class="st4 st2 st5">День 12</text><text transform="translate(264.592 234.582)" class="st4 st2 st5">День 7-8</text><text transform="translate(354.592 234.582)" class="st4 st2 st5">День 9</text><text transform="translate(428.592 234.582)" class="st4 st2 st5">День 10</text><text transform="translate(495.592 234.582)" class="st4 st2 st5">День 11</text><g class="st7"><path class="st8" d="M141.1 122.8c.2-.2.2-.5.1-.8-.1-.1-.2-.3-.4-.3l-3.2-1.7c-.1 0-.1-.1-.2-.1-.4-.8-1.4-1.2-2.3-.8-.3.1-.5.3-.6.5-.1-.1-.3-.1-.4 0 0 0-3.5 1.8-3.6 1.9-.2.3 0 .8.4 1l2.5 1.6c.1 0 .2.1.2.1-.1.6-.2 1.9-.2 2.4-.1.7-.2 1.4-.3 2 0 0-2.2-.4-2.3-.4-.5-.1-.9.1-1.2.6l-2.8 4.8c-.2.4-.2.9.2 1.1.3.2.8.1 1.1-.3l2.2-3.3.5 5.1c0 .5.4.8.8.8s.7-.4.7-.9c0 0-.1-5.6-.1-5.7l3.2.9c.6.2 1.3-.2 1.4-.8 0-.1.1-.4.1-.6 0 0 .4-1.6.6-2.9.1-.4.1-1.4.2-2.1.1 0 .2-.1.3-.1l2.8-1.8c.1 0 .2-.1.3-.2zm-3.8.4c-.2-.2-.4-.3-.7-.3l-1.3-.1c-.2 0-.5 0-.7.1-.1 0-.1-.1-.2-.1l-1.8-.9 1.7-1c.1.9.9 1.6 1.9 1.5.6-.1 1.2-.5 1.4-1.1l1.6 1-1.9.9z"/></g><path class="Graphic_x0020_Style_x0020_2" d="M141.1 122.8c.2-.2.2-.5.1-.8-.1-.1-.2-.3-.4-.3l-3.2-1.7c-.1 0-.1-.1-.2-.1-.4-.8-1.4-1.2-2.3-.8-.3.1-.5.3-.6.5-.1-.1-.3-.1-.4 0 0 0-3.5 1.8-3.6 1.9-.2.3 0 .8.4 1l2.5 1.6c.1 0 .2.1.2.1-.1.6-.2 1.9-.2 2.4-.1.7-.2 1.4-.3 2 0 0-2.2-.4-2.3-.4-.5-.1-.9.1-1.2.6l-2.8 4.8c-.2.4-.2.9.2 1.1.3.2.8.1 1.1-.3l2.2-3.3.5 5.1c0 .5.4.8.8.8s.7-.4.7-.9c0 0-.1-5.6-.1-5.7l3.2.9c.6.2 1.3-.2 1.4-.8 0-.1.1-.4.1-.6 0 0 .4-1.6.6-2.9.1-.4.1-1.4.2-2.1.1 0 .2-.1.3-.1l2.8-1.8c.1 0 .2-.1.3-.2zm-3.8.4c-.2-.2-.4-.3-.7-.3l-1.3-.1c-.2 0-.5 0-.7.1-.1 0-.1-.1-.2-.1l-1.8-.9 1.7-1c.1.9.9 1.6 1.9 1.5.6-.1 1.2-.5 1.4-1.1l1.6 1-1.9.9z"/><g class="st7"><path class="st8" d="M283.3 60.6c.2-.2.2-.5.1-.8-.1-.1-.2-.3-.4-.3l-3.2-1.7c-.1 0-.1-.1-.2-.1-.4-.8-1.4-1.2-2.3-.8-.3.1-.5.3-.6.5-.1-.1-.3-.1-.4 0 0 0-3.5 1.8-3.6 1.9-.2.3 0 .8.4 1l2.5 1.6c.1 0 .2.1.2.1-.1.6-.2 1.9-.2 2.4-.1.7-.2 1.4-.3 2 0 0-2.2-.4-2.3-.4-.5-.1-.9.1-1.2.6l-2.8 4.8c-.2.4-.2.9.2 1.1.3.2.8.1 1.1-.3l2.2-3.3.5 5.1c0 .5.4.8.8.8s.7-.4.7-.9c0 0-.1-5.6-.1-5.7l3.2.9c.6.2 1.3-.2 1.4-.8 0-.1.1-.4.1-.6 0 0 .4-1.6.6-2.9.1-.4.1-1.4.2-2.1.1 0 .2-.1.3-.1l2.8-1.8s.2-.1.3-.2zm-3.9.4c-.2-.2-.4-.3-.7-.3l-1.3-.1c-.2 0-.5 0-.7.1-.1 0-.1-.1-.2-.1l-1.8-.9 1.7-1c.1.9.9 1.6 1.9 1.5.6-.1 1.2-.5 1.4-1.1l1.6 1-1.9.9z"/></g><path class="Graphic_x0020_Style_x0020_2" d="M283.3 60.6c.2-.2.2-.5.1-.8-.1-.1-.2-.3-.4-.3l-3.2-1.7c-.1 0-.1-.1-.2-.1-.4-.8-1.4-1.2-2.3-.8-.3.1-.5.3-.6.5-.1-.1-.3-.1-.4 0 0 0-3.5 1.8-3.6 1.9-.2.3 0 .8.4 1l2.5 1.6c.1 0 .2.1.2.1-.1.6-.2 1.9-.2 2.4-.1.7-.2 1.4-.3 2 0 0-2.2-.4-2.3-.4-.5-.1-.9.1-1.2.6l-2.8 4.8c-.2.4-.2.9.2 1.1.3.2.8.1 1.1-.3l2.2-3.3.5 5.1c0 .5.4.8.8.8s.7-.4.7-.9c0 0-.1-5.6-.1-5.7l3.2.9c.6.2 1.3-.2 1.4-.8 0-.1.1-.4.1-.6 0 0 .4-1.6.6-2.9.1-.4.1-1.4.2-2.1.1 0 .2-.1.3-.1l2.8-1.8s.2-.1.3-.2zm-3.9.4c-.2-.2-.4-.3-.7-.3l-1.3-.1c-.2 0-.5 0-.7.1-.1 0-.1-.1-.2-.1l-1.8-.9 1.7-1c.1.9.9 1.6 1.9 1.5.6-.1 1.2-.5 1.4-1.1l1.6 1-1.9.9zM38 168.6s-.3-.3-2.1-.8c-.6-.2-1-.4-1.4-.6l-.3-.1c-.4-.2-1-.9-1-.9-.3-.3-.8-.4-1.5-.5-.7-.1-1.6-.2-2.8-.3-.6-.2-1.1-.3-1.7-.4l-.5-.9h.3v-.2l.9-.3c.5-.2.2-.3-.1-.4-.3-.2-.7-.3-.7-.3l-.1-.1c0-.2 0-.3-.1-.3-.4-.2-.9-.1-.9-.1l-.3-.1-2-3.8c-.1-.3-.4-.7-.6-.8-.7-.1-2 0-3.1-.1-.2 0-.3.1-.4.3v.1c.5 2.2 1.3 5 1.1 5l-.4.3.4 1.6c-.8-.1-1.7-.2-1.8-.2h-1c-.1 0-3.3-.9-3.8-1-.5-.1-.5-.4-.5-.4l-.8-2.2s0-.3-.3-.4c-.3-.1-1.2-.1-1.4-.2-.3 0-.4.2-.4.2l-.8 3s-.1.6-.6.9c-.5.3.3.5.3.5l.1.1-1.2 1.6c-.1.1-.1.3.1.4 0 0 .1 0 .1.1l1.8.4c.1 0 .2 0 .3-.1l1.1-1.1h.1l1.9.6.5-.1c.1 0 3.9 1.2 4.3 1.2.3 0 .9.1 1.6.1l-.8 1.6.3.4c.2 0-1.2 2.5-2.2 4.6-.1.2 0 .4.2.4h.1c1.1.2 2.4.5 3.1.6.3 0 .6-.4.8-.6l3.1-3.7c.9.3 2.1.2 2.1.2l.5-.1v-.2l.9-.3c.5-.2.2-.3-.1-.4-.3-.2-.7-.3-.7-.3l-.1-.1c0-.2 0-.3-.1-.3-.4-.2-.9-.1-.9-.1h-.1l.6-.7c1.2-.2 1.5-.1 1.5-.1.1 0 8.4.9 8.5.9h1.1c1.2-.6-.1-1.5-.1-1.5zm-18.6-3c0 .1-.1.2-.2.2l-.5-.1c-.1 0-.2-.1-.2-.2v-.3c0-.1.1-.2.2-.2l.5.1c.1 0 .2.1.2.2v.3zm1.6.3c0 .1-.1.2-.2.2l-.5-.1c-.1 0-.2-.1-.2-.2v-.3c0-.1.1-.2.2-.2l.5.1c.1 0 .2.1.2.2v.3zm1.4.1c0 .1-.1.2-.2.2l-.5-.1c-.1 0-.2-.1-.2-.2v-.3c0-.1.1-.2.2-.2l.5.1c.1 0 .2.1.2.2v.3zm1.4.1c0 .1-.1.2-.2.2l-.5-.1c-.1 0-.2-.1-.2-.2v-.3c0-.1.1-.2.2-.2l.5.1c.1 0 .2.1.2.2v.3zm1.8.2c0 .1-.1.2-.2.2l-.5-.1c-.1 0-.2-.1-.2-.2v-.3c0-.1.1-.2.2-.2h.5c.1 0 .2.1.2.2v.4zm1.2.1c0 .1-.1.2-.2.2l-.5-.1c-.1 0-.2-.1-.2-.2v-.3c0-.1.1-.2.2-.2l.5.1c.1 0 .2.1.2.2v.3zm1.8.2c0 .1-.1.2-.2.2l-.5-.1c-.1 0-.2-.1-.2-.2v-.3c0-.1.1-.2.2-.2l.5.1c.1 0 .2.1.2.2v.3zm1.4.1c0 .1-.1.2-.2.2l-.5-.1c-.1 0-.2-.1-.2-.2v-.3c0-.1.1-.2.2-.2l.5.1c.1 0 .2.1.2.2v.3zm1.1.1c0 .1-.1.2-.2.2l-.5-.1c-.1 0-.2-.1-.2-.2v-.3c0-.1.1-.2.2-.2l.5.1c.1 0 .2.1.2.2v.3zm2 .6c-.6-.1-.7 0-.7-.3s.1-.7.1-.7 0-.1.2-.2c.1 0 .4 0 .5-.1.3.4.6.7 1 .9l.1.1h-.1c-.3.2-.6.3-1.1.3z"/><path class="Graphic_x0020_Style_x0020_2" d="M9.7 163.5c0-.1.5-2 .6-2.2H9.2c-.2 0-.3.1-.3.3v.1l.8 1.8zM697.2 163.4s-.3-.3-2.1-.8c-.6-.2-1-.4-1.4-.6l-.3-.1c-.4-.2-1-.9-1-.9-.3-.3-.8-.4-1.5-.5s-1.6-.2-2.8-.3c-.6-.2-1.1-.3-1.7-.4l-.5-.9h.3v-.2l.9-.3c.5-.2.2-.3-.1-.4-.3-.2-.7-.3-.7-.3l-.1-.1c0-.2 0-.3-.1-.3-.4-.2-.9-.1-.9-.1l-.3-.1-2-3.8c-.1-.3-.4-.7-.6-.8-.7-.1-2 0-3.1-.1-.2 0-.3.1-.4.3v.1c.5 2.2 1.3 5 1.1 5l-.4.3.4 1.6c-.8-.1-1.7-.2-1.8-.2h-1c-.1 0-3.3-.9-3.8-1-.5-.1-.5-.4-.5-.4l-.8-2.2s0-.3-.3-.4c-.3-.1-1.2-.1-1.4-.2-.3 0-.4.2-.4.2l-.8 3s-.1.6-.6.9c-.5.3.3.5.3.5l.1.1-1.2 1.6c-.1.1-.1.3.1.4 0 0 .1 0 .1.1l1.8.4c.1 0 .2 0 .3-.1l1.1-1.1h.1l1.9.6.5-.1c.1 0 3.9 1.2 4.3 1.2.3 0 .9.1 1.6.1l-.8 1.6.3.4c.2 0-1.2 2.5-2.2 4.6-.1.2 0 .4.2.4h.1c1.1.2 2.4.5 3.1.6.3 0 .6-.4.8-.6l3.1-3.7c.9.3 2.1.2 2.1.2l.5-.1v-.2l.9-.3c.5-.2.2-.3-.1-.4-.3-.2-.7-.3-.7-.3l-.1-.1c0-.2 0-.3-.1-.3-.4-.2-.9-.1-.9-.1h-.1l.6-.7c1.2-.2 1.5-.1 1.5-.1.1 0 8.4.9 8.5.9h1.1c1.3-.6 0-1.5-.1-1.5zm-18.6-2.9c0 .1-.1.2-.2.2l-.5-.1c-.1 0-.2-.1-.2-.2v-.3c0-.1.1-.2.2-.2l.5.1c.1 0 .2.1.2.2v.3zm1.6.2c0 .1-.1.2-.2.2l-.5-.1c-.1 0-.2-.1-.2-.2v-.3c0-.1.1-.2.2-.2l.5.1c.1 0 .2.1.2.2v.3zm1.4.1c0 .1-.1.2-.2.2l-.5-.1c-.1 0-.2-.1-.2-.2v-.3c0-.1.1-.2.2-.2l.5.1c.1 0 .2.1.2.2v.3zm1.4.2c0 .1-.1.2-.2.2l-.5-.1c-.1 0-.2-.1-.2-.2v-.3c0-.1.1-.2.2-.2l.5.1c.1 0 .2.1.2.2v.3zm1.8.2c0 .1-.1.2-.2.2l-.5-.1c-.1 0-.2-.1-.2-.2v-.3c0-.1.1-.2.2-.2h.5c.1 0 .2.1.2.2v.4zm1.2.1c0 .1-.1.2-.2.2l-.5-.1c-.1 0-.2-.1-.2-.2v-.3c0-.1.1-.2.2-.2l.5.1c.1 0 .2.1.2.2v.3zm1.9.1c0 .1-.1.2-.2.2l-.5-.1c-.1 0-.2-.1-.2-.2v-.3c0-.1.1-.2.2-.2l.5.1c.1 0 .2.1.2.2v.3zm1.4.2c0 .1-.1.2-.2.2l-.5-.1c-.1 0-.2-.1-.2-.2v-.3c0-.1.1-.2.2-.2l.5.1c.1 0 .2.1.2.2v.3zm1 .1c0 .1-.1.2-.2.2l-.5-.1c-.1 0-.2-.1-.2-.2v-.3c0-.1.1-.2.2-.2l.5.1c.1 0 .2.1.2.2v.3zm2 .5c-.6-.1-.7 0-.7-.3s.1-.7.1-.7 0-.1.2-.2c.1 0 .4 0 .5-.1.3.4.6.7 1 .9l.1.1h-.1c-.3.2-.6.4-1.1.3z"/><path class="Graphic_x0020_Style_x0020_2" d="M669 158.4c0-.1.5-2 .6-2.2h-1.1c-.2 0-.3.1-.3.3v.1l.8 1.8zM68.3 162.3c-.1 0-.3 0-.4-.1-.4-.1-.6-.5-.7-.9l-.3-4-1.3-1 .9-1.8 2.2 1.6h.1c.1.1.2.2.2.3l.3 4.7c0 .3-.1.5-.3.7-.1.4-.4.5-.7.5zm-3.8-13.7c-.1 0-.2 0-.3-.1-.1-.1-.2-.2-.3-.4-.5-.9-.3-2 .6-2.5.6-.4 1.4-.4 2 0 .3-.5.9-.8 1.4-.8 1 0 1.8.8 1.8 1.8s-.8 1.7-1.8 1.7c-.8 0-1.5-.6-1.7-1.4-.2 0-.3.1-.5.2-.4.3-.7.7-.8 1.2 0 .2-.1.3-.3.4 0-.1-.1-.1-.1-.1z"/><path class="Graphic_x0020_Style_x0020_2" d="M71.9 162.7c-.2 0-.4-.2-.4-.4l-.7-10.1-2 .5h-.3c-.3 0-.6-.1-.8-.4l-.4-.4-1.7 3.9-2.7 5.8c-.2.4-.5.6-.9.6-.1 0-.3 0-.4-.1-.3-.1-.5-.3-.6-.6-.1-.2-.1-.5 0-.8l2.7-5.8.4-1.4c-.3.1-.6.1-.9 0-.3-.1-.6-.3-.8-.7-.2-.3-.2-.7-.1-1.1l.5-1.9c.2-.7 1-1.2 1.7-.9.3.1.5.2.7.5.2-.6.8-1 1.4-1 .5 0 .9.2 1.2.6l.1.1 1 1.1 2.4-.6h.3c.5 0 1 .3 1.1.8.1.3 0 .6-.1.9-.2.3-.4.4-.7.5l-.2.1.7 10.3c0 .2-.2.4-.5.5zM58.2 147c-.9 0-1.6-.7-1.6-1.6s.7-1.6 1.6-1.6 1.6.7 1.6 1.6c-.1.9-.8 1.6-1.6 1.6zm3.5 5.3c0-.3-.1-.6-.4-.7l-2.4-.8-1.1-2.9c-.2-.5-.7-.9-1.3-1-.6-.1-1.1.2-1.4.6.1-.3.1-.5.1-.5v-.4c0-.8-.7-1.5-1.5-1.5-.7 0-1.3.5-1.5 1.2l-1.5 5.7V152.3c0 .8.7 1.5 1.5 1.5.5 0 1-.3 1.3-.7l-.9 3.9-2.3 3.6c-.1.1-.2.3-.1.5 0 .3.1.6.3.8.2.2.5.4.8.4h.1c.4 0 .8-.2 1-.6l2.5-3.9c.1-.1.1-.3.2-.5l1.6-7v-.1l-.2-.5c0-.1 0-.1.1-.2.1 0 .1 0 .2.1l.9 1.9.1.1.3.3 2.2.8-1.3 2.6-.1-.1-2.2-1.8-.5 2.2 1.6 1.4v.7l-1.9 3.9s0 .3.2.4c.1 0 .3 0 .4-.1.1-.2.6-1.3 1.3-2.6v1.8c.1.5.5.9 1 .9.3 0 .6-.1.8-.3.2-.2.3-.5.4-.8v-4.2c0-.3-.1-.6-.3-.9l-.1-.1c.7-1.4 1.3-2.6 1.4-2.9.3.2.7-.1.7-.5zM202.6 92.2c-.1 0-.3 0-.4-.1-.4-.1-.6-.5-.7-.9l-.3-4-1.3-1 .9-1.8L203 86h.1c.1.1.2.2.2.3l.3 4.7c0 .3-.1.5-.3.7-.1.3-.4.5-.7.5zm-3.8-13.7c-.1 0-.2 0-.3-.1-.1-.1-.2-.2-.3-.4-.5-.9-.3-2 .6-2.5.6-.4 1.4-.4 2 0 .3-.5.9-.8 1.4-.8 1 0 1.8.8 1.8 1.8s-.8 1.7-1.8 1.7c-.8 0-1.5-.6-1.7-1.4-.2 0-.3.1-.5.2-.4.3-.7.7-.8 1.2 0 .2-.1.3-.3.4 0-.1-.1-.1-.1-.1z"/><path class="Graphic_x0020_Style_x0020_2" d="M206.2 92.5c-.2 0-.4-.2-.4-.4l-.7-10.1-2 .5h-.3c-.3 0-.6-.1-.8-.4l-.4-.4-1.7 3.9-2.7 5.8c-.2.4-.5.6-.9.6-.1 0-.3 0-.4-.1-.3-.1-.5-.3-.6-.6-.1-.2-.1-.5 0-.8l2.7-5.8.4-1.4c-.3.1-.6.1-.9 0-.3-.1-.6-.3-.8-.7-.2-.3-.2-.7-.1-1.1l.5-1.9c.2-.7 1-1.2 1.7-.9.3.1.5.2.7.5.2-.6.8-1 1.4-1 .5 0 .9.2 1.2.6l.1.1 1 1.1 2.4-.6h.3c.5 0 1 .3 1.1.8.1.3 0 .6-.1.9-.2.3-.4.4-.7.5l-.2.1.7 10.3c0 .3-.2.5-.5.5zm-13.7-15.7c-.9 0-1.6-.7-1.6-1.6s.7-1.6 1.6-1.6 1.6.7 1.6 1.6c-.1.9-.8 1.6-1.6 1.6zm3.5 5.3c0-.3-.1-.6-.4-.7l-2.4-.8-1.1-2.9c-.2-.5-.7-.9-1.3-1-.6-.1-1.1.2-1.4.6.1-.3.1-.5.1-.5v-.4c0-.8-.7-1.5-1.5-1.5-.7 0-1.3.5-1.5 1.2l-1.5 5.7v.2c0 .8.7 1.5 1.5 1.5.5 0 1-.3 1.3-.7l-.9 3.9-2.3 3.6c-.1.1-.2.3-.1.5 0 .3.1.6.3.8.2.2.5.4.8.4h.1c.4 0 .8-.2 1-.6l2.5-3.9c.1-.1.1-.3.2-.5l1.6-7v-.1l-.2-.5c0-.1 0-.1.1-.2.1 0 .1 0 .2.1l.9 1.9.1.1.3.3 2.2.8-1.3 2.6-.1-.1-2.2-1.8-.5 2.2 1.6 1.4v.7l-1.9 3.9s0 .3.2.4c.1 0 .3 0 .4-.1.1-.2.6-1.3 1.3-2.6v1.8c.1.5.5.9 1 .9.3 0 .6-.1.8-.3.2-.2.3-.5.4-.8v-4.2c0-.3-.1-.6-.3-.9l-.1-.1c.7-1.4 1.3-2.6 1.4-2.9.3.4.7.1.7-.4z"/><g><path class="Graphic_x0020_Style_x0020_2" d="M616.8 110c-.1 0-.3 0-.4-.1-.4-.1-.6-.5-.7-.9l-.3-4-1.3-1 .9-1.8 2.2 1.6h.1c.1.1.2.2.2.3l.3 4.7c0 .3-.1.5-.3.7-.1.4-.4.5-.7.5zM613 96.3c-.1 0-.2 0-.3-.1-.1-.1-.2-.2-.3-.4-.5-.9-.3-2 .6-2.5.6-.4 1.4-.4 2 0 .3-.5.9-.8 1.4-.8 1 0 1.8.8 1.8 1.8s-.8 1.7-1.8 1.7c-.8 0-1.5-.6-1.7-1.4-.2 0-.3.1-.5.2-.4.3-.7.7-.8 1.2 0 .2-.1.3-.3.4 0-.1-.1-.1-.1-.1z"/><path class="Graphic_x0020_Style_x0020_2" d="M620.4 110.4c-.2 0-.4-.2-.4-.4l-.7-10.1-2 .5h-.3c-.3 0-.6-.1-.8-.4l-.4-.4-1.7 3.9-2.7 5.8c-.2.4-.5.6-.9.6-.1 0-.3 0-.4-.1-.3-.1-.5-.3-.6-.6-.1-.2-.1-.5 0-.8l2.7-5.8.4-1.4c-.3.1-.6.1-.9 0-.3-.1-.6-.3-.8-.7-.2-.3-.2-.7-.1-1.1l.5-1.9c.2-.7 1-1.2 1.7-.9.3.1.5.2.7.5.2-.6.8-1 1.4-1 .5 0 .9.2 1.2.6l.1.1 1 1.1 2.4-.6h.3c.5 0 1 .3 1.1.8.1.3 0 .6-.1.9-.2.3-.4.4-.7.5l-.2.1.7 10.3c-.1.2-.2.4-.5.5zm-13.8-15.7c-.9 0-1.6-.7-1.6-1.6s.7-1.6 1.6-1.6c.9 0 1.6.7 1.6 1.6 0 .9-.7 1.6-1.6 1.6zm3.6 5.3c0-.3-.1-.6-.4-.7l-2.4-.8-1.1-2.9c-.2-.5-.7-.9-1.3-1-.6-.1-1.1.2-1.4.6.1-.3.1-.5.1-.5v-.4c0-.8-.7-1.5-1.5-1.5-.7 0-1.3.5-1.5 1.2l-1.5 5.7V100c0 .8.7 1.5 1.5 1.5.5 0 1-.3 1.3-.7l-.9 3.9-2.3 3.6c-.1.1-.2.3-.1.5 0 .3.1.6.3.8.2.2.5.4.8.4h.1c.4 0 .8-.2 1-.6l2.5-3.9c.1-.1.1-.3.2-.5l1.6-7v-.1l-.2-.5c0-.1 0-.1.1-.2.1 0 .1 0 .2.1l.9 1.9.1.1.3.3 2.2.8-1.3 2.6-.1-.1-2.2-1.8-.5 2.2 1.6 1.4v.7l-1.9 3.9s0 .3.2.4c.1 0 .3 0 .4-.1.1-.2.6-1.3 1.3-2.6v1.8c.1.5.5.9 1 .9.3 0 .6-.1.8-.3.2-.2.3-.5.4-.8v-4.2c0-.3-.1-.6-.3-.9l-.1-.1c.7-1.4 1.3-2.6 1.4-2.9.3.2.7-.1.7-.5z"/></g><g><path class="Graphic_x0020_Style_x0020_2" d="M484.2 63c-.1 0-.3 0-.4-.1-.4-.1-.6-.5-.7-.9l-.3-4-1.3-1 .9-1.8 2.2 1.6h.1c.1.1.2.2.2.3l.3 4.7c0 .3-.1.5-.3.7-.2.3-.4.5-.7.5zm-3.9-13.7c-.1 0-.2 0-.3-.1-.1-.1-.2-.2-.3-.4-.5-.9-.3-2 .6-2.5.6-.4 1.4-.4 2 0 .3-.5.9-.8 1.4-.8 1 0 1.8.8 1.8 1.8s-.8 1.7-1.8 1.7c-.8 0-1.5-.6-1.7-1.4-.2 0-.3.1-.5.2-.4.3-.7.7-.8 1.2 0 .2-.1.3-.3.4.1-.1 0-.1-.1-.1z"/><path class="Graphic_x0020_Style_x0020_2" d="M487.8 63.3c-.2 0-.4-.2-.4-.4l-.7-10.1-2 .5h-.3c-.3 0-.6-.1-.8-.4l-.4-.4-1.7 3.9-2.7 5.8c-.2.4-.5.6-.9.6-.1 0-.3 0-.4-.1-.3-.1-.5-.3-.6-.6-.1-.2-.1-.5 0-.8l2.7-5.8.4-1.4c-.3.1-.6.1-.9 0-.3-.1-.6-.3-.8-.7-.2-.3-.2-.7-.1-1.1l.5-1.9c.2-.7 1-1.2 1.7-.9.3.1.5.2.7.5.2-.6.8-1 1.4-1 .5 0 .9.2 1.2.6l.1.1 1 1.1 2.4-.6h.3c.5 0 1 .3 1.1.8.1.3 0 .6-.1.9-.2.3-.4.4-.7.5l-.2.1.7 10.3c-.1.3-.2.5-.5.5zM474 47.6c-.9 0-1.6-.7-1.6-1.6 0-.9.7-1.6 1.6-1.6.9 0 1.6.7 1.6 1.6 0 .9-.7 1.6-1.6 1.6zm3.6 5.3c0-.3-.1-.6-.4-.7l-2.4-.8-1.1-2.9c-.2-.5-.7-.9-1.3-1-.6-.1-1.1.2-1.4.6.1-.3.1-.5.1-.5v-.4c0-.8-.7-1.5-1.5-1.5-.7 0-1.3.5-1.5 1.2l-1.5 5.7V52.9c0 .8.7 1.5 1.5 1.5.5 0 1-.3 1.3-.7l-.9 3.9-2.3 3.6c-.1.1-.2.3-.1.5 0 .3.1.6.3.8.2.2.5.4.8.4h.1c.4 0 .8-.2 1-.6l2.5-3.9c.1-.1.1-.3.2-.5l1.6-7v-.1l-.2-.5c0-.1 0-.1.1-.2.1 0 .1 0 .2.1l.9 1.9.1.1.3.3 2.2.8-1.3 2.6-.1-.1-2.2-1.8-.5 2.2 1.6 1.4v.7l-1.9 3.9s0 .3.2.4c.1 0 .3 0 .4-.1.1-.2.6-1.3 1.3-2.6v1.8c.1.5.5.9 1 .9.3 0 .6-.1.8-.3.2-.2.3-.5.4-.8v-4.2c0-.3-.1-.6-.3-.9l-.1-.1c.7-1.4 1.3-2.6 1.4-2.9.3.3.7 0 .7-.5z"/></g><g><path class="Graphic_x0020_Style_x0020_2" d="M358.9 67.4c-.1 0-.3 0-.4-.1-.4-.1-.6-.5-.7-.9l-.3-4-1.3-1 .9-1.8 2.2 1.6h.1c.1.1.2.2.2.3l.3 4.7c0 .3-.1.5-.3.7-.1.4-.4.5-.7.5zm-3.8-13.7c-.1 0-.2 0-.3-.1-.1-.1-.2-.2-.3-.4-.5-.9-.3-2 .6-2.5.6-.4 1.4-.4 2 0 .3-.5.9-.8 1.4-.8 1 0 1.8.8 1.8 1.8s-.8 1.7-1.8 1.7c-.8 0-1.5-.6-1.7-1.4-.2 0-.3.1-.5.2-.4.3-.7.7-.8 1.2 0 .2-.1.3-.3.4 0-.1-.1-.1-.1-.1z"/><path class="Graphic_x0020_Style_x0020_2" d="M362.5 67.8c-.2 0-.4-.2-.4-.4l-.7-10.1-2 .5h-.3c-.3 0-.6-.1-.8-.4l-.4-.4-1.7 3.9-2.7 5.8c-.2.4-.5.6-.9.6-.1 0-.3 0-.4-.1-.3-.1-.5-.3-.6-.6-.1-.2-.1-.5 0-.8l2.7-5.8.4-1.4c-.3.1-.6.1-.9 0-.3-.1-.6-.3-.8-.7-.2-.3-.2-.7-.1-1.1l.5-1.9c.2-.7 1-1.2 1.7-.9.3.1.5.2.7.5.2-.6.8-1 1.4-1 .5 0 .9.2 1.2.6l.1.1 1 1.1 2.4-.6h.3c.5 0 1 .3 1.1.8.1.3 0 .6-.1.9-.2.3-.4.4-.7.5l-.2.1.7 10.3c0 .2-.2.4-.5.5zm-13.7-15.7c-.9 0-1.6-.7-1.6-1.6 0-.9.7-1.6 1.6-1.6.9 0 1.6.7 1.6 1.6-.1.9-.8 1.6-1.6 1.6zm3.6 5.3c0-.3-.1-.6-.4-.7l-2.4-.8-1.1-2.9c-.2-.5-.7-.9-1.3-1-.6-.1-1.1.2-1.4.6.1-.3.1-.5.1-.5v-.4c0-.8-.7-1.5-1.5-1.5-.7 0-1.3.5-1.5 1.2l-1.5 5.7V57.4c0 .8.7 1.5 1.5 1.5.5 0 1-.3 1.3-.7l-.9 3.9-2.3 3.6c-.1.1-.2.3-.1.5 0 .3.1.6.3.8.2.2.5.4.8.4h.1c.4 0 .8-.2 1-.6l2.5-3.9c.1-.1.1-.3.2-.5l1.6-7v-.1l-.2-.5c0-.1 0-.1.1-.2.1 0 .1 0 .2.1l.9 1.9.1.1.3.3 2.2.8-1.3 2.6-.1-.1-2.2-1.8-.5 2.2 1.6 1.4v.7l-1.9 3.9s0 .3.2.4c.1 0 .3 0 .4-.1.1-.2.6-1.3 1.3-2.6v1.8c.1.5.5.9 1 .9.3 0 .6-.1.8-.3.2-.2.3-.5.4-.8v-4.2c0-.3-.1-.6-.3-.9l-.1-.1c.7-1.4 1.3-2.6 1.4-2.9.2.2.6-.1.7-.5z"/></g><g><path class="Graphic_x0020_Style_x0020_2" d="M413.5 34.7l-6 13.9c.8 2.4 3.5 4.6 5.9 9.2h12.3l-12.2-23.1z"/><path class="Graphic_x0020_Style_x0020_2" d="M403.4 52.1c-3.2-2.7.3-7.1 3.2-8.1l-2-1.7-12 15.6h17.5c-1.8-2.5-4.3-3.8-6.2-5.2l-.5-.6z"/></g><g><path class="Graphic_x0020_Style_x0020_2" d="M532.1 51.5h23.2l-1.9-3.1h4.2l-7.8-13.1-2.2 3.7-3-4.8V31h8l-3.4-3.8 3.4-3.8h-9.8v10.8l-2.8 4.5-2-3.4-7.8 13.1h3.8l-1.9 3.1z"/></g><g><path class="Graphic_x0020_Style_x0020_2" d="M322.7 50.7c-.5.2-1.1.3-1.7.3-.6 0-1.1-.1-1.7-.3-.5-.2-.9-.3-1.4-.3-.5 0-1 .1-1.4.3-.5.2-1.1.3-1.7.3-.6 0-1.1-.1-1.7-.3-.5-.2-.9-.3-1.4-.3-.5 0-1 .1-1.4.3-.5.2-1.1.3-1.7.3-.6 0-1.1-.1-1.7-.3-.4-.1-.9-.2-1.3-.3l.9 1.4 1.5-.2 1.1 2.7 1.1.2 1.6 3.1 1.9-.3 1.5 3.2h.9l1.1-1.4 1.1-.7.3-1.7 1.4.2 1.6-4 1.3.2 1.2-2.6h-.1c-.4 0-.9 0-1.3.2z"/><path class="Graphic_x0020_Style_x0020_2" d="M327.2 49.4c-.3-.1-.7-.2-1-.2-.5-.1-1-.3-1.5-.3l-1.5-2.1-.3.1-1-1.9-.7.7-1.3-2.9-1 1-3.1-6.4-.3.4-.6 1.8 1.4 2.1-.7.5-1.7-2.4.5-1.7-.2-.1-.7.5-1.7 3.9.5 1.4 1.1 1.2-.6.5-1.2-1.3-.5-1.3-.4-.1-1.6 2 1.4.9-.4.7-1.5-1h-.6l-3 3.6c-.6.1-1.2.2-1.8.4-.3.1-.7.2-1 .2-.2 0-.4.3-.3.5 0 .2.3.4.5.3.4-.1.7-.2 1-.3.5-.2 1.1-.3 1.6-.3h.3c.5 0 1 .1 1.4.3.5.2 1.1.3 1.7.3.6 0 1.1-.1 1.7-.3.5-.2.9-.3 1.4-.3.5 0 1 .1 1.4.3.5.2 1.1.3 1.7.3.6 0 1.1-.1 1.7-.3.5-.2.9-.3 1.4-.3.5 0 1 .1 1.4.3.5.2 1.1.3 1.7.3.6 0 1.1-.1 1.7-.3.5-.2.9-.3 1.4-.3h.4c.5.1 1.1.2 1.6.3.3.1.7.2 1 .3h.1c.2 0 .4-.1.4-.4.2-.4.1-.6-.2-.6z"/></g></g></g><g id="Layer_6" class="st0"><g class="st9"><path class="st8" d="M0 226.2h689.8V239H0z"/><path class="st8" d="M0 226.2h689.8V239H0z"/><g><path class="st8" d="M0 0h31v239H0z"/><path class="st8" d="M0 0h31v239H0z"/></g></g><g class="st9"><path opacity=".5" fill="#f40" d="M0 226.2h689.8V239H0z"/><path opacity=".3" fill="#f40" d="M0 0h31v239H0z"/></g></g></svg>