<svg version="1.1" xmlns="http://www.w3.org/2000/svg" xmlns:xlink="http://www.w3.org/1999/xlink" x="0px" y="0px"
	 viewBox="0 0 287.7 80.4" style="enable-background:new 0 0 287.7 80.4;" xml:space="preserve">
<style type="text/css">
	.Graphic_x0020_Style_x0020_7{fill:#EF4823;fill-opacity:0.5;}
	.st0{fill:url(#eria_1_);}
	.st1{font-family:'helvetica';}
	.st2{font-size:2.5px;}
	.st3{font-family:'helvetica';}
	.st4{font-size:4px;}
	.st5{fill:none;stroke:#000000;stroke-width:0.15;stroke-miterlimit:3;}
	.st6{fill:#4A4849;}
</style>
<g id="Layer_1">
	<linearGradient id="eria_1_" gradientUnits="userSpaceOnUse" x1="148.6421" y1="20.4057" x2="148.1983" y2="76.0983">
		<stop  offset="0" style="stop-color:#EF4923;stop-opacity:5.000000e-02"/>
		<stop  offset="1" style="stop-color:#EF4923;stop-opacity:0.7"/>
	</linearGradient>
	<polyline id="eria" class="st0" points="8.8,76.2 8.8,63.7 14.7,63.3 21.3,63.3 31.8,61.1 36.4,62.4 41.4,61.1 56.4,60.4 
		74.8,60.2 80.6,60.2 87.3,59.8 94,59 97.7,58 105.2,55.1 109,55.7 112.8,54.2 114,54.7 116.1,53.9 121.9,54.3 124.9,54.1 
		128.6,52.1 134,52 138.2,52.9 143.7,52.1 145.3,51.8 146.6,51.4 150.7,49.7 152.8,50.1 154.5,47.6 158.7,47.2 159.5,47.4 
		161.6,46.4 166.2,45.4 167,46.2 170,46 174.1,46.7 176.6,44.5 182.9,39.6 184.5,40.3 187,39.8 197.1,36.1 200,35.3 202.5,33.5 
		213.3,29.6 215,29 220,29.4 221.7,29.3 227.6,27.9 229.6,27.6 231.7,25.6 234.2,25.7 239.6,23.1 247.6,19.3 250.5,18.3 253.9,15.9 
		260.5,14.5 266.8,15.2 269.3,12.3 271.8,11.1 275.1,14.8 277.6,18.7 282.2,23 285.6,25.1 287.7,27.2 287.7,76.7 8.8,76.2 	"/>
	<path id="grid" class="Graphic_x0020_Style_x0020_7" d="M8.8,12.3h278.8 M8.8,23.9h278.8 M8.8,35.6h278.8 M8.8,47.3h278.8 M8.8,59
		h278.8"/>
</g>
<g id="altitude_grid">
	<text transform="matrix(1 0 0 1 0 2.124)" class="st1 st2">6000</text>
	<text transform="matrix(1 0 0 1 0 13.8135)" class="st1 st2">5000</text>
	<text transform="matrix(1 0 0 1 0 25.502)" class="st1 st2">4000</text>
	<text transform="matrix(1 0 0 1 0 37.1914)" class="st1 st2">3000</text>
	<text transform="matrix(1 0 0 1 0 48.8799)" class="st1 st2">2000</text>
	<text transform="matrix(1 0 0 1 0 60.5693)" class="st1 st2">1000</text>
	<text transform="matrix(1 0 0 1 2.458 72.2578)" class="st1 st2">0 м.</text>
</g>
<g id="names">
	<text transform="matrix(1 0 0 1 208.8398 16.2402)" class="st3 st4">Самагаон</text>
	<text transform="matrix(1 0 0 1 244.4863 10.0801)" class="st3 st4">(5100m)</text>
	<text transform="matrix(1 0 0 1 270.6172 4.6792)" class="st3 st4">Бимтанг</text>
	<text transform="matrix(1 0 0 1 243.4355 5.2041)" class="st3 st4">Ларкья Ла</text>
	<text transform="matrix(1 0 0 1 230.3086 17.7979)" class="st3 st4">Самдо</text>
	<text transform="matrix(1 0 0 1 216.9248 6.9311)" class="st3 st4">Дарамсала</text>
	<text transform="matrix(1 0 0 1 195.8555 20.7324)" class="st3 st4">Шьяла</text>
	<text transform="matrix(1 0 0 1 173.7646 27.8364)" class="st3 st4">Намрунг</text>
	<text transform="matrix(1 0 0 1 145.4102 36.0352)" class="st3 st4">Денг</text>
	<text transform="matrix(1 0 0 1 107.7705 40.5889)" class="st3 st4">Джагат</text>
	<text transform="matrix(1 0 0 1 53.8076 46.7358)" class="st3 st4">Мачха-Кхола</text>
	<text transform="matrix(1 0 0 1 26.4771 48.7876)" class="st3 st4">Сити Кхола</text>
	<text transform="matrix(1 0 0 1 12.6304 53.0591)" class="st3 st4">Аругат</text>
</g>
<g id="arrows">
	<polyline points="218.6,25.6 217.3,25.6 218,29.2 218.6,25.6 	"/>
	<polyline points="10.6,60.1 9.4,60.1 10,63.7 10.6,60.1 	"/>
	<polyline points="37,58.8 35.8,58.8 36.4,62.4 37,58.8 	"/>
	<polyline points="67,56.8 65.8,56.8 66.4,60.4 67,56.8 	"/>
	<polyline points="113.4,50.6 112.2,50.6 112.8,54.2 113.4,50.6 	"/>
	<polyline points="151.3,46.1 150.1,46.1 150.7,49.7 151.3,46.1 	"/>
	<polyline points="183.5,36 182.3,36 182.9,39.6 183.5,36 	"/>
	<polyline points="203.1,29.9 201.9,29.9 202.5,33.5 203.1,29.9 	"/>
	<polyline points="232.3,22 231.1,22 231.7,25.6 232.3,22 	"/>
	<polyline points="252.8,14.4 251.6,14.4 252.2,18 252.8,14.4 	"/>
	<polyline points="272.4,7.5 271.2,7.5 271.8,11.1 272.4,7.5 	"/>
	<polyline points="287.1,21.9 285.9,21.9 286.5,25.5 287.1,21.9 	"/>
	<polyline class="st5" points="271.8,7.5 271.8,6.4 261,6.4 	"/>
	<line class="st5" x1="218" y1="25.6" x2="218" y2="17.2"/>
	<line class="st5" x1="10" y1="60.1" x2="10" y2="51.7"/>
	<line class="st5" x1="36.4" y1="58.8" x2="36.4" y2="50.4"/>
	<line class="st5" x1="112.8" y1="50.6" x2="112.8" y2="42.2"/>
	<line class="st5" x1="150.7" y1="46.1" x2="150.7" y2="37.6"/>
	<line class="st5" x1="182.9" y1="36" x2="182.9" y2="28.8"/>
	<line class="st5" x1="202.5" y1="29.9" x2="202.5" y2="21.5"/>
	<line class="st5" x1="231.7" y1="22" x2="231.7" y2="18.4"/>
	<line class="st5" x1="286.5" y1="21.9" x2="286.5" y2="6.6"/>
	<line class="st5" x1="252.2" y1="14.4" x2="237.4" y2="7.9"/>
	<line class="st5" x1="66.4" y1="56.8" x2="66.4" y2="48.3"/>
</g>
<g id="days">
	<text transform="matrix(1 0 0 1 108.6758 79.8496)" class="st6 st1 st2">День 4</text>
	<text transform="matrix(1 0 0 1 32.6758 79.8496)" class="st6 st1 st2">День 2</text>
	<text transform="matrix(1 0 0 1 63.6758 79.8496)" class="st6 st1 st2">День 3</text>
	<text transform="matrix(1 0 0 1 147.6758 79.8496)" class="st6 st1 st2">День 5</text>
	<text transform="matrix(1 0 0 1 181.6758 79.8496)" class="st6 st1 st2">День 6</text>
	<text transform="matrix(1 0 0 1 201.6758 79.8496)" class="st6 st1 st2">День 7</text>
	<text transform="matrix(1 0 0 1 216.6758 79.8496)" class="st6 st1 st2">День 8</text>
	<text transform="matrix(1 0 0 1 232.6758 79.8496)" class="st6 st1 st2">День 9</text>
	<text transform="matrix(1 0 0 1 250.6758 79.8496)" class="st6 st1 st2">День 10</text>
	<text transform="matrix(1 0 0 1 277.6758 79.8496)" class="st6 st1 st2">День 11</text>
</g>
</svg>
