<svg xmlns="http://www.w3.org/2000/svg" viewBox="0 0 146.16 79.23"><defs><style>.cls-4{fill:none;stroke:#231f20}.cls-3,.cls-5,.cls-6{fill:#231f20}.cls-4{stroke-miterlimit:3;stroke-width:.28px}.cls-5,.cls-6{font-size:4.41px;font-family:SegoeUI,Segoe UI}.cls-6{font-size:4px}</style><linearGradient id="linear-gradient" x1="78" y1="6.7" x2="78.09" y2="72.24" gradientUnits="userSpaceOnUse"><stop offset="0" stop-color="#fff"/><stop offset="1" stop-color="#ef4823"/></linearGradient></defs><g id="Layer_1" data-name="Layer 1"><path fill="url(#linear-gradient)" d="M10.43 41.22l1.26 1.24.88.53 1.22-1.05 6.66-3.33L35.7 35.1l4.04-4.72 5.96-.7 2.97.35.88.35 3.51-2.28 1.05.7 1.4.18 1.05-1.93 1.03-.14.93.92.93.46 1.39-.92 6.63-3.55 1.21.79 1.52-.17.67-1.01.92-.01.94 1.02 1.24.14 1.29-.76 6.43 3.54 3.82.79.53-.9.72.43.58.87.86.57 1.44-1.58 1.29.43 1 2.3.87.28.57-.28.57-.14 6.61 1.14 5.17-2.58 6.26-5.66 5.88-4.8 12.75-7 15.08 18.12-.02 42.67H10.43"/><path d="M10.43 13.58h135.18M10.43 25.27h135.18M10.43 37h135.18M10.43 48.64h135.18M10.43 60.33h135.18" stroke-linejoin="round" stroke-width=".14" fill="none" stroke="#231f20"/><path class="cls-3" d="M145.44 23.92h-1.21l.6 3.64M129.92 15.47h1.21l-.6-3.64M100.71 27.14h-1.22l.61 3.64M71.88 19.88h-1.22l.61 3.65M59.42 24.03H58.2l.61 3.65M40.13 26.31h-1.22l.61 3.64M11.82 38.09h-1.2l.6 3.61"/><path class="cls-4" d="M39.52 26.31v-6.14M58.81 24.03V11.14M71.27 19.88v-6.29M100.1 27.14v-6.61M130.52 15.47v5.59M144.83 23.92V6.66M11.22 38.09v-6.77h2.3M144.83 6.66h-1.48"/><text class="cls-5" transform="translate(128.05 8.03)">Нгавал</text><text class="cls-6" transform="translate(121.48 28.73)">(5320 м.)</text><text class="cls-5" transform="translate(121.78 24.31)">Канг Ла</text><text class="cls-5" transform="translate(106.97 10.73)">Наар</text><text class="cls-5" transform="translate(94.5 19.65)">Пхеди</text><text class="cls-5" transform="translate(96.28 15.24)">Наар</text><text class="cls-5" transform="translate(67.98 12.86)">Пху</text><text class="cls-5" transform="translate(50.52 9.76)">Кьянг</text><text class="cls-5" transform="translate(34.4 19.07)">Мета</text><text class="cls-5" transform="translate(13.71 32.61)">Кото</text><path class="cls-3" d="M111.08 20.09h-1.22l.61 3.64"/><path class="cls-4" d="M110.47 20.09v-8.5"/></g><g id="altitude"><text class="cls-6" transform="translate(0 3.4)">6000</text><text class="cls-6" transform="translate(0 15.24)">5000</text><text class="cls-6" transform="translate(0 26.83)">4000</text><text class="cls-6" transform="translate(0 38.52)">3000</text><text class="cls-6" transform="translate(0 50.21)">2000</text><text class="cls-6" transform="translate(0 61.9)">1000</text><text class="cls-6" transform="translate(0 73.59)">0 м.</text></g><g id="days"><text class="cls-6" transform="translate(10 77.59)">2<tspan x="2.16" y="0" font-size="3">-й день</tspan></text><text class="cls-6" transform="translate(37 77.59)">3-4</text><text class="cls-6" transform="translate(69 77.59)">5</text><text class="cls-6" transform="translate(99 77.59)">6</text><text class="cls-6" transform="translate(111 77.59)">7</text><text class="cls-6" transform="translate(144 77.59)">8</text></g></svg>