<svg xmlns="http://www.w3.org/2000/svg" viewBox="0 0 555.8 447" fill="#f40"><path d="M377 120.8a24.37 24.37 0 0 0 .1-2.7 27.31 27.31 0 0 0-27.4-27.4c-1 0-2 .1-2.9.1a27.39 27.39 0 0 0-47.6-2.4 31.08 31.08 0 0 0-4.3-.3 27.64 27.64 0 0 0-23.1 12.6 25.55 25.55 0 0 0-6.9-1 23.44 23.44 0 0 0-23.3 21.1z"/><path d="M555.8 186.9a42.14 42.14 0 0 0-42.2-42.2c-1.5 0-3 .1-4.5.2a42.35 42.35 0 0 0-12.8-15.15 223.61 223.61 0 0 0-361-64.29A229 229 0 0 0 118.69 84a64.48 64.48 0 0 0-8.39-.57A63.09 63.09 0 0 0 71.44 196.2q-.7 5.87-1.1 11.81a7.46 7.46 0 0 0-3.34 3l-12.3 21.3a7.5 7.5 0 0 0 13 7.5l2.43-4.22a223.5 223.5 0 0 0 381.21 145.95 222.06 222.06 0 0 0 65.46-158 227.56 227.56 0 0 0-2.32-32.4h41.12c.1-1.34.2-2.94.2-4.24zm-93 129.48l-91.7-92.28c-14.2 15.5-100.7 91.1-103.5 93.6 0-.1 30.6-32.2 30.6-32.2l-17-16c-.1 0-7.6-7.5-7.6-7.5-1.9 1.52-48.9 38.72-122.56 92.3A192.61 192.61 0 0 1 100 223.5q0-7.4.55-14.66A63.11 63.11 0 0 0 148.1 96a193.17 193.17 0 0 1 310.66 27.58 42.75 42.75 0 0 0-23 17.55 48.72 48.72 0 0 0-6.6-.4 42.48 42.48 0 0 0-35.6 19.4 36.27 36.27 0 0 0-46.4 31h136.76a193.2 193.2 0 0 1-21.08 125.28z"/><path d="M110.9 77.9a7.5 7.5 0 0 1-7.5-7.5v-25a7.5 7.5 0 0 1 15 0v25a7.5 7.5 0 0 1-7.5 7.5zm-37.79 9.8a7.52 7.52 0 0 1-6.42-3.6l-13.4-22a7.5 7.5 0 1 1 12.82-7.8l13.4 22a7.5 7.5 0 0 1-6.4 11.4zm-28.62 28.1a7.42 7.42 0 0 1-3.68-1L18 101.93a7.5 7.5 0 1 1 7.38-13.06l22.8 12.9a7.5 7.5 0 0 1-3.7 14zM34 155.5h-.14l-26.5-.5a7.5 7.5 0 1 1 .28-15l26.5.5a7.5 7.5 0 0 1-.14 15zm-12.19 51.9a7.5 7.5 0 0 1-3.76-14l23.7-13.7a7.5 7.5 0 0 1 7.5 13l-23.7 13.7a7.38 7.38 0 0 1-3.74 1zm91.09 49.9a7.5 7.5 0 0 1-7.5-7.5v-25.4a7.5 7.5 0 0 1 15 0v25.4a7.5 7.5 0 0 1-7.5 7.5zm51.01-14.5a7.48 7.48 0 0 1-6.47-3.7l-13-22.1a7.49 7.49 0 0 1 12.92-7.6l13 22.1a7.49 7.49 0 0 1-6.45 11.3zm34.68-38.5a7.44 7.44 0 0 1-3.76-1l-20.61-12a7.5 7.5 0 0 1 7.55-13l20.6 12a7.5 7.5 0 0 1-3.78 14zM187.3 154a7.5 7.5 0 0 1-.18-15l24.7-.6a7.5 7.5 0 1 1 .36 15l-24.7.6zM177 116.7a7.5 7.5 0 0 1-4-13.81l20.6-13.2a7.5 7.5 0 0 1 8.1 12.62l-20.6 13.21a7.51 7.51 0 0 1-4.1 1.18z"/></svg>