<svg id="climbing" xmlns="http://www.w3.org/2000/svg" viewBox="0 0 195.33 136.6"><defs><style>.color,.color-3,.cls-1{fill:#f40;}.color-3{fill-opacity:0.5;}.color{fill-opacity:0.3;}</style></defs><title>climbing</title><g id="Layer_7" data-name="Layer 7"><path class="color-3" d="M123.21,0,87.56,82.14c4.93,14.38,20.54,27.52,35.16,54.46h72.61Z"/><path class="color-3" d="M63.66,102.68C44.44,86.82,65.3,60.78,82.72,54.46L70.89,44.27,0,136.36H103.42c-10.52-15-25.22-22.68-36.56-31.05Z"/><path class="color" d="M99.58,54.46H82.72c-.93.37-1.82.75-2.7,1.12-16.75,7.85-34.6,32.06-16.36,47.1l3.2,2.63c11.34,8.37,26,16.1,36.56,31.05l19.3.24C108.1,109.66,92.49,96.52,87.56,82.14Z"/></g><circle class="cls-1" cx="57.58" cy="45.51" r="7.52"/><path class="cls-1" d="M55.87,91.61a16.08,16.08,0,0,1-8.21,2.1h-.4a18.27,18.27,0,0,1-7.82-2.1L34.83,136.5l13.63-33.37L64.29,105l-6,26,14.43-30.26L56.17,91.31Z"/><path class="cls-1" d="M69.4,73.67c.1-.2.2-.6.4-1l-9.32,1.2,1.21-3a8.22,8.22,0,0,0,1.1-2.71,10.49,10.49,0,1,0-20.34-5.11,15.06,15.06,0,0,0-.3,2.91L40.24,84.79l1.31,1a11.13,11.13,0,0,0,5.91,1.9h.3a8.48,8.48,0,0,0,4.71-1.2L56,84.89l1.11-2.8L68.7,76.38C68.9,75.48,69.3,74.07,69.4,73.67Z"/><path class="cls-1" d="M69.4,95c-.1,0-.1,0-.1-.1a.45.45,0,0,0-.3-.4c-.2.1-.4-.2-.4-.4h0l1.6-11s.8-4.71.9-5.41.71-2.91.81-3.31a15.62,15.62,0,0,1,.7-1.7c.1-.3.3-.6.3-.7.1-.3,1.2-2.71,1.4-3a2.59,2.59,0,0,0-.5-1c-.5-.8-1-.8-1-.8h-.2a9,9,0,0,0-1.41.3,7,7,0,0,1-2.6.4.1.1,0,0,1-.1-.1l-.1-1.6c0-.1,0-.1.1-.1a10.07,10.07,0,0,1,1.9-.2h1.41a5.34,5.34,0,0,1,2,.5c.5.2,1.7.5,1.7.5s1.81.6,1.91.6a3.14,3.14,0,0,0,.9.1h.1A16.86,16.86,0,0,1,82,69.46a23.87,23.87,0,0,1,3.3,3.81v.1l-.5.7-.1.1a.1.1,0,0,1-.1-.1,11.78,11.78,0,0,0-2.6-2.4A33.47,33.47,0,0,0,78.12,70a10.63,10.63,0,0,0-1.4-.3c-.3.7-2.21,4.81-2.61,5.82s-.9,3.9-1,3.9l-1.6,8.92s-.61,3.61-.91,4.81A3.1,3.1,0,0,1,69.4,95Z"/><path class="cls-1" d="M56.78,87.8a1,1,0,0,0-1.41-.3c-.1,0-8,4.91-15.33,0l-.3-.2a.91.91,0,0,0-.8-.4,1.11,1.11,0,0,0-1.1,1.1v.1C33.63,90.51,16.8,99,2.17,90.71a1,1,0,0,0-1.41.4,1.11,1.11,0,0,0,.4,1.4,30.62,30.62,0,0,0,15.13,3.81C27.42,96.32,37,91,39.44,89.5c8.22,5,16.63-.1,16.94-.3A1,1,0,0,0,56.78,87.8Z"/><circle class="color-3" cx="57.58" cy="45.51" r="7.52"/><path class="color-3" d="M55.87,91.61a16.08,16.08,0,0,1-8.21,2.1h-.4a18.27,18.27,0,0,1-7.82-2.1L34.83,136.5l13.63-33.37L64.29,105l-6,26,14.43-30.26L56.17,91.31Z"/><path class="color-3" d="M69.4,73.67c.1-.2.2-.6.4-1l-9.32,1.2,1.21-3a8.22,8.22,0,0,0,1.1-2.71,10.49,10.49,0,1,0-20.34-5.11,15.06,15.06,0,0,0-.3,2.91L40.24,84.79l1.31,1a11.13,11.13,0,0,0,5.91,1.9h.3a8.48,8.48,0,0,0,4.71-1.2L56,84.89l1.11-2.8L68.7,76.38C68.9,75.48,69.3,74.07,69.4,73.67Z"/><path class="color-3" d="M69.4,95c-.1,0-.1,0-.1-.1a.45.45,0,0,0-.3-.4c-.2.1-.4-.2-.4-.4h0l1.6-11s.8-4.71.9-5.41.71-2.91.81-3.31a15.62,15.62,0,0,1,.7-1.7c.1-.3.3-.6.3-.7.1-.3,1.2-2.71,1.4-3a2.59,2.59,0,0,0-.5-1c-.5-.8-1-.8-1-.8h-.2a9,9,0,0,0-1.41.3,7,7,0,0,1-2.6.4.1.1,0,0,1-.1-.1l-.1-1.6c0-.1,0-.1.1-.1a10.07,10.07,0,0,1,1.9-.2h1.41a5.34,5.34,0,0,1,2,.5c.5.2,1.7.5,1.7.5s1.81.6,1.91.6a3.14,3.14,0,0,0,.9.1h.1A16.86,16.86,0,0,1,82,69.46a23.87,23.87,0,0,1,3.3,3.81v.1l-.5.7-.1.1a.1.1,0,0,1-.1-.1,11.78,11.78,0,0,0-2.6-2.4A33.47,33.47,0,0,0,78.12,70a10.63,10.63,0,0,0-1.4-.3c-.3.7-2.21,4.81-2.61,5.82s-.9,3.9-1,3.9l-1.6,8.92s-.61,3.61-.91,4.81A3.1,3.1,0,0,1,69.4,95Z"/><path class="cls-1" d="M56.78,87.8a1,1,0,0,0-1.41-.3c-.1,0-8,4.91-15.33,0l-.3-.2a.91.91,0,0,0-.8-.4,1.11,1.11,0,0,0-1.1,1.1v.1C33.63,90.51,16.8,99,2.17,90.71a1,1,0,0,0-1.41.4,1.11,1.11,0,0,0,.4,1.4,30.62,30.62,0,0,0,15.13,3.81C27.42,96.32,37,91,39.44,89.5c8.22,5,16.63-.1,16.94-.3A1,1,0,0,0,56.78,87.8Z"/></svg>