<svg xmlns="http://www.w3.org/2000/svg" viewBox="0 0 195.33 136.67"><defs><style>.Graphic-Style,.Graphic-Style-2,.Graphic-Style-3{fill:#f40;}.Graphic-Style-3{fill-opacity:0.5;}.Graphic-Style{fill-opacity:0.3;}</style></defs><title>custom-tours</title><g id="mounts"><g id="mount-pass"><path class="Graphic-Style-3" d="M123.21,0,87.56,82.14c4.93,14.38,20.54,27.52,35.16,54.46h72.61Z"/><path class="Graphic-Style-3" d="M63.66,102.68C44.44,86.82,65.3,60.78,82.72,54.46L70.89,44.27,0,136.36H103.42c-10.52-15-25.22-22.68-36.56-31.05Z"/><path class="Graphic-Style" d="M99.58,54.46H82.72c-.93.37-1.82.75-2.7,1.12-16.75,7.85-34.6,32.06-16.36,47.1l3.2,2.63c11.34,8.37,26,16.1,36.56,31.05l19.3.24C108.1,109.66,92.49,96.52,87.56,82.14Z"/></g></g><g id="custom_tours" data-name="custom tours"><path class="Graphic-Style-2" d="M11.42,66.53,11.1,64c.57,0,1.15-.14,1.72-.2l.26,2.58Z"/><path class="Graphic-Style-2" d="M181.32,131.75a11.28,11.28,0,0,0-1.28-2.83l2.2-1.32a14.61,14.61,0,0,1,1.52,3.4Zm-3.17-5.35a.75.75,0,0,1-.14-.17,19,19,0,0,0-2.23-2l1.54-2.06a21.66,21.66,0,0,1,2.55,2.23,1.63,1.63,0,0,1,.17.2ZM173,122.51a29.93,29.93,0,0,0-2.95-1.46l1-2.35a34.91,34.91,0,0,1,3.18,1.58ZM167,119.79c-1-.37-2.12-.74-3.18-1.09l.77-2.46c1.12.35,2.23.75,3.29,1.15ZM92.77,119c-1.2,0-2.41-.12-3.52-.23l.26-2.58c1,.12,2.17.18,3.31.21Zm3.51,0-.08-2.57c1.06,0,2.2-.12,3.35-.21l.22,2.58c-1.23.09-2.4.17-3.49.2Zm6.93-.54-.32-2.55c1-.11,2.12-.26,3.38-.43l.34,2.55c-1.23.14-2.37.28-3.4.43Zm-17.45-.15a31.79,31.79,0,0,1-3.46-.86L83,115c1,.32,2.09.58,3.2.81Zm74.8-.54c-1.06-.29-2.18-.54-3.29-.77l.54-2.52c1.15.26,2.29.51,3.38.8ZM110,117.5l-.37-2.54.8-.12,2.29-.34.32-.06.37,2.55-.29,0-2.29.34Zm6.75-1-.34-2.55c1.17-.14,2.32-.28,3.43-.43l.29,2.55-3.38.43Zm37.19-.17c-1.09-.2-2.2-.35-3.35-.52l.35-2.54c1.14.14,2.31.31,3.43.51Zm-75.09-.26a18.11,18.11,0,0,1-3.11-2l1.63-2A16.24,16.24,0,0,0,80,113.81Zm44.68-.34-.25-2.58c1.17-.11,2.31-.2,3.43-.28l.2,2.57c-1.09.09-2.23.17-3.38.29Zm23.72-.29c-1.09-.11-2.24-.2-3.38-.26l.14-2.57c1.18.06,2.35.14,3.46.26Zm-16.94-.23-.14-2.57c1.14-.06,2.32-.12,3.46-.14l.09,2.57c-1.15,0-2.29.09-3.41.14Zm10.16-.17c-1,0-2,0-3,0h-.43v-2.57h.43c1,0,2,0,3,0ZM73.23,111.3a8.31,8.31,0,0,1-1.34-3.78l2.57-.23a5.92,5.92,0,0,0,.94,2.6Zm1.69-6.7-2.35-1.09a12,12,0,0,1,2.18-3.11l1.91,1.71A11.26,11.26,0,0,0,74.92,104.6ZM79,99.71l-1.86-1.8a14.79,14.79,0,0,0,2-2.43l2.15,1.4A14.71,14.71,0,0,1,79,99.71Zm3.89-6.35-2.49-.63a10.16,10.16,0,0,0,.29-2.46,5.44,5.44,0,0,0,0-.57l2.57-.14c0,.22,0,.45,0,.71a13.39,13.39,0,0,1-.37,3.09Zm-2.78-6.69a13.16,13.16,0,0,0-1.23-2.89l2.26-1.26a18.24,18.24,0,0,1,1.46,3.4ZM77.06,81.2A22.12,22.12,0,0,0,74.75,79l1.63-2A23.19,23.19,0,0,1,79,79.49Zm-5-4.09c-.88-.54-1.83-1.08-2.88-1.6l1.14-2.32c1.12.58,2.15,1.12,3.09,1.72Zm-5.94-3c-.52-.23-1-.43-1.58-.63L63,72.88l.91-2.4c.55.2,1.09.4,1.61.63s1.08.43,1.6.65Zm-6.33-2.4c-1.05-.37-2.14-.72-3.23-1.06l.77-2.46c1.09.34,2.21.71,3.29,1.09Zm-6.46-2c-1.09-.29-2.17-.58-3.29-.86l.6-2.49c1.12.26,2.26.57,3.35.86ZM46.8,68.1c-1.09-.23-2.23-.45-3.32-.63l.46-2.54c1.14.2,2.29.43,3.4.66Zm-6.66-1.17c-1.12-.17-2.24-.31-3.35-.43L37.07,64c1.15.14,2.29.28,3.44.45Zm-6.75-.77c-1.12-.09-2.26-.17-3.38-.23l.14-2.58c1.15.06,2.32.15,3.46.23ZM16.48,66l-.17-2.57c1.14-.09,2.32-.14,3.46-.2l.11,2.57C18.74,65.9,17.6,66,16.48,66Zm10.15-.23c-1.11,0-2.26,0-3.37,0l0-2.58c1.14,0,2.32,0,3.46,0Z"/><path class="Graphic-Style-2" d="M184.24,136.67l-2.54-.4a8.57,8.57,0,0,0,.11-1.52l2.57,0A9.85,9.85,0,0,1,184.24,136.67Z"/><path class="Graphic-Style" d="M168.54,64.67a13.52,13.52,0,0,0-8.81,3.23,12,12,0,0,0-4.35,10.5c.66,8.84,14.53,35.35,14.53,35.35s11.75-27.49,11.75-36.38a12,12,0,0,0-5.14-10.13A13.56,13.56,0,0,0,168.54,64.67Z"/><path class="Graphic-Style-2" d="M82.35,34a11.22,11.22,0,0,1,6.73,2.17,9.93,9.93,0,0,1,4.29,8.41c0,5.89-6.07,22-9.84,31.32-4.49-9-11.79-24.6-12.22-30.49A9.85,9.85,0,0,1,75,36.7,11.29,11.29,0,0,1,82.35,34m0-2.12a13.61,13.61,0,0,0-8.81,3.23,12.08,12.08,0,0,0-4.34,10.5C69.88,54.46,83.73,81,83.73,81S95.51,53.49,95.51,44.59a12,12,0,0,0-5.15-10.12A13.42,13.42,0,0,0,82.35,31.86Z"/><circle class="Graphic-Style-2" cx="82.33" cy="45.96" r="5.92"/><path class="Graphic-Style" d="M82.54,31.67a13.52,13.52,0,0,0-8.81,3.23,12,12,0,0,0-4.35,10.5C70,54.24,83.91,80.75,83.91,80.75S95.66,53.26,95.66,44.37a12,12,0,0,0-5.14-10.13A13.56,13.56,0,0,0,82.54,31.67Z"/><path class="Graphic-Style-2" d="M168.34,66.62a11.21,11.21,0,0,1,6.72,2.17,9.93,9.93,0,0,1,4.29,8.41c0,5.89-6.06,22-9.84,31.32-4.49-9-11.78-24.6-12.21-30.49a9.84,9.84,0,0,1,3.63-8.7,11.36,11.36,0,0,1,7.41-2.71m0-2.12a13.59,13.59,0,0,0-8.81,3.23,12,12,0,0,0-4.35,10.5c.69,8.87,14.53,35.38,14.53,35.38S181.5,86.12,181.5,77.23a12,12,0,0,0-5.15-10.13A13.41,13.41,0,0,0,168.34,64.5Z"/><path class="Graphic-Style-2" d="M172.63,82.92c4.8-6.32-2.35-13.47-8.67-8.67C159.16,80.6,166.31,87.75,172.63,82.92Z"/><path class="Graphic-Style" d="M14.54,10.67A13.52,13.52,0,0,0,5.73,13.9,12,12,0,0,0,1.38,24.4C2,33.24,15.91,59.75,15.91,59.75S27.66,32.26,27.66,23.37a12,12,0,0,0-5.14-10.13A13.56,13.56,0,0,0,14.54,10.67Z"/><path class="Graphic-Style-2" d="M14.54,12.78A11.29,11.29,0,0,1,21.26,15a9.93,9.93,0,0,1,4.29,8.41c0,5.89-6.07,22-9.84,31.32-4.52-9-11.79-24.6-12.22-30.47a9.86,9.86,0,0,1,3.64-8.69,11.23,11.23,0,0,1,7.41-2.75m0-2.11A13.52,13.52,0,0,0,5.73,13.9,12,12,0,0,0,1.38,24.4C2,33.24,15.91,59.75,15.91,59.75S27.66,32.26,27.66,23.37a12,12,0,0,0-5.14-10.13A13.56,13.56,0,0,0,14.54,10.67Z"/><path class="Graphic-Style-2" d="M18.83,29.09c4.8-6.32-2.35-13.47-8.67-8.67C5.35,26.77,12.5,33.92,18.83,29.09Z"/></g></svg>