<svg id="Layer_19" data-name="Layer 19" xmlns="http://www.w3.org/2000/svg" viewBox="0 0 195.33 136.6"><defs><style>.Graphic-Style,.Graphic-Style-3,.Graphic-Style-4{fill:#f40;}.Graphic-Style-3{fill-opacity:0.5;}.Graphic-Style{fill-opacity:0.3;}</style></defs><title>guide-namaste</title><g id="mount"><path class="Graphic-Style-3" d="M123.21,0,87.56,82.14c4.93,14.38,20.54,27.52,35.16,54.46h72.61Z"/><path class="Graphic-Style-3" d="M63.66,102.68C44.44,86.82,65.3,60.78,82.72,54.46L70.89,44.27,0,136.36H103.42c-10.52-15-25.22-22.68-36.56-31.05Z"/><path class="Graphic-Style" d="M99.58,54.46H82.72c-.93.37-1.82.75-2.7,1.12-16.75,7.85-34.6,32.06-16.36,47.1l3.2,2.63c11.34,8.37,26,16.1,36.56,31.05l19.3.24C108.1,109.66,92.49,96.52,87.56,82.14Z"/></g><circle class="Graphic-Style-4" cx="46.41" cy="43.65" r="10.26"/><path class="Graphic-Style-4" d="M86.74,31.4c-1.41-1.07-2.28-1.5-3.83-.76l3.83,8.25.63-.7A4.62,4.62,0,0,0,86.74,31.4Z"/><path class="Graphic-Style-4" d="M62.78,65.25,82.05,44l-4.33-8.88-17,18.74a8.56,8.56,0,0,1-6.34,2.81H38.47A9.08,9.08,0,0,1,32.06,54L11.55,33.46A4.79,4.79,0,0,0,5.15,33a4.62,4.62,0,0,0-.31,6.81L28.28,63.26a15,15,0,0,1,4.39,10.6L29,130.25a4.68,4.68,0,0,0,3.73,5.08,4.51,4.51,0,0,0,5.43-4l3.56-33.85a3.34,3.34,0,0,1,3.32-3h2.87A2.72,2.72,0,0,1,50.65,97c.68,8.29,2.86,34.39,2.86,34.39a5.15,5.15,0,0,0,5,4.62h0a4.19,4.19,0,0,0,4.24-4.62l-3.22-57.8A12.37,12.37,0,0,1,62.78,65.25Z"/><path class="Graphic-Style-4" d="M59.16,27a36.11,36.11,0,0,1,5.19-5.92,35.54,35.54,0,0,1,6.34-4.7L71.5,16a2,2,0,0,1,.6-.44,2.81,2.81,0,0,1,.56-.18,28.73,28.73,0,0,1,5.54-2,27.81,27.81,0,0,1,8.23-.84l.06,0,.34,0c1.76.33.69,6.53-1,6.25a22.07,22.07,0,0,0-9.46.53l17.26,36.1a2.21,2.21,0,0,1-4,1.9L72.19,20.85a32.45,32.45,0,0,0-10.53,7.93l-.08,0A1.51,1.51,0,0,1,59.18,27Z"/></svg>