<?xml version="1.0" encoding="utf-8"?><svg xmlns="http://www.w3.org/2000/svg" xmlns:xlink="http://www.w3.org/1999/xlink"><symbol viewBox="0 0 194.98 136.54" id="alpinism" xmlns="http://www.w3.org/2000/svg"><path data-name="rock" fill-opacity=".3" d="M67.98 0l-6.34 10.33-13.16 6.68L46.64 31l-8.66 15.5-7.21 23-6.46 4.37-.17 7.3-9.26 17.96-8.46 14.2-4.78 17.75L0 136.54h114.31L86.98 0h-19z"/><path fill-opacity=".5" d="M164.64 0H86.98l27.33 136.54h80.67L164.64 0z"/><path d="M46.04 31.4a1.27 1.27 0 0 0-.22-.29c-.36-.5-1.58-2.65-1.93-3.22a38.34 38.34 0 0 1-1.87-4.38l-.29-1s-.5-1.58-.57-1.87a3.19 3.19 0 0 0-.21-.57c0-.07-.08-.07-.08-.07-.14-.22-.21-.36-.36-.43a1.78 1.78 0 0 0-.43-.5.07.07 0 0 1-.07-.08c-.57-.28-3.58-1.86-5.09-2.51s-4.09-1.43-4.09-1.43l-.21.14a9.42 9.42 0 0 0-3.98-.86h-1.3a10.43 10.43 0 0 0-2.22.15l-.36.71.36-.07a3.09 3.09 0 0 0 .58.15h.78a.37.37 0 0 1 .22.07l.14.14s.86.22 1 .22a5.69 5.69 0 0 1 1 .14c.07 0 .14.07.22.07.07 0 .07.07.14.07s.07.07.07.15l1.08.43c.14 0 .21.07.21.14l.65.79c.07.07.14.14.21.14s.36.07.5.15a2.86 2.86 0 0 1 .65.57 1.54 1.54 0 0 1 .29.86 3.37 3.37 0 0 1 .07 1.15l-.5 1.14-3.37 4.23c-.29.36-3.45 4-3.66 4.31s-2.65 3.44-3.23 4.37a52.35 52.35 0 0 0-3.94 8 40.76 40.76 0 0 0-1.94 8.18l-.43 4.73s-.21.14-.21.22a5 5 0 0 0-.15 1l-.36 2.65s-1 7-1.07 8.18a34.53 34.53 0 0 0 .64 10.47s1.29-1.65 1.8-1.22a7 7 0 0 1 1-1.22l.07.14a4.43 4.43 0 0 1 1.08-.14 15.9 15.9 0 0 1 1.43-.93c.36-.22 1.58-.86 1.79-1.8l.15-.64a1 1 0 0 1 .14-.22 3.52 3.52 0 0 0 0-.86s.14-.14.14-.21-.07-.72-.07-.72a.74.74 0 0 0 .07-.29c0-.07-.14-.86-.14-.86a.37.37 0 0 0-.29-.14s-.21 0-.28.14a3.47 3.47 0 0 0-.22.79c0 .07-.28 1.08-.36 1.29s-.28.86-.35 1a1.34 1.34 0 0 1-.65.57 3 3 0 0 1-1.08.07 1.18 1.18 0 0 1-.35-.14.88.88 0 0 1-.36-.5v-.72l-.07-.07s.14-.58.14-.65 0-.36-.22-.43a2 2 0 0 0 .15-.57c0-.22 0-.36-.15-.5a2 2 0 0 0 .15-.58.63.63 0 0 0-.15-.43 2.85 2.85 0 0 0 .15-.64 1.33 1.33 0 0 0-.15-.43 3.09 3.09 0 0 0 .15-.58.46.46 0 0 0-.15-.43s.15-.43.22-.57a1.06 1.06 0 0 0-.07-.5 2.3 2.3 0 0 0 .14-.5.74.74 0 0 0-.07-.51 3 3 0 0 0 .14-.64.9.9 0 0 0-.14-.43.93.93 0 0 0 .14-.36v-.72a2.45 2.45 0 0 1 .2-.39c0-.14.07-.79.07-.79l.43-2.94a5.69 5.69 0 0 0 2.36-.79 4.31 4.31 0 0 0 .58-.71 3.41 3.41 0 0 0 .43-1.07s.07-.14 0-.21a.07.07 0 0 0-.07-.07 5 5 0 0 0-.51.14 6.44 6.44 0 0 1-1.5.36h-1v-.94a.24.24 0 0 0-.14-.07 16.23 16.23 0 0 1 .29-2.08 36.44 36.44 0 0 1 1.43-5.52s1.15-3.3 1.8-4.73c0 0 1.93-4.09 2.58-5.24 0 0 2-3.44 2.94-4.73 0 0 2.94-4.3 4.23-5.81l2.08-2.66a.57.57 0 0 0 0-.36s.14-.21.64.07c0 0 .43-.14.36-.43 0 0 .22-.14.5.15s.36.07.43-.43c0 0 .15-.15.5.14 0 0 .15.07.29-.29 0 0 .07-.21.22-.14l-.15.36s.22.07.29 0 .07-.29.22-.36.21-.14.35 0 .22.21.29.5c0 0 .14 0 .14-.21 0 0 .08-.29.22-.29a.54.54 0 0 1 .43.07l.14.14a.54.54 0 0 1-.07.43.27.27 0 0 0 .22-.14s.21-.29.36-.21a.55.55 0 0 1 .35.14.24.24 0 0 1 .08.21.79.79 0 0 1-.22.51s.43-.15.57-.07.08.07.15.07a.44.44 0 0 1 .14.5.52.52 0 0 1-.21.21s-.08.08 0 .08h.07s.28-.08.36 0a.15.15 0 0 1 .14.14l.14.14a.44.44 0 0 1-.21.5V25h.07a.51.51 0 0 1 .36 0 .22.22 0 0 1 .14.07c.07.07.14.14.14.21a.42.42 0 0 1-.14.43l.79.94.43.57s.07.07-.14.21l.86.86a.53.53 0 0 1 .14.29.28.28 0 0 1-.14.22l.71.57s.22.22 0 .36c0 0 .29.21.65.5.07.07.21.29.07.43a2.32 2.32 0 0 0 .72.57s.14.22.07.36a7.93 7.93 0 0 0 .72.51h.07c.07.07.21.21.07.35l.5.36.71-1.81zM35.42 19.71l-1 1a1.11 1.11 0 0 1-.86.28.61.61 0 0 1-.57-.43 3.45 3.45 0 0 1-.22-1V19l.22-.43a1.85 1.85 0 0 1 1.36-.5l.79.29.21.21c.07.15.22.29.22.43v.36a.5.5 0 0 1-.15.35z"/><circle cx="121.11" cy="27.66" r="9.56"/><path d="M140.21 56.33v-4.78c3.82 0 23.89-1.43 23.89-33.44h4.78c0 36.31-23.89 38.22-28.67 38.22z"/><path d="M144.99 19.06s-1.91 7.65-3.82 13.38a8.42 8.42 0 0 1-4.3 4.78l-27.23 11.47c-3.82 1.43-7.16.48-9.55-2.87-3.35-5.73-7.17-11.94-7.17-11.94l-8.12 4.77s3.82 6.21 7.17 12a16.81 16.81 0 0 0 14.33 8.12 15.34 15.34 0 0 0 6.69-1.43l1-.48 4.78 14.33 18.16-8.6-1.91-14.81 5.73-2.39a17.56 17.56 0 0 0 10-11 139.73 139.73 0 0 0 3.83-13.85zM155.5 76.4a11.74 11.74 0 0 0-5.25-8.6c-3.35-1.91-7.17-1.91-11-.48l-22 11c-6.21 3.34-11 9.08-12 15.77l-4.3 19.59h10L114.89 96l-4.78-1 4.78 1c.48-3.82 3.34-7.17 7.17-9.08l13.85-6.69v33.45h4.78V77.83l3.34-1.91c1-.48 1.44-.48 1.92 0s.95.48.95 1.43l2.39 21.51 9.56-1zM54.41 136h-4.09c0-5 0-9-6.34-15.31L31.32 108l2.89-2.89 12.66 12.67c7.54 7.52 7.54 12.93 7.54 18.22zm-22.98-6.13a5.67 5.67 0 0 1-4-9.66 14.73 14.73 0 0 1 1.5-1.21 39.36 39.36 0 0 0 3.61-2.91l2.89 2.91a41.54 41.54 0 0 1-4.06 3.3c-.51.37-.91.67-1.08.82a1.51 1.51 0 0 0 0 2.18 1.55 1.55 0 0 0 2.21 0 2.55 2.55 0 0 1 .3-.43 30.5 30.5 0 0 1 3.9-4.78l2.66 3.1a32.13 32.13 0 0 0-3.24 4 11.29 11.29 0 0 1-.73 1 5.62 5.62 0 0 1-3.96 1.68z"/><path d="M30.92 136.05a11.28 11.28 0 0 1-8-19.31c.25-.25.86-.75 1.64-1.38 1.17-.94 2.78-2.23 3.87-3.32l2.89 2.89c-1.25 1.24-3 2.61-4.21 3.62-.61.49-1.11.87-1.31 1.07a7.21 7.21 0 0 0 10.19 10.19c.22-.23.61-.72 1.15-1.38.89-1.08 2.1-2.57 3.48-4.07l3 2.76c-1.3 1.41-2.47 2.85-3.33 3.9-.65.8-1.15 1.4-1.43 1.67a11.22 11.22 0 0 1-7.94 3.36zm16.72-21.12L44.8 112a41.06 41.06 0 0 1 4.05-3.29c.51-.38.92-.68 1.09-.83a1.53 1.53 0 0 0 0-2.18 1.57 1.57 0 0 0-2.22 0s-.08.14-.28.43a31 31 0 0 1-3.96 4.87l-2.65-3.1a32.48 32.48 0 0 0 3.25-4.06 9.9 9.9 0 0 1 .72-.94 5.75 5.75 0 0 1 8 0 5.59 5.59 0 0 1 0 8 15.38 15.38 0 0 1-1.5 1.18 42.28 42.28 0 0 0-3.66 2.85z"/><path d="M51.77 119l-2.89-2.89c1.25-1.24 3-2.61 4.2-3.61.62-.5 1.11-.88 1.32-1.08a7.21 7.21 0 0 0-10.19-10.19c-.17.18-.43.52-.78 1a45.45 45.45 0 0 1-3.91 4.55l-2.88-2.91a43.64 43.64 0 0 0 3.58-4.16c.5-.64.88-1.12 1.12-1.36a11.314 11.314 0 0 1 16 16c-.25.25-.86.75-1.64 1.38a50.29 50.29 0 0 0-3.93 3.27zm-25.148-6.32l2.885-2.884 16.334 16.334-2.885 2.885z"/></symbol><symbol viewBox="0 0 195.33 136.6" id="calendar" xmlns="http://www.w3.org/2000/svg"><path fill-opacity=".5" d="M123.21 0L87.56 82.14c4.93 14.38 20.54 27.52 35.16 54.46h72.61zM57 93.5c-5.3-15.25 11.37-33.83 25.72-39L70.89 44.27 33 93.5zm9.86 11.81l-.36-.3v25h-57v-6L0 136.36h103.42c-10.52-14.95-25.22-22.68-36.56-31.05z"/><path fill-opacity=".3" d="M87.56 82.14l12-27.68H82.72c-.93.37-1.82.75-2.7 1.12C66.39 62 52 79.2 57 93.5h9.5V105l.36.3c11.34 8.37 26 16.1 36.56 31.05l19.3.24c-14.62-26.93-30.23-40.07-35.16-54.45z"/><path fill-opacity=".3" d="M9.5 93.5h57V130h-57z"/><path data-name="calendar" d="M65.74 70.21h-3.47v-6.94h-6.93v6.94H20.68v-6.94h-6.93v6.94h-3.46a6.94 6.94 0 0 0-6.93 6.93v52a7 7 0 0 0 6.93 6.93h55.45a7 7 0 0 0 6.93-6.93v-52a7 7 0 0 0-6.93-6.93zm0 58.91H10.29V94.46h55.45zm-31.89-3.47l-14.21-14.2 4.86-4.86 9.35 9.41 17.68-17.72 4.85 4.85z"/></symbol><symbol viewBox="0 0 195.33 136.6" id="climbing" xmlns="http://www.w3.org/2000/svg"><g data-name="Layer 7"><path fill-opacity=".5" d="M123.21 0L87.56 82.14c4.93 14.38 20.54 27.52 35.16 54.46h72.61z"/><path fill-opacity=".5" d="M63.66 102.68c-19.22-15.86 1.64-41.9 19.06-48.22L70.89 44.27 0 136.36h103.42c-10.52-15-25.22-22.68-36.56-31.05z"/><path fill-opacity=".3" d="M99.58 54.46H82.72c-.93.37-1.82.75-2.7 1.12-16.75 7.85-34.6 32.06-16.36 47.1l3.2 2.63c11.34 8.37 26 16.1 36.56 31.05l19.3.24c-14.62-26.94-30.23-40.08-35.16-54.46z"/></g><circle cx="57.58" cy="45.51" r="7.52"/><path d="M55.87 91.61a16.08 16.08 0 0 1-8.21 2.1h-.4a18.27 18.27 0 0 1-7.82-2.1l-4.61 44.89 13.63-33.37L64.29 105l-6 26 14.43-30.26-16.55-9.43zM69.4 73.67c.1-.2.2-.6.4-1l-9.32 1.2 1.21-3a8.22 8.22 0 0 0 1.1-2.71 10.49 10.49 0 1 0-20.34-5.11 15.06 15.06 0 0 0-.3 2.91l-1.91 18.83 1.31 1a11.13 11.13 0 0 0 5.91 1.9h.3a8.48 8.48 0 0 0 4.71-1.2l3.53-1.6 1.11-2.8 11.59-5.71c.2-.9.6-2.31.7-2.71z"/><path d="M69.4 95c-.1 0-.1 0-.1-.1a.45.45 0 0 0-.3-.4c-.2.1-.4-.2-.4-.4l1.6-11s.8-4.71.9-5.41.71-2.91.81-3.31a15.62 15.62 0 0 1 .7-1.7c.1-.3.3-.6.3-.7.1-.3 1.2-2.71 1.4-3a2.59 2.59 0 0 0-.5-1c-.5-.8-1-.8-1-.8h-.2a9 9 0 0 0-1.41.3 7 7 0 0 1-2.6.4.1.1 0 0 1-.1-.1l-.1-1.6c0-.1 0-.1.1-.1a10.07 10.07 0 0 1 1.9-.2h1.41a5.34 5.34 0 0 1 2 .5c.5.2 1.7.5 1.7.5s1.81.6 1.91.6a3.14 3.14 0 0 0 .9.1h.1A16.86 16.86 0 0 1 82 69.46a23.87 23.87 0 0 1 3.3 3.81v.1l-.5.7-.1.1a.1.1 0 0 1-.1-.1 11.78 11.78 0 0 0-2.6-2.4A33.47 33.47 0 0 0 78.12 70a10.63 10.63 0 0 0-1.4-.3c-.3.7-2.21 4.81-2.61 5.82s-.9 3.9-1 3.9l-1.6 8.92s-.61 3.61-.91 4.81A3.1 3.1 0 0 1 69.4 95zm-12.62-7.2a1 1 0 0 0-1.41-.3c-.1 0-8 4.91-15.33 0l-.3-.2a.91.91 0 0 0-.8-.4 1.11 1.11 0 0 0-1.1 1.1v.1C33.63 90.51 16.8 99 2.17 90.71a1 1 0 0 0-1.41.4 1.11 1.11 0 0 0 .4 1.4 30.62 30.62 0 0 0 15.13 3.81C27.42 96.32 37 91 39.44 89.5c8.22 5 16.63-.1 16.94-.3a1 1 0 0 0 .4-1.4z"/><circle fill-opacity=".5" cx="57.58" cy="45.51" r="7.52"/><path d="M55.87 91.61a16.08 16.08 0 0 1-8.21 2.1h-.4a18.27 18.27 0 0 1-7.82-2.1l-4.61 44.89 13.63-33.37L64.29 105l-6 26 14.43-30.26-16.55-9.43zM69.4 73.67c.1-.2.2-.6.4-1l-9.32 1.2 1.21-3a8.22 8.22 0 0 0 1.1-2.71 10.49 10.49 0 1 0-20.34-5.11 15.06 15.06 0 0 0-.3 2.91l-1.91 18.83 1.31 1a11.13 11.13 0 0 0 5.91 1.9h.3a8.48 8.48 0 0 0 4.71-1.2l3.53-1.6 1.11-2.8 11.59-5.71c.2-.9.6-2.31.7-2.71z"/><path fill-opacity=".5" d="M69.4 95c-.1 0-.1 0-.1-.1a.45.45 0 0 0-.3-.4c-.2.1-.4-.2-.4-.4l1.6-11s.8-4.71.9-5.41.71-2.91.81-3.31a15.62 15.62 0 0 1 .7-1.7c.1-.3.3-.6.3-.7.1-.3 1.2-2.71 1.4-3a2.59 2.59 0 0 0-.5-1c-.5-.8-1-.8-1-.8h-.2a9 9 0 0 0-1.41.3 7 7 0 0 1-2.6.4.1.1 0 0 1-.1-.1l-.1-1.6c0-.1 0-.1.1-.1a10.07 10.07 0 0 1 1.9-.2h1.41a5.34 5.34 0 0 1 2 .5c.5.2 1.7.5 1.7.5s1.81.6 1.91.6a3.14 3.14 0 0 0 .9.1h.1A16.86 16.86 0 0 1 82 69.46a23.87 23.87 0 0 1 3.3 3.81v.1l-.5.7-.1.1a.1.1 0 0 1-.1-.1 11.78 11.78 0 0 0-2.6-2.4A33.47 33.47 0 0 0 78.12 70a10.63 10.63 0 0 0-1.4-.3c-.3.7-2.21 4.81-2.61 5.82s-.9 3.9-1 3.9l-1.6 8.92s-.61 3.61-.91 4.81A3.1 3.1 0 0 1 69.4 95z"/><path d="M56.78 87.8a1 1 0 0 0-1.41-.3c-.1 0-8 4.91-15.33 0l-.3-.2a.91.91 0 0 0-.8-.4 1.11 1.11 0 0 0-1.1 1.1v.1C33.63 90.51 16.8 99 2.17 90.71a1 1 0 0 0-1.41.4 1.11 1.11 0 0 0 .4 1.4 30.62 30.62 0 0 0 15.13 3.81C27.42 96.32 37 91 39.44 89.5c8.22 5 16.63-.1 16.94-.3a1 1 0 0 0 .4-1.4z"/></symbol><symbol viewBox="0 0 195.33 136.67" id="custom-tours" xmlns="http://www.w3.org/2000/svg"><path fill-opacity=".5" d="M123.21 0L87.56 82.14c4.93 14.38 20.54 27.52 35.16 54.46h72.61z"/><path fill-opacity=".5" d="M63.66 102.68c-19.22-15.86 1.64-41.9 19.06-48.22L70.89 44.27 0 136.36h103.42c-10.52-15-25.22-22.68-36.56-31.05z"/><path fill-opacity=".3" d="M99.58 54.46H82.72c-.93.37-1.82.75-2.7 1.12-16.75 7.85-34.6 32.06-16.36 47.1l3.2 2.63c11.34 8.37 26 16.1 36.56 31.05l19.3.24c-14.62-26.94-30.23-40.08-35.16-54.46z"/><g data-name="custom tours"><path d="M11.42 66.53L11.1 64c.57 0 1.15-.14 1.72-.2l.26 2.58zm169.9 65.22a11.28 11.28 0 0 0-1.28-2.83l2.2-1.32a14.61 14.61 0 0 1 1.52 3.4zm-3.17-5.35a.75.75 0 0 1-.14-.17 19 19 0 0 0-2.23-2l1.54-2.06a21.66 21.66 0 0 1 2.55 2.23 1.63 1.63 0 0 1 .17.2zm-5.15-3.89a29.93 29.93 0 0 0-2.95-1.46l1-2.35a34.91 34.91 0 0 1 3.18 1.58zm-6-2.72c-1-.37-2.12-.74-3.18-1.09l.77-2.46c1.12.35 2.23.75 3.29 1.15zM92.77 119c-1.2 0-2.41-.12-3.52-.23l.26-2.58c1 .12 2.17.18 3.31.21zm3.51 0l-.08-2.57c1.06 0 2.2-.12 3.35-.21l.22 2.58c-1.23.09-2.4.17-3.49.2zm6.93-.54l-.32-2.55c1-.11 2.12-.26 3.38-.43l.34 2.55c-1.23.14-2.37.28-3.4.43zm-17.45-.15a31.79 31.79 0 0 1-3.46-.86L83 115c1 .32 2.09.58 3.2.81zm74.8-.54a54.52 54.52 0 0 0-3.29-.77l.54-2.52c1.15.26 2.29.51 3.38.8zM110 117.5l-.37-2.54.8-.12 2.29-.34.32-.06.37 2.55h-.29l-2.29.34zm6.75-1l-.34-2.55c1.17-.14 2.32-.28 3.43-.43l.29 2.55-3.38.43zm37.19-.17c-1.09-.2-2.2-.35-3.35-.52l.35-2.54c1.14.14 2.31.31 3.43.51zm-75.09-.26a18.11 18.11 0 0 1-3.11-2l1.63-2a16.24 16.24 0 0 0 2.63 1.74zm44.68-.34l-.25-2.58c1.17-.11 2.31-.2 3.43-.28l.2 2.57c-1.09.09-2.23.17-3.38.29zm23.72-.29c-1.09-.11-2.24-.2-3.38-.26l.14-2.57c1.18.06 2.35.14 3.46.26zm-16.94-.23l-.14-2.57c1.14-.06 2.32-.12 3.46-.14l.09 2.57c-1.15 0-2.29.09-3.41.14zm10.16-.17h-3.43v-2.57h3.43zm-67.24-3.74a8.31 8.31 0 0 1-1.34-3.78l2.57-.23a5.92 5.92 0 0 0 .94 2.6zm1.69-6.7l-2.35-1.09a12 12 0 0 1 2.18-3.11l1.91 1.71a11.26 11.26 0 0 0-1.74 2.49zM79 99.71l-1.86-1.8a14.79 14.79 0 0 0 2-2.43l2.15 1.4A14.71 14.71 0 0 1 79 99.71zm3.89-6.35l-2.49-.63a10.16 10.16 0 0 0 .29-2.46 5.44 5.44 0 0 0 0-.57l2.57-.14v.71a13.39 13.39 0 0 1-.37 3.09zm-2.78-6.69a13.16 13.16 0 0 0-1.23-2.89l2.26-1.26a18.24 18.24 0 0 1 1.46 3.4zm-3.05-5.47a22.12 22.12 0 0 0-2.31-2.2l1.63-2A23.19 23.19 0 0 1 79 79.49zm-5-4.09c-.88-.54-1.83-1.08-2.88-1.6l1.14-2.32c1.12.58 2.15 1.12 3.09 1.72zm-5.94-3c-.52-.23-1-.43-1.58-.63l-1.54-.6.91-2.4c.55.2 1.09.4 1.61.63s1.08.43 1.6.65zm-6.33-2.4c-1.05-.37-2.14-.72-3.23-1.06l.77-2.46c1.09.34 2.21.71 3.29 1.09zm-6.46-2c-1.09-.29-2.17-.58-3.29-.86l.6-2.49c1.12.26 2.26.57 3.35.86zM46.8 68.1c-1.09-.23-2.23-.45-3.32-.63l.46-2.54c1.14.2 2.29.43 3.4.66zm-6.66-1.17c-1.12-.17-2.24-.31-3.35-.43l.28-2.5c1.15.14 2.29.28 3.44.45zm-6.75-.77c-1.12-.09-2.26-.17-3.38-.23l.14-2.58c1.15.06 2.32.15 3.46.23zM16.48 66l-.17-2.57c1.14-.09 2.32-.14 3.46-.2l.11 2.57c-1.14.1-2.28.2-3.4.2zm10.15-.23h-3.37v-2.58h3.46zm157.61 70.9l-2.54-.4a8.57 8.57 0 0 0 .11-1.52h2.57a9.85 9.85 0 0 1-.14 1.92z"/><path fill-opacity=".3" d="M168.54 64.67a13.52 13.52 0 0 0-8.81 3.23 12 12 0 0 0-4.35 10.5c.66 8.84 14.53 35.35 14.53 35.35s11.75-27.49 11.75-36.38a12 12 0 0 0-5.14-10.13 13.56 13.56 0 0 0-7.98-2.57z"/><path d="M82.35 34a11.22 11.22 0 0 1 6.73 2.17 9.93 9.93 0 0 1 4.29 8.41c0 5.89-6.07 22-9.84 31.32-4.49-9-11.79-24.6-12.22-30.49A9.85 9.85 0 0 1 75 36.7a11.29 11.29 0 0 1 7.35-2.7m0-2.12a13.61 13.61 0 0 0-8.81 3.23 12.08 12.08 0 0 0-4.34 10.5C69.88 54.46 83.73 81 83.73 81s11.78-27.51 11.78-36.41a12 12 0 0 0-5.15-10.12 13.42 13.42 0 0 0-8.01-2.61z"/><circle cx="82.33" cy="45.96" r="5.92"/><path fill-opacity=".3" d="M82.54 31.67a13.52 13.52 0 0 0-8.81 3.23 12 12 0 0 0-4.35 10.5c.62 8.84 14.53 35.35 14.53 35.35s11.75-27.49 11.75-36.38a12 12 0 0 0-5.14-10.13 13.56 13.56 0 0 0-7.98-2.57z"/><path d="M168.34 66.62a11.21 11.21 0 0 1 6.72 2.17 9.93 9.93 0 0 1 4.29 8.41c0 5.89-6.06 22-9.84 31.32-4.49-9-11.78-24.6-12.21-30.49a9.84 9.84 0 0 1 3.63-8.7 11.36 11.36 0 0 1 7.41-2.71m0-2.12a13.59 13.59 0 0 0-8.81 3.23 12 12 0 0 0-4.35 10.5c.69 8.87 14.53 35.38 14.53 35.38s11.79-27.49 11.79-36.38a12 12 0 0 0-5.15-10.13 13.41 13.41 0 0 0-8.01-2.6z"/><path d="M172.63 82.92c4.8-6.32-2.35-13.47-8.67-8.67-4.8 6.35 2.35 13.5 8.67 8.67z"/><path fill-opacity=".3" d="M14.54 10.67a13.52 13.52 0 0 0-8.81 3.23 12 12 0 0 0-4.35 10.5C2 33.24 15.91 59.75 15.91 59.75s11.75-27.49 11.75-36.38a12 12 0 0 0-5.14-10.13 13.56 13.56 0 0 0-7.98-2.57z"/><path d="M14.54 12.78A11.29 11.29 0 0 1 21.26 15a9.93 9.93 0 0 1 4.29 8.41c0 5.89-6.07 22-9.84 31.32-4.52-9-11.79-24.6-12.22-30.47a9.86 9.86 0 0 1 3.64-8.69 11.23 11.23 0 0 1 7.41-2.75m0-2.11a13.52 13.52 0 0 0-8.81 3.19 12 12 0 0 0-4.35 10.5C2 33.24 15.91 59.75 15.91 59.75s11.75-27.49 11.75-36.38a12 12 0 0 0-5.14-10.13 13.56 13.56 0 0 0-7.98-2.57z"/><path d="M18.83 29.09c4.8-6.32-2.35-13.47-8.67-8.67-4.81 6.35 2.34 13.5 8.67 8.67z"/></g></symbol><symbol viewBox="0 0 195.33 136.86" id="expedition" xmlns="http://www.w3.org/2000/svg"><path fill-opacity=".3" d="M83.67 59.67l5.4-4.16 9.16 2.06 1.35-3.11H82.72c-.9.36-1.76.72-2.6 1.09zM68.52 77.66l11.54-22.09a47.75 47.75 0 0 0-20.5 19.3z"/><path fill-opacity=".5" d="M59.52 74.88a47.52 47.52 0 0 1 20.54-19.31v-.06c.88-.4 1.75-.77 2.61-1.08L70.89 44.27 49.67 71.83zm48.06-15.21l32.04-24.94 2.89 1.82L123.21 0 98.23 57.57l9.35 2.1z"/><path fill-opacity=".3" d="M0 107.83l40-38.99 28.52 8.82 11.57-22.15 3.58 4.16 5.4-4.16 18.51 4.16 32.04-24.94 13.67 8.63 42.04-14.07v107.56H0v-29.02z"/><path fill-opacity=".5" d="M16.39 96.66l25.17-23.44 12.92 4.22-38.09 19.22zm54.47-19.78l8.71-18.43 3.4 2.55M71.84 78.06l17.77-20.98 16.8 3.92m3.63-1.33l22.74-17.49 17.78 2.16M134.67 41l5.21-4.7 10.68 6.84L134.67 41zM5.04 106.09l53.71-29.21 18.17 4.51-71.88 24.7zm150.34-61.17l36.35-9.8.39 49.82-36.74-40.02zm-1.31 3.1l1.35 66.13 36.74-22.65-38.09-43.48zM76.92 78.06L149 48.02l4.31 74.17-76.39-44.13zm78.5 40.1l37.74-23.27v11.2l-37.74 12.07zm-.04 5.97l37.78-15.12v25.18h-37.74l-.04-10.06zM79.39 83.06v51.13h24.29L79.39 83.06zm5.06 2.03l23.53 49.1 42.58-1.44v-8.62M76.92 83.06v13.6l-11.53-8.63 11.53-4.97zm-15.43 6.8l15.43 10.06v17.32L61.49 89.86zM57.3 91.5l-.05 42.69h19.02v-12L57.3 91.5zM3.1 110.82L54.48 91.5l-1.96 42.69H3.1v-23.37z"/><path d="M65.39 48.91a9.52 9.52 0 0 1-9.74 9.32h-.15A9.62 9.62 0 0 1 56.08 39a9.53 9.53 0 0 1 9.31 9.75zM32.54 45.1a3.78 3.78 0 0 0-5.29.72 2.2 2.2 0 0 0-.17.25l-4.24 6.46A20.67 20.67 0 0 0 20.13 60l-2.5 20.21a4.15 4.15 0 0 0 3.5 4.58l9.26 1.33a4.78 4.78 0 0 0 5.09-3.3l7.26-25.43a6.34 6.34 0 0 0-2.12-6.28zM98.4 94.32a36.64 36.64 0 0 0-7.23-3.1 34.72 34.72 0 0 0-7.75-1.5h-.9a2 2 0 0 0-.73-.14 2.25 2.25 0 0 0-.58.08 29.63 29.63 0 0 0-5.87.55A28.35 28.35 0 0 0 67.55 93h-.06a1.83 1.83 0 0 0-.3.18c-1.44 1.06 2.19 6.19 3.63 5.19a22.09 22.09 0 0 1 8.77-3.6v40a2.2 2.2 0 0 0 4.39 0V94.38a31 31 0 0 1 6.23.57 32.58 32.58 0 0 1 6.7 2H97a1.52 1.52 0 0 0 1.37-2.7zM83.09 80.73l-30.4-18.9a6.31 6.31 0 0 0-.63-.34 6 6 0 0 0-8 2.81 7.49 7.49 0 0 0-1.56 3l-5.17 20h15.56l2.78-10.77 23.7 11.07a3.91 3.91 0 0 0 3.72-6.87zm-18.75 26.42L53.41 96.21H37.26a3.06 3.06 0 0 0-.13 1.47c0 .89.28 1.42 1.55 2.41l17 13.49v18.65a5.3 5.3 0 0 0 10.51 0V111a5.31 5.31 0 0 0-1.53-3.71z"/><path d="M2.3 118.09a2.25 2.25 0 0 1-.3-4.48c19.78-2.38 30.54-22.7 30.64-22.91a2.26 2.26 0 0 1 2-1.22h17.78L51.66 94H36c-2.8 4.77-14 21.77-33.42 24.09zm39.29-6.5l-10.46 22.35a4.86 4.86 0 0 1-8.83-4l9.7-22.65a5.3 5.3 0 0 1 9.66 4.14.86.86 0 0 1-.07.16z"/></symbol><symbol viewBox="0 0 195.33 136.6" id="guide-namaste" xmlns="http://www.w3.org/2000/svg"><path fill-opacity=".5" d="M123.21 0L87.56 82.14c4.93 14.38 20.54 27.52 35.16 54.46h72.61z"/><path fill-opacity=".5" d="M63.66 102.68c-19.22-15.86 1.64-41.9 19.06-48.22L70.89 44.27 0 136.36h103.42c-10.52-15-25.22-22.68-36.56-31.05z"/><path fill-opacity=".3" d="M99.58 54.46H82.72c-.93.37-1.82.75-2.7 1.12-16.75 7.85-34.6 32.06-16.36 47.1l3.2 2.63c11.34 8.37 26 16.1 36.56 31.05l19.3.24c-14.62-26.94-30.23-40.08-35.16-54.46z"/><circle cx="46.41" cy="43.65" r="10.26"/><path d="M86.74 31.4c-1.41-1.07-2.28-1.5-3.83-.76l3.83 8.25.63-.7a4.62 4.62 0 0 0-.63-6.79zM62.78 65.25L82.05 44l-4.33-8.88-17 18.74a8.56 8.56 0 0 1-6.34 2.81H38.47A9.08 9.08 0 0 1 32.06 54L11.55 33.46a4.79 4.79 0 0 0-6.4-.46 4.62 4.62 0 0 0-.31 6.81l23.44 23.45a15 15 0 0 1 4.39 10.6L29 130.25a4.68 4.68 0 0 0 3.73 5.08 4.51 4.51 0 0 0 5.43-4l3.56-33.85a3.34 3.34 0 0 1 3.32-3h2.87A2.72 2.72 0 0 1 50.65 97c.68 8.29 2.86 34.39 2.86 34.39a5.15 5.15 0 0 0 5 4.62 4.19 4.19 0 0 0 4.24-4.62l-3.22-57.8a12.37 12.37 0 0 1 3.25-8.34z"/><path d="M59.16 27a36.11 36.11 0 0 1 5.19-5.92 35.54 35.54 0 0 1 6.34-4.7l.81-.38a2 2 0 0 1 .6-.44 2.81 2.81 0 0 1 .56-.18 28.73 28.73 0 0 1 5.54-2 27.81 27.81 0 0 1 8.23-.84h.4c1.76.33.69 6.53-1 6.25a22.07 22.07 0 0 0-9.46.53l17.26 36.1a2.21 2.21 0 0 1-4 1.9L72.19 20.85a32.45 32.45 0 0 0-10.53 7.93h-.08a1.51 1.51 0 0 1-2.4-1.78z"/></symbol><symbol viewBox="0 0 195.33 136.6" id="helicopter" xmlns="http://www.w3.org/2000/svg"><path fill-opacity=".5" d="M123.21 0L87.56 82.14c4.93 14.38 20.54 27.52 35.16 54.46h72.61z"/><path fill-opacity=".5" d="M63.66 102.68c-19.22-15.86 1.64-41.9 19.06-48.22L70.89 44.27 0 136.36h103.42c-10.52-15-25.22-22.68-36.56-31.05z"/><path fill-opacity=".3" d="M99.58 54.46H82.72c-.93.37-1.82.75-2.7 1.12-16.75 7.85-34.6 32.06-16.36 47.1l3.2 2.63c11.34 8.37 26 16.1 36.56 31.05l19.3.24c-14.62-26.94-30.23-40.08-35.16-54.46z"/><g data-name="helicopter"><path d="M59.83 13.2s-10.94.57-18.09 13.57c-.71.67.08 1.28-3.61 1.84-4.12 0-19.28.06-19.28.06s-5.72-2.67-6.31 1.27 1.94 3.81 4.85 3.48c3.27 1.49 18.75 9.19 18.75 9.19s2.86 1.12 4.51 6.29C44.79 59 81.77 65.24 92 49.64 77.92 47.82 60.81 42 59.83 13.2zm-6.2 9.57c-3.17 2.17-3.26 1-8.83 8.37 0 0-.9-5.58 7.15-10.72 1.8-.61 3.99-.2 1.68 2.35z"/><path data-name="watch window" fill-opacity=".3" d="M61.15 13.12S97.38 11.73 92 49.64c-9.24-.57-29.75-7.25-30.85-36.52z"/><path d="M42.33 68.49s-3.46-2.84 1.2-3c2.6-.11 38.14 0 38.14 0a9.17 9.17 0 0 0 7.38-3.94c1.27-1.75 3.83-1.92 2.08 1.19-2.39 4.27-7 5.44-11.36 5.54s-37.44.27-37.44.27"/><path fill-opacity=".5" d="M46.67 64.86A7.71 7.71 0 0 0 49.85 61a11.37 11.37 0 0 1 3.1.33l.81 3.54zm26 .28l1.69-3.28L77 61.6s.65 3 2.46 3.54z"/><path d="M57.19 13.2l.93-2.95s1.52 1.05 4.19-1.49c-.66-.59-1.85-.77-3.43-.29.71-1.15 4.75-4.75 5.54 4.33-2.88 0-3.96-.41-7.23.4z"/><path data-name="propeller left" d="M58.44 9.2a94.34 94.34 0 0 0-29.58-3.1c-16.62.87-6.61 6.7 1.45 6.29C38 11.71 58.44 9.2 58.44 9.2z"/><path data-name="propeller right" d="M63.72 8.69S78.42 4.53 86 4.7s28.35 4.3 3 6.75c-14 .15-12.76.45-25.28-2.76z"/><path d="M1.15 30.41S2 13.85 16.65 16.14c.6 2.8.39 5.19-.12 10.06l-1.82 1.26-2.38-7.85s-5.9.52-11.18 10.8zm29.74 6.38s-3.57 8-15.1 9.28c-1.59 0-2-.6-1.09-10.93a6.09 6.09 0 0 1 1.46-1.34l2.48 8.54s8.55-1.99 12.25-5.55z"/><path fill-opacity=".3" d="M72.64 20.17s8.42 2.14 11.14 8.32c1.76 1.66 2.53.8 1.92-1.43-1.89-3.42-2.92-6.28-11.87-9.95-3.48-.34-1.19 3.06-1.19 3.06z"/><ellipse fill-opacity=".3" cx="67.51" cy="16.77" rx="1.55" ry="1.9" transform="rotate(-64.79 67.516 16.765)"/><path fill-opacity=".3" d="M44.8 31.14s-.9-5.58 7.2-10.72c1.8-.61 4-.2 1.68 2.35-3.22 2.17-3.31.98-8.88 8.37z"/></g></symbol><symbol viewBox="0 0 195.3 136.6" id="logistics" xmlns="http://www.w3.org/2000/svg"><path d="M133 71.4H95.4c-3.5 0-6.4 2.9-6.4 6.4v6.6h-5.3v10.8H89v13.4h-2.9c-1.6 0-2.9 1.4-2.9 3l-.1 22.4c0 1 .4 1.8 1.3 2.3h11.8c.8-.5 1.3-1.4 1.3-2.3v-9.6h6.3c.2 2.1 2 3.7 4.1 3.6h12.6c2.1.1 3.9-1.5 4.1-3.6h6.2v9.7c0 1 .5 2 1.4 2.5h11.7c.9-.5 1.4-1.5 1.4-2.5v-22.4c0-1.7-1.3-3-3-3h-2.8V95.1h5.4l.1-10.8h-5.4v-6.6c-.2-3.5-3.1-6.3-6.6-6.3zm-34.4 38.3c-2.5 0-4.6-2-4.6-4.6 0-2.6 2.1-4.6 4.6-4.6s4.6 2.1 4.6 4.6c0 2.6-2 4.7-4.6 4.6zm8.5 0v-9.2h14.1v9.2h-14.1zm27.2-4.5c0 2.6-2.1 4.6-4.6 4.6-2.6 0-4.6-2.1-4.6-4.6 0-2.6 2.1-4.6 4.6-4.6 2.5 0 4.6 2 4.6 4.6zm-1.7-12.9H95.7V78.1h36.9v14.2z"/><path fill-opacity=".5" d="M123.2 0L87.6 82.1c2 5.9 5.9 11.6 10.7 18.2h.2c2.7 0 4.8 2.2 4.8 4.8 0 .5-.1 1-.3 1.5 7.3 9.5 13.9 19.5 19.8 30h72.6L123.2 0zm6.5 110c-2.7 0-4.8-2.2-4.8-4.8s2.2-4.8 4.8-4.8c2.7 0 4.8 2.2 4.8 4.8 0 2.6-2.2 4.8-4.8 4.8z"/><path fill-opacity=".5" d="M66.9 105.3l-3.2-2.6c-19.2-15.9 1.6-41.9 19.1-48.2L70.9 44.3 0 136.4h103.4c-10.5-15-25.2-22.7-36.5-31.1z"/><path fill-opacity=".3" d="M103 106.6c-.8 2.5-3.5 3.9-6.1 3.1-2.5-.8-3.9-3.5-3.1-6.1.6-1.9 2.4-3.3 4.4-3.3-4.8-6.5-8.7-12.3-10.7-18.2l12-27.7H82.7c-.9.4-1.8.8-2.7 1.1-16.8 7.8-34.6 32.1-16.4 47.1l3.2 2.6c11.3 8.4 26 16.1 36.6 31l19.3.2c-5.8-10.3-12.4-20.3-19.7-29.8z"/><path d="M85.6 33.3l-14-26.8-13.3 7L50 4.7 36 18c-.7.6-1 1.5-1.1 2.4-.9 0-1.8.3-2.4 1l-13 12.4-11.7 6.1 1.8 3.3L5.7 47l12.7 13.3 3.4 6.4 38.6-20.3c.9-.5 1.6-1.3 1.9-2.3V44c1 .4 2.2.3 3.1-.2l20.2-10.5zM33.9 23c.6-.5 1.4-.5 1.9 0l1.6-1.5c-.3-.3-.4-.6-.4-1 0-.3.2-.7.4-.9L49.8 7.8l6.4 6.7-4.7 2.5c-.9.5-1.6 1.3-1.9 2.3v.1c-1-.3-2.1-.3-3.1.2l-20 10.5 7.4-7.1zM8.8 47l1.8-1.7 4.2 8.1-6-6.4zm53.3-5.9l-.9-1.6-1.9 1 .9 1.6c.2.4.3.9.1 1.4-.1.5-.5.8-.9 1.1L22.7 63.8l-12-23 36.6-19.2c.9-.4 1.9-.1 2.4.8l.5.9 1.9-1-.5-.9c-.4-.9-.1-1.9.8-2.4l18.2-9.6 12 23-18.1 9.5c-.9.4-2 .1-2.4-.8z"/><path d="M51.231 25.242l1.949-1.021 1.02 1.948-1.948 1.021zm1.989 3.803l1.949-1.021 1.021 1.948-1.948 1.022zm2.078 3.764l1.949-1.022 1.02 1.949-1.948 1.021zm2.035 3.893l1.949-1.022 1.021 1.948-1.948 1.022zm-42.397 7.605L48.057 26.94l1.022 1.948-33.122 17.368zm2.734 5.103l13.372-7.012 1.021 1.948-13.372 7.012zm14.734-7.79l5.048-2.647 1.021 1.949-5.047 2.647zM21.332 56.45l20.37-10.676 1.022 1.948L22.353 58.4zm18.014-18.396l5.048-2.646 1.021 1.948-5.048 2.646zm6.366-3.399l5.049-2.646 1.021 1.948-5.048 2.646zM76.7 32.8l1.6-5.3-5.8-5.5 1.1-3.5c.5-1.7-.4-3.5-2.1-4.1l-.7-.2c-1.7-.5-3.5.4-4.1 2.1l-1 3.1-8.7 1.5-1.6 5.3 8 1.2-.5 2.3-2.7.3-1.5 4.7 2.9.3-.5 1.9 5.3 1.7.7-1.8 2.6 1.3 1.4-4.7-2-1.8.8-2 6.8 3.2zm-8 1.3l-.3.8-2.4-1.3-.9 2.2-1.5-.5.5-2.3-2.7-.3.3-.9 2.8-.4 1.4-6-7.9-1.1.5-1.6 8.8-1.4 1.4-4.4c.2-.6.8-.9 1.3-.7l.7.2c.6.2.9.8.7 1.4l-1.5 4.7 5.8 5.6-.5 1.6-6.5-3.2-2.2 5.6 2.2 2z"/><path d="M85.6 33.3l-14-26.8-13.3 7L50 4.7 36 18c-.7.6-1 1.5-1.1 2.4-.9 0-1.8.3-2.4 1l-13 12.4-11.7 6.1 1.8 3.3L5.7 47l12.7 13.3 3.4 6.4 38.6-20.3c.9-.5 1.6-1.3 1.9-2.3V44c1 .4 2.2.3 3.1-.2l20.2-10.5zM33.9 23c.6-.5 1.4-.5 1.9 0l1.6-1.5c-.3-.3-.4-.6-.4-1 0-.3.2-.7.4-.9L49.8 7.8l6.4 6.7-4.7 2.5c-.9.5-1.6 1.3-1.9 2.3v.1c-1-.3-2.1-.3-3.1.2l-20 10.5 7.4-7.1zM8.8 47l1.8-1.7 4.2 8.1-6-6.4zm53.3-5.9l-.9-1.6-1.9 1 .9 1.6c.2.4.3.9.1 1.4-.1.5-.5.8-.9 1.1L22.7 63.8l-12-23 36.6-19.2c.9-.4 1.9-.1 2.4.8l.5.9 1.9-1-.5-.9c-.4-.9-.1-1.9.8-2.4l18.2-9.6 12 23-18.1 9.5c-.9.4-2 .1-2.4-.8z"/><path d="M51.231 25.242l1.949-1.021 1.02 1.948-1.948 1.021zm1.989 3.803l1.949-1.021 1.021 1.948-1.948 1.022zm2.078 3.764l1.949-1.022 1.02 1.949-1.948 1.021zm2.035 3.893l1.949-1.022 1.021 1.948-1.948 1.022zm-42.397 7.605L48.057 26.94l1.022 1.948-33.122 17.368zm2.734 5.103l13.372-7.012 1.021 1.948-13.372 7.012zm14.734-7.79l5.048-2.647 1.021 1.949-5.047 2.647zM21.332 56.45l20.37-10.676 1.022 1.948L22.353 58.4zm18.014-18.396l5.048-2.646 1.021 1.948-5.048 2.646zm6.366-3.399l5.049-2.646 1.021 1.948-5.048 2.646zM76.7 32.8l1.6-5.3-5.8-5.5 1.1-3.5c.5-1.7-.4-3.5-2.1-4.1l-.7-.2c-1.7-.5-3.5.4-4.1 2.1l-1 3.1-8.7 1.5-1.6 5.3 8 1.2-.5 2.3-2.7.3-1.5 4.7 2.9.3-.5 1.9 5.3 1.7.7-1.8 2.6 1.3 1.4-4.7-2-1.8.8-2 6.8 3.2zm-8 1.3l-.3.8-2.4-1.3-.9 2.2-1.5-.5.5-2.3-2.7-.3.3-.9 2.8-.4 1.4-6-7.9-1.1.5-1.6 8.8-1.4 1.4-4.4c.2-.6.8-.9 1.3-.7l.7.2c.6.2.9.8.7 1.4l-1.5 4.7 5.8 5.6-.5 1.6-6.5-3.2-2.2 5.6 2.2 2z"/><g fill-opacity=".3"><circle cx="98.6" cy="105.1" r="4.6"/><circle cx="129.7" cy="105.2" r="4.6"/></g></symbol><symbol viewBox="0 0 195.33 136.6" id="rafting" xmlns="http://www.w3.org/2000/svg"><path fill-opacity=".5" d="M123.21 0L87.56 82.14c4.93 14.38 20.54 27.52 35.16 54.46h72.61z"/><path fill-opacity=".5" d="M63.66 102.68c-19.22-15.86 1.64-41.9 19.06-48.22L70.89 44.27 0 136.36h103.42c-10.52-15-25.22-22.68-36.56-31.05z"/><path fill-opacity=".3" d="M99.58 54.46H82.72c-.93.37-1.82.75-2.7 1.12-16.75 7.85-34.6 32.06-16.36 47.1l3.2 2.63c11.34 8.37 26 16.1 36.56 31.05l19.3.24c-14.62-26.94-30.23-40.08-35.16-54.46z"/><path data-name="rafting" d="M128.33 91.46c-3.51 1.51-5.11 2.91-6.92 7.52l-1.2 1.2s-.5-1.1-1.3-.9a4.91 4.91 0 0 0-2.11 1.91c-.2.4.3 1.1.3 1.1l-6.51 4.81a7.14 7.14 0 0 0-3.91 0 16.63 16.63 0 0 0-4.41 2.31v1.7s-3.41-5.91-4.71-8-3.61-2.91-6.72-3.31a13.78 13.78 0 0 0-6.11.81l10 13.33a18.07 18.07 0 0 1 .5-2.41c.4-1.5.7-2.91.7-2.91l.7.1s1.51 2.51 1.91 3.21.7 1 0 1.61l-2 1.7s-.4-.4-2.1-.3C93.15 113 80.32 95.27 80.32 95.27s.7-.8-.4-1.9-1.91-.7-1.91-.7l-2.71-3.31a1.61 1.61 0 0 1 1.31-.7c1 0 5.81-.7 7.21-.9s2-1.21 1.61-2.71a98.64 98.64 0 0 0-4.31-10.32 10.93 10.93 0 0 0-2.41-2.81l3.51-4.11a20.81 20.81 0 0 0 7.62-3.71C92.85 61.49 93.45 60 93 59s-3.41-3.81-4.82-3.91c-.9-.1-3.6 2.51-4.91 4.91a27 27 0 0 0-2 6.72l-3.71 4s-1.3-1.41-2.41-.71a3.35 3.35 0 0 0-1.2 2.81c0 .6.7 1.1.7 1.1l-20.9 22.76s-1.1-1.41-1.9-.4-2 1.8-.8 3.3c-.9 1.31-.1 1.51-.1 1.51l1.1.1.5-.7 1.51.9a24.88 24.88 0 0 1 7.71 2.3c4.21 2 12.13 5.52 12.13 5.52a45.77 45.77 0 0 1-.9-9.33c.1-4.81.5-10.22.5-10.22s.2.2.9 1.1c.9 1 2.31 2.71 2.31 2.71s-1.71 7-1.61 10.62 0 5.52 2.11 4.91a65.7 65.7 0 0 0 6.71-2.8l.51.4s-.91 6.11-1.11 6.92c.6.9 2.71 1.6 2.71 1.6l9.22 3.31s.7 1.1.1 1.1a129.55 129.55 0 0 1-20.65-8.72c-9.62-4.91-21.65-11.13-32.7-7.62s-8.62 13.63-2.71 18.54c0 0 3.11-1.3 9.92-1.3s17.55 2.51 30.48 6 21 5.11 23.25 5.31a4.86 4.86 0 0 0 .4 1.5s-15.64-3.11-27.66-6.41-22-5.32-30.37-4.41c-8.62.9-10.73 3.2-11.63 4.11 2.8-1.51 7.92-3.91 18.84-2.51s24.06 5.11 41.8 9.12 21.25 2.51 23.75 2a4.08 4.08 0 0 0 2-1.11 18.47 18.47 0 0 1-6.32.7 13.84 13.84 0 0 0-7.91-6.91c-4.31-1.71-3.31-1.71-4.31-3.21s-4.82-6.51-4.82-6.51a30.11 30.11 0 0 0 2.91-1.61 17.84 17.84 0 0 0 2.51-1.7l.7 5.11s6.11 1 9.82.3c.1-3.91.3-8.12.3-8.12s4.51 1.61 6 1.91 2.3-.5 2.3-2.11-.1-7-.1-8.12a5.66 5.66 0 0 0-.7-2.1l1.6-.9a18.32 18.32 0 0 0 5.22-1.21 14.47 14.47 0 0 0 4.11-2.9 7.81 7.81 0 0 0-3.05-5.19zm-67.76 9.13a40.12 40.12 0 0 1-4.41-.71 1.25 1.25 0 0 1-.7-1.1l.1-1.9s2.5-2.91 2.91-3.21.5.3.5.3 1.3 3.71 1.6 4.91.5 1.71 0 1.71zM71.7 83.65a11.8 11.8 0 0 0-6 2.5l9.2-10.42a2.93 2.93 0 0 0 1.61-.3A3.14 3.14 0 0 1 78 75s1.4 4.81 2 6.71 1 2.41 0 2.41-6.3-.67-8.3-.47zm6.61 20.54s-.2-4.21-.1-5.61.6-2.4 1.1-1.8c.71.8 3.31 4.51 3.31 4.51s-3.41 2.8-4.31 2.9zm41.1 0c-.2.71-.4 3.51-.5 4.71s0 1.41-1.11 1.21a53 53 0 0 1-5.71-2.71l5.51-4 1.61-.1c-.1-.11.4.19.2.89zm4.31 15.81c-3.51-1.1-7.22.7-13.23 1.2a31.08 31.08 0 0 1-11.13-1.2 43 43 0 0 1 2.41 3.61 6.45 6.45 0 0 0 2.1 2.4c4.51 1.61 7.42 4 8.82 6.52 9-.8 12.53-2.61 14.13-5.21s.51-6.19-3.1-7.32zM62.27 86l3.51-3.61s.8-3.5-1.7-5.11a4.77 4.77 0 0 0-6.52 1.2c-1.1 1.61-1.4 4.51.3 6a4.89 4.89 0 0 0 4.41 1.57zm25 7.82c-.1 2.41 1.31 4.81 4.31 4.71A4.35 4.35 0 0 0 96 94.27a4.45 4.45 0 0 0-4.41-4.51 3.9 3.9 0 0 0-4.36 4.11zM106 106.3a3.92 3.92 0 0 0 4.11-3.71 4.16 4.16 0 1 0-8.32-.3 4.26 4.26 0 0 0 4.21 4.01z"/></symbol><symbol viewBox="0 0 195.33 136.86" id="trekking-couple" xmlns="http://www.w3.org/2000/svg"><g data-name="Layer 2"><path fill-opacity=".5" d="M123.21 0L87.56 82.14c4.93 14.38 20.54 27.52 35.16 54.46h72.61z"/><path fill-opacity=".5" d="M63.66 102.68c-19.22-15.86 1.64-41.9 19.06-48.22L70.89 44.27 0 136.36h103.42c-10.52-15-25.22-22.68-36.56-31.05z"/><path fill-opacity=".3" d="M99.58 54.46H82.72c-.93.37-1.82.75-2.7 1.12-16.75 7.85-34.6 32.06-16.36 47.1l3.2 2.63c11.34 8.37 26 16.1 36.56 31.05l19.3.24c-14.62-26.94-30.23-40.08-35.16-54.46z"/></g><g data-name="Layer 1"><path d="M108.84 136.86a6.21 6.21 0 0 1-2-.33 5.43 5.43 0 0 1-3.51-4.65l-1.49-21.06-7-5.42 4.85-9.7 11.4 8.59a.93.93 0 0 1 .33.21l.11.11a2 2 0 0 1 .8 1.63l1.8 25a5.07 5.07 0 0 1-1.33 3.87 5.32 5.32 0 0 1-3.96 1.75zm-20.33-72.5a2.36 2.36 0 0 1-1.51-.65 11.16 11.16 0 0 1-1.75-2.06 9.73 9.73 0 0 1 13.42-13.39 9.15 9.15 0 0 1 7.66-4.1 9.46 9.46 0 0 1 9.3 9.4A9.22 9.22 0 0 1 97.33 55a9.09 9.09 0 0 0-2.44 1 8.39 8.39 0 0 0-4 6.32 2.35 2.35 0 0 1-1.56 1.93 1.9 1.9 0 0 1-.82.11z"/><path d="M125.53 135.27L122 83l-10.52 2.84a8.09 8.09 0 0 1-1.63.22 6.11 6.11 0 0 1-4.47-2l-2.08-2.24-9.09 20.64-14.37 30.71a5.47 5.47 0 0 1-5 3.09 6.21 6.21 0 0 1-2-.33 5.68 5.68 0 0 1-3-3 5.32 5.32 0 0 1 .1-4.09l14.39-30.69 2-7.66a7.43 7.43 0 0 1-4.66.25 7.21 7.21 0 0 1-4.34-3.46 7.34 7.34 0 0 1-.67-5.56l2.8-10.19A7.24 7.24 0 0 1 92.11 69l.17-.18a7.83 7.83 0 0 1 7.33-5.22 7.74 7.74 0 0 1 6.39 3.32l.33.32 5.48 6 12.8-3.43a6.63 6.63 0 0 1 1.53-.21 6 6 0 0 1 5.86 4.47 5.4 5.4 0 0 1-.67 4.51 6.35 6.35 0 0 1-3.68 2.8l-1.21.3 3.69 53.3c-.92 2.62-4.23 1.62-4.6.29zM55.09 55.68a8.34 8.34 0 1 1 8.34-8.34 8.33 8.33 0 0 1-8.34 8.34zM74.12 83.7a3.65 3.65 0 0 0-2.28-3.85l-12.51-4.47-5.72-15.57a9.82 9.82 0 0 0-6.77-5.43 7.3 7.3 0 0 0-7.59 3.41c.41-1.6.66-2.58.66-2.6a7.09 7.09 0 0 0 .26-2 8.08 8.08 0 0 0-8-8.17h-.11a8.08 8.08 0 0 0-7.91 6.44l-7.69 30a6.35 6.35 0 0 0-.14 1.23v.63a8.1 8.1 0 0 0 8 8.09h.07a8.41 8.41 0 0 0 7-3.87l-4.95 20.58-12.28 19.23a4.42 4.42 0 0 0-.78 2.56 5.49 5.49 0 0 0 1.35 4.42 6.25 6.25 0 0 0 4.18 2.14h.6a5.64 5.64 0 0 0 5-3l13.2-20.74c.27-.56.63-1.33 1.13-2.44l8.65-36.86-.21-.69-1.16-2.64a.64.64 0 0 1 .28-.83.61.61 0 0 1 .81.3l4.73 10.18.31.64A3.87 3.87 0 0 0 54 81.9l11.55 4.27-7 14-.73-.76L46.25 90l-2.64 11.9 8.39 7.46.06 3.91-10.22 20.59v.14c0 .17.19 1.74 1.24 2.18a2.09 2.09 0 0 0 2.13-.57l.13-.17c.45-.91 3.27-6.66 6.85-13.91l.14 9.55a5.41 5.41 0 0 0 5.15 4.78 5.19 5.19 0 0 0 4.08-1.5 5.87 5.87 0 0 0 1.87-4l-.1-22.14a6.94 6.94 0 0 0-1.49-4.76l-.5-.52c3.72-7.55 6.85-13.88 7.65-15.5l.19.07h.15a4.31 4.31 0 0 0 4.79-3.79z"/><path d="M108.84 136.86a6.21 6.21 0 0 1-2-.33 5.43 5.43 0 0 1-3.51-4.65l-1.49-21.06-7-5.42 4.85-9.7 11.4 8.59a.93.93 0 0 1 .33.21l.11.11a2 2 0 0 1 .8 1.63l1.8 25a5.07 5.07 0 0 1-1.33 3.87 5.32 5.32 0 0 1-3.96 1.75zm-20.33-72.5a2.36 2.36 0 0 1-1.51-.65 11.16 11.16 0 0 1-1.75-2.06 9.73 9.73 0 0 1 13.42-13.39 9.15 9.15 0 0 1 7.66-4.1 9.46 9.46 0 0 1 9.3 9.4A9.22 9.22 0 0 1 97.33 55a9.09 9.09 0 0 0-2.44 1 8.39 8.39 0 0 0-4 6.32 2.35 2.35 0 0 1-1.56 1.93 1.9 1.9 0 0 1-.82.11z"/><path d="M125.53 135.27L122 83l-10.52 2.84a8.09 8.09 0 0 1-1.63.22 6.11 6.11 0 0 1-4.47-2l-2.08-2.24-9.09 20.64-14.37 30.71a5.47 5.47 0 0 1-5 3.09 6.21 6.21 0 0 1-2-.33 5.68 5.68 0 0 1-3-3 5.32 5.32 0 0 1 .1-4.09l14.39-30.69 2-7.66a7.43 7.43 0 0 1-4.66.25 7.21 7.21 0 0 1-4.34-3.46 7.34 7.34 0 0 1-.67-5.56l2.8-10.19A7.24 7.24 0 0 1 92.11 69l.17-.18a7.83 7.83 0 0 1 7.33-5.22 7.74 7.74 0 0 1 6.39 3.32l.33.32 5.48 6 12.8-3.43a6.63 6.63 0 0 1 1.53-.21 6 6 0 0 1 5.86 4.47 5.4 5.4 0 0 1-.67 4.51 6.35 6.35 0 0 1-3.68 2.8l-1.21.3 3.69 53.3c-.92 2.62-4.23 1.62-4.6.29zM55.09 55.68a8.34 8.34 0 1 1 8.34-8.34 8.33 8.33 0 0 1-8.34 8.34zM74.12 83.7a3.65 3.65 0 0 0-2.28-3.85l-12.51-4.47-5.72-15.57a9.82 9.82 0 0 0-6.77-5.43 7.3 7.3 0 0 0-7.59 3.41c.41-1.6.66-2.58.66-2.6a7.09 7.09 0 0 0 .26-2 8.08 8.08 0 0 0-8-8.17h-.11a8.08 8.08 0 0 0-7.91 6.44l-7.69 30a6.35 6.35 0 0 0-.14 1.23v.63a8.1 8.1 0 0 0 8 8.09h.07a8.41 8.41 0 0 0 7-3.87l-4.95 20.58-12.28 19.23a4.42 4.42 0 0 0-.78 2.56 5.49 5.49 0 0 0 1.35 4.42 6.25 6.25 0 0 0 4.18 2.14h.6a5.64 5.64 0 0 0 5-3l13.2-20.74c.27-.56.63-1.33 1.13-2.44l8.65-36.86-.21-.69-1.16-2.64a.64.64 0 0 1 .28-.83.61.61 0 0 1 .81.3l4.73 10.18.31.64A3.87 3.87 0 0 0 54 81.9l11.55 4.27-7 14-.73-.76L46.25 90l-2.64 11.9 8.39 7.46.06 3.91-10.22 20.59v.14c0 .17.19 1.74 1.24 2.18a2.09 2.09 0 0 0 2.13-.57l.13-.17c.45-.91 3.27-6.66 6.85-13.91l.14 9.55a5.41 5.41 0 0 0 5.15 4.78 5.19 5.19 0 0 0 4.08-1.5 5.87 5.87 0 0 0 1.87-4l-.1-22.14a6.94 6.94 0 0 0-1.49-4.76l-.5-.52c3.72-7.55 6.85-13.88 7.65-15.5l.19.07h.15a4.31 4.31 0 0 0 4.79-3.79z"/></g></symbol></svg>